<svg id="Layer_1" data-name="Layer 1" xmlns="http://www.w3.org/2000/svg" viewBox="0 0 22 22"><defs><style>.cls-1{fill:#fff;}.cls-2{fill:#b3995d;}.cls-3{fill:#a00;}</style></defs><ellipse class="cls-1" cx="11" cy="11.27" rx="11" ry="6.5"/><ellipse cx="10.98" cy="11.32" rx="10.67" ry="6.22"/><ellipse class="cls-2" cx="11.02" cy="11.39" rx="9.3" ry="5.74"/><ellipse class="cls-3" cx="11.05" cy="11.29" rx="8.56" ry="5.36"/><path d="M17.74,10.59h0V10.4H14.32a1.94,1.94,0,0,0-.61-1,2.31,2.31,0,0,0-1.27-.72l-.21,0A9,9,0,0,0,9.8,8.44s-.3,0-.59,0L9,8.33C9,8.2,9.27,8,9.54,8A5.18,5.18,0,0,1,13,8.79l0,0h1.14V7.07H14V6.88H12.41l-.26.2a7.79,7.79,0,0,0-4.57.24A1.78,1.78,0,0,0,6.32,8.91a1.09,1.09,0,0,0,.44.81,1.65,1.65,0,0,0,.9.55,7,7,0,0,0,1.5.26v.79h.2v.2H10c.25,0,.31.13.33.19a4.54,4.54,0,0,1-2.77-1.06l0,0h0l-.13-.14-.06-.06H6.43v2.49h.19v.19h.7c.1,0,.43,0,.65-.68a8,8,0,0,0,2.36.43v1.54c0,.52-1.18.68-1.58.7H8.59v.77h.19v.2h5v-.74l-.13,0-.06,0V15.1h-.16a3,3,0,0,1-.67-.14c-.31-.17-.37-.32-.38-.34v-.82h1.48a.86.86,0,0,1,.4.18,2.39,2.39,0,0,1,.31.56l0,.12h.13l0,.08,0,.12h.79v-3h-.2v-.2h-.78l0,.14c-.21,1-1.36,1-2.38.83a4.82,4.82,0,0,0,.61-.2A2.77,2.77,0,0,0,14,11.57h2.2a.73.73,0,0,1,.4.12,1.54,1.54,0,0,1,.2.84v.18H17v.19h.88V10.59Z"/><path class="cls-1" d="M14.22,11.2h1.83c1,0,1,1.34,1,1.34h.52v-2H14.39a1.28,1.28,0,0,1-.17.63"/><path class="cls-1" d="M10.5,12.89V14.4c-.05.79-1.74.86-1.74.86v.43h4.67v-.43C12,15.14,12,14.43,12,14.43v-1H13.7c.76.11,1.05,1.06,1.05,1.06h.49V11.83h-.47c-.33,1.6-2.78.88-3,.92a5.71,5.71,0,0,1-1.31.14"/><path class="cls-1" d="M12,10.28c.64.19.69.67.32,1.13a2,2,0,0,1-1.2.46A5.05,5.05,0,0,1,7.21,10.6H6.6v2.14h.53s.33,0,.54-.74a7.34,7.34,0,0,0,4.9.08c2.31-.92,1.43-2.94-.16-3.25A9.15,9.15,0,0,0,9.8,8.61s-.32,0-.63,0c-1-.24-.42-.87.15-.94a5.18,5.18,0,0,1,3.56.83h.92V7.05H12.47l-.29.22a7.69,7.69,0,0,0-4.53.21c-1.38.57-1.65,2-.14,2.43a12.64,12.64,0,0,0,3.52.28,4.48,4.48,0,0,1,.93.09"/><path class="cls-1" d="M10,11.15H9.33v-.57h2.21c.71,0,.81.42.5.7a1.9,1.9,0,0,1-1.58.32.5.5,0,0,0-.49-.45"/></svg>