<svg id="Layer_1" data-name="Layer 1" xmlns="http://www.w3.org/2000/svg" xmlns:xlink="http://www.w3.org/1999/xlink" viewBox="0 0 22 22"><defs><style>.cls-1{fill:none;}.cls-2{clip-path:url(#clip-path);}.cls-3{fill:#12100b;}.cls-4{fill:#e53812;}</style><clipPath id="clip-path"><rect class="cls-1" x="0.16" y="4.13" width="22" height="14.73"/></clipPath></defs><g class="cls-2"><path class="cls-3" d="M2.33,10.46c.88-1.23,1.35-2.62,2.54-3.63a11.58,11.58,0,0,1,1-.74A8.07,8.07,0,0,1,8.33,5,14.62,14.62,0,0,1,14,4.63a12,12,0,0,1,4.57,1.61A8.75,8.75,0,0,1,20,7.37c.23.22.44.44.65.68l.53.59H17A8.51,8.51,0,0,0,12,7c-1.88,0-4.31.66-5.54,2.2a4,4,0,0,0-.7,1.37A3.17,3.17,0,0,0,6,13a4,4,0,0,0,.81,1,7.89,7.89,0,0,0,5,1.85,8.13,8.13,0,0,0,4.67-1.32,3.86,3.86,0,0,0,1.66-2h3.52v0h0A5,5,0,0,1,21,14.36a6.27,6.27,0,0,1-1.28,1.44,10.62,10.62,0,0,1-3.54,2,12.36,12.36,0,0,1-2.34.51A12.86,12.86,0,0,1,7,17.44a9.1,9.1,0,0,1-3.68-3A7.49,7.49,0,0,0,.77,11.69c.08,0,.47-.24.53-.29a4.65,4.65,0,0,0,1-.94ZM8,4.7a11.36,11.36,0,0,0-1.27.47A7.33,7.33,0,0,0,5.27,6,9.18,9.18,0,0,0,2.55,9.32a4.48,4.48,0,0,1-2.39,2.3V12a2.38,2.38,0,0,1,1.77,1.12c.49.66.9,1.39,1.41,2A8.89,8.89,0,0,0,5,16.75a11.35,11.35,0,0,0,6.79,2.1,17.15,17.15,0,0,0,2-.12,11.92,11.92,0,0,0,4.32-1.32,8.73,8.73,0,0,0,1.05-.65,8.12,8.12,0,0,0,.86-.69,8,8,0,0,0,1.21-1.32A5.38,5.38,0,0,0,22,13.13c0-.09.2-1.06.11-1.06H17.89s-.14.48-.16.53a2.61,2.61,0,0,1-.28.52,6,6,0,0,1-3.21,2,9.63,9.63,0,0,1-1.07.21,7.69,7.69,0,0,1-4.06-.46,7.77,7.77,0,0,1-1-.5,4.15,4.15,0,0,1-1.9-1.87c-.71-1.86.56-3.47,2.17-4.27a7.89,7.89,0,0,1,1.33-.5A10.65,10.65,0,0,1,11.1,7.5a7.77,7.77,0,0,1,4.59.8c.24.14.48.31.72.47.08.05.33.28.43.28h5.1L21.89,9A10.45,10.45,0,0,0,17,5a12.25,12.25,0,0,0-1.78-.56,14.69,14.69,0,0,0-5.72-.14A13.75,13.75,0,0,0,8,4.7Z"/></g><path class="cls-4" d="M1.77,11.73a3.2,3.2,0,0,0,.83-.81A4.6,4.6,0,0,0,3,10.39c.21-.4.46-.84.65-1.25a4.23,4.23,0,0,1,.66-1.05A8.65,8.65,0,0,1,5.1,7.2,8.41,8.41,0,0,1,7.48,5.79a11.43,11.43,0,0,1,4.93-.86,12.37,12.37,0,0,1,5.18,1.24,10.4,10.4,0,0,1,1.18.77c.31.23.63.45.92.71l.57.56H17.08a5.28,5.28,0,0,0-.64-.47c-.22-.11-.46-.23-.69-.33a8.6,8.6,0,0,0-1-.35,8.18,8.18,0,0,0-2.19-.38,8.84,8.84,0,0,0-4.37.78,6.8,6.8,0,0,0-1,.62A5.71,5.71,0,0,0,6,9.16a4.13,4.13,0,0,0-.75,1.44A3.24,3.24,0,0,0,5.14,12a3,3,0,0,0,.52,1.3A5.77,5.77,0,0,0,7.45,15a9.17,9.17,0,0,0,3,1.1,8.91,8.91,0,0,0,5.52-.75,5.64,5.64,0,0,0,2.39-2.12l.22-.4h2.6a2.3,2.3,0,0,1-.12.43,3.49,3.49,0,0,1-.2.44l-.22.37a8.82,8.82,0,0,1-.61.76,7.06,7.06,0,0,1-1.51,1.32,10.46,10.46,0,0,1-3.75,1.51,11.85,11.85,0,0,1-3.89.22l-1.1-.15a8.39,8.39,0,0,1-2.88-.93c-.33-.19-.68-.36-1-.58-.16-.11-.33-.21-.48-.33L5,15.57a6.22,6.22,0,0,1-.77-.77A7.36,7.36,0,0,1,3.55,14,9,9,0,0,0,2.32,12.2s-.5-.51-.55-.47Z"/></svg>