<svg id="Layer_1" data-name="Layer 1" xmlns="http://www.w3.org/2000/svg" viewBox="0 0 22 22"><defs><style>.cls-1{fill:#fff;}.cls-2{fill:#fb4f14;}</style></defs><path class="cls-1" d="M19.74,10.87a.13.13,0,0,1,0-.23,3.66,3.66,0,0,0,1.66-3.12c0-1.72-1.23-4.13-6-4.13H3L.15,8.28H2.21a.42.42,0,0,1,.42.41v4.88a.42.42,0,0,1-.42.42H0l2.83,4.87H16c4.22,0,6.05-2.21,6.05-4.58a4,4,0,0,0-2.25-3.41"/><path class="cls-2" d="M12.42,10.07h-2v-2a.38.38,0,0,1,.37-.37h1.66c1,0,1.33.5,1.33,1.15s-.36,1.18-1.33,1.18Zm0,4.51H10.76a.38.38,0,0,1-.37-.37v-2h2c1,0,1.33.48,1.33,1.14s-.36,1.18-1.33,1.18ZM18.24,11a.14.14,0,0,1,0-.26,2.94,2.94,0,0,0,2.13-3c0-2.14-1.87-3.61-4.94-3.61H3.74l-2,3.61H3.1a.5.5,0,0,1,.51.5v5.83a.51.51,0,0,1-.51.5H1.71l2.06,3.59H15.94c3.48,0,4.91-2.31,4.91-4A3.32,3.32,0,0,0,18.22,11"/><path d="M7.71,17.17a20,20,0,0,1-1.92-13h-2l-2,3.61h1.4a.5.5,0,0,1,.51.5v4.47a16.27,16.27,0,0,0,4.09,4.44ZM17.93,4.56a18.66,18.66,0,0,0-3.21,12.61A15.94,15.94,0,0,1,20.37,7.9s0-.07,0-.11a3.37,3.37,0,0,0-2.45-3.21Zm-4.14-.4a30.71,30.71,0,0,0-1.14,3.62H10.8a.38.38,0,0,0-.38.37v2h1.75c-.12.7-.21,1.43-.27,2.17H10.42v2a.37.37,0,0,0,.37.37h1a21,21,0,0,0,.33,3.59H10.63A21.34,21.34,0,0,1,9.42,4.13h4.36"/></svg>