<svg id="Layer_1" data-name="Layer 1" xmlns="http://www.w3.org/2000/svg" viewBox="0 0 22 22"><defs><style>.cls-1{fill:#261b62;}.cls-1,.cls-2,.cls-3{fill-rule:evenodd;}.cls-2{fill:#fff;}.cls-3{fill:#ee7d00;}</style></defs><path class="cls-1" d="M0,8.49a1.8,1.8,0,0,0,1.31.85c.65,0,.66-.4,1.38-.43-.91-.85-.74-3,.24-3.86-.09,2.22.58,2.85,1.86,2.73a2.34,2.34,0,0,1-.87-2.45,2,2,0,0,0,1.46,1c.73,0,1.78-1.21,3.54-1.19A5.36,5.36,0,0,1,13.4,8a3.46,3.46,0,0,1,3,1.23l2.44,1.08-.29.19c.87.53,1.74,1.13,2.62,1.76l.65.3c-.34.68-.22,1.08.2,1.31l-.56,1.45c-.63-.86-1.29-1.46-2-1.46s-.41.8,1.28.83l-.84.81-1.62-.1a.67.67,0,0,0,0-.44c-.11-.33-.58-.68-1.4-1.06a2.88,2.88,0,0,1-3.16-.23c-2.17,1-2.4,1.69-2.56,4.26h-.23c-.75-2.36-1.22-4.09-4.58-4.78S.4,11.89,0,8.49Z"/><path class="cls-2" d="M13.64,8.37a1.1,1.1,0,0,1,.63.55,11.07,11.07,0,0,0-2.89-.46,15.68,15.68,0,0,0-9.21,3,12.24,12.24,0,0,0,2.92,1,10.81,10.81,0,0,1,6-1.82c-.11-.24-.36-.5-.47-.75A10.63,10.63,0,0,1,13.69,11l.06,0a1.91,1.91,0,0,0,1.64,2.06,2.77,2.77,0,0,0,1.38-.44,4.69,4.69,0,0,1,1.33.84A4.68,4.68,0,0,0,16.86,13a3.31,3.31,0,0,1-1.59.41c-1.48-.2-1.81-1-2.28-2.16a6.12,6.12,0,0,0-1.6-.15,6.29,6.29,0,0,0-4.27,1.8,9.05,9.05,0,0,1,2,1,4,4,0,0,1,2.92-1.22,3.48,3.48,0,0,0-2.29,1.81c.27.11.67,1,1,1.78a4.13,4.13,0,0,1,2.91-3.12,2.82,2.82,0,0,0,1.6.62,3.53,3.53,0,0,0,1.47-.37c.77.38,1.61.72,1.91,1.6.41,0,.77.1,1,.13a2,2,0,0,0,.29-.34c-.84-.08-1.32-.41-1.3-.87,0-.31.32-.51.71-.47a3.52,3.52,0,0,1,1.84,1.09h.11a1.19,1.19,0,0,0,.16-.65c-.59-.46-.23-1-.25-1.21-1.2-.67-2.3-1.65-3.5-2.21.08-.08.17-.15.22-.21A14.6,14.6,0,0,0,16,9.51a2.72,2.72,0,0,0-2.39-1.14Zm2,1.07a1.71,1.71,0,0,0-1-.72A.92.92,0,0,1,15,9a1.74,1.74,0,0,0-.45,0,5.64,5.64,0,0,1,1.14.42Zm3.9,2.75A14.6,14.6,0,0,0,15.92,10a14.89,14.89,0,0,1,1.18,1.06,1,1,0,0,0,.26-.16c.4.2,1.48.9,2.23,1.26Zm.68.53c0,.41.44.61.69.79-.11-.11-.35-.46-.33-.57s.13-.12.2-.22a1,1,0,0,0-.56,0Z"/><path class="cls-3" d="M4.08,6.08c.27.77.47,1.48,1.35,1.5.61,0,2.07-.66,3.18-.69a2,2,0,0,1,1.63,1.17A21.16,21.16,0,0,1,13,8.2,5.12,5.12,0,0,0,9,5.53c-2.22,0-2.63,1.19-3.73,1.09a2.14,2.14,0,0,1-1.18-.54Z"/><path class="cls-3" d="M2.55,6.05a3.56,3.56,0,0,0-.16,1.37,2.34,2.34,0,0,0,2.28,2A17.47,17.47,0,0,1,9.25,8.16c-.09-.4-.82-.65-1.38-.66-.92,0-2.51.71-3.57.64S2.74,7.71,2.55,6.05Z"/><path class="cls-3" d="M.53,9.45A1.43,1.43,0,0,0,2,10.55a3.25,3.25,0,0,0,2-.7c-.33-.16-.89-.62-1.37-.58-.84.09-.91.68-2.14.18Z"/><path class="cls-3" d="M17.33,10.69l-.11-.07v0c0,.08-.12.17-.17.15s-.06-.22,0-.25l-.13-.08a.28.28,0,0,0,.06.42.25.25,0,0,0,.33-.2Z"/></svg>