<svg id="Layer_1" data-name="Layer 1" xmlns="http://www.w3.org/2000/svg" xmlns:xlink="http://www.w3.org/1999/xlink" viewBox="0 0 22 22"><defs><style>.cls-1{fill:none;}.cls-2{clip-path:url(#clip-path);}.cls-3{fill:#fff;}.cls-4{fill:#ff3c00;}.cls-5{fill:#2b1d14;}.cls-6{fill:#311d00;}</style><clipPath id="clip-path"><rect class="cls-1" y="1.58" width="22" height="16.99"/></clipPath></defs><g class="cls-2"><path class="cls-3" d="M21.38,17.7h0Zm-8.8-1a3.47,3.47,0,0,1-1,0c-1.16,1.77-4.29,1.65-6.17.16l-.11-.08a3.94,3.94,0,0,1-1.77.66c-.9.17-1.28-.42-1.17-.82a6.72,6.72,0,0,1-.43-1.12,1,1,0,0,1,0-.51,10.56,10.56,0,0,1-.78-1.88C-2.13,2.7,11.41-1.63,15.81,6.2a.15.15,0,0,1,.16.08l.12,0,.53,1.2a1.68,1.68,0,0,0-.29,0H16.2c-.12-.35-.27-.8-.37-1.07h-.19c.09.15.33.9.41,1.11a1.14,1.14,0,0,1,.11.45h-.53a1.72,1.72,0,0,0-.15-.45L15.28,7l0-.12L15,6.49h0A1,1,0,0,1,15,6.25.24.24,0,0,1,15.2,6a.47.47,0,0,1,.37.22h.07a4.91,4.91,0,0,0-.36-.61,7.84,7.84,0,0,0-8.44-3A7.71,7.71,0,0,1,15,6.05l-.41.21h-.25c-.09,0-.17,0-.11.23a1.9,1.9,0,0,0,.1.29c0,.12.18.47.28.78l-.11,0-.06-.17c-.12-.3-.26-.69-.3-.83a.51.51,0,0,1,0-.31s-.14.12,0,.42l.32.9-.13,0a14.05,14.05,0,0,0-2.48.68,2.58,2.58,0,0,0-.7.38s0,0,0,0a.42.42,0,0,0-.22.15L10.67,9c-.12.13-.21.25-.34.42l-.87,1.37-.09.05a.38.38,0,0,0-.13.34c-.29.46-.46.74-.52.85a.32.32,0,0,0-.25.15,5.61,5.61,0,0,1-.43.69.4.4,0,0,0-.07.32l0,.05-.66,1a.25.25,0,0,0,0,.26.44.44,0,0,0,.34.21.29.29,0,0,0,.2,0l3.53.58.18,0,.27.05.23,0a3.18,3.18,0,0,1-.29,1.07h.06A3.25,3.25,0,0,0,13.92,16l.13.23a2.93,2.93,0,0,1-1.45.45Zm3.93-8.4a1.12,1.12,0,0,1-.1.62.78.78,0,0,1-.59.41h-.14C16,10.07,17,12.49,17,12.49a3.17,3.17,0,0,1-.41,0l-1.29-3a.23.23,0,0,0-.07.08l0,.05a2.12,2.12,0,0,0-.39.92.84.84,0,0,1,0,.1A3.59,3.59,0,0,0,16.23,12l.2.49a4,4,0,0,1-1.68-1.19v.06a5.37,5.37,0,0,0,.11,1.08c0,.12.08.24.11.36l-.28,0a4.52,4.52,0,0,0-.23-.68c-.46-1.09-1.72-.59-1.63.07L11.77,9.82a3.85,3.85,0,0,1,.7-.59,1.92,1.92,0,0,0-.45.29l-.28.24-.06-.14c-.08-.16-.14-.31-.2-.43a2.81,2.81,0,0,1,.62-.33,13,13,0,0,1,2.28-.64l.13,0c0,.39-.17.53-.51.6s-.39.06-.48.09h.2a1.85,1.85,0,0,0,.56-.11c.21-.07.37-.22.3-.6l.11,0c.06.36,0,.71-.69.78a17.94,17.94,0,0,1,1.86,0s.28.1,0,.24c.61-.14.64-.74.52-1.19h0l.29,0h0l.2,0A.29.29,0,0,0,17,7.52a1.42,1.42,0,0,0-.27-.07h-.06l-.57-1.26.32-.14.8,1.45c.38.6-.24.84-.58.66a.43.43,0,0,0-.16.13Zm1.51,4c-.27.06-.9.13-.9.13L17,12.17a5,5,0,0,0,1.15,0,.15.15,0,0,0-.12.13Zm.59-.09a.42.42,0,0,0-.16-.07h0a6.9,6.9,0,0,0,.8,0c-.12,0-.65.11-.65.11Zm1.33.06a.17.17,0,0,1-.14.18h-.05a5,5,0,0,1-.62.14l-.28,0c0-.07-.06-.14-.15-.32.27,0,.62-.12.86-.19l.22,0a.19.19,0,0,1,.17.17Zm1.27,4.47c0-.09-.14-.26-.39-.31a1.2,1.2,0,0,0,0-.21c-.06-.61-.28-1.72-.28-1.72.34-.11.31-.81-.27-.81a8.16,8.16,0,0,0-.34-1.13.28.28,0,0,0,0-.52s.32-.07.46.48a12.38,12.38,0,0,1,.82,4.22Zm-.73-2.35a4.32,4.32,0,0,1-1,.23s-.07-.25-.1-.38a9.2,9.2,0,0,0,.94-.24s0-.08-.13-.08-.69.17-.85.19l0-.11.79-.16s.41-.14.5.18c0,0,.09.27-.14.37Zm.18,2.78-.9.24a2,2,0,0,0,0-.43c1.33-.28.07-.4.07-.4.29.09.28.19.28.19a1.23,1.23,0,0,1-.35-.06,4.19,4.19,0,0,0,0-.42,2.9,2.9,0,0,0,.77.19c.36.08.18.23.18.23-.18.24-.88.33-.88.33,1.16-.15,1.06-.46,1.06-.46.47.31,0,.53-.24.59ZM11.4,10.46l1.08,2.39a2.35,2.35,0,0,1-1.17-.44,3.41,3.41,0,0,1,.09-1.95Zm-.14-.3.07.16a2.94,2.94,0,0,0-.2,2l0,0L11,12.13c-.3-.28-.69-.68-1-1L10.75,10c.1-.15.2-.31.26-.39l.25.55Zm-.12-1.37a.22.22,0,0,1,.09,0l1.84,4.08a2.27,2.27,0,0,1-.45,0l-1.7-3.72a.18.18,0,0,1,0-.2.29.29,0,0,1,.22-.13Zm4.29-.56s.14-.09.14-.19h.48s-.12.22-.62.19ZM17,7.6h0a.17.17,0,0,1,.12.19s0,.15-.18.15-.51-.06-.7-.08a1.26,1.26,0,0,0-.1-.39A7.23,7.23,0,0,1,17,7.6ZM14.7,6.24l.14-.07h0s0,0,0,0a.5.5,0,0,0,.05.21c.08.21.5,1.08.55,1.2.24.63-.39.75-.45.47.66,0,.39-.74,0-.65-.15-.35-.26-.7-.26-.7s-.15-.39-.05-.51Zm-.1,0a.85.85,0,0,0,.05.46l.25.72-.13,0s-.17-.46-.28-.78a.49.49,0,0,1,0-.36l.13-.06ZM15,7.58a.22.22,0,0,1,.25.16c0,.09,0,.18-.19.21H15a16.43,16.43,0,0,0-2.95.78,2,2,0,0,0-.6.31l-.12-.25c0-.09-.06-.1-.1-.12a3.19,3.19,0,0,1,.53-.27A17,17,0,0,1,15,7.58ZM10.77,9a.4.4,0,0,0,.05.21l.13.29s-.2.25-.31.43l-.7,1.15-.19-.21s-.08-.1-.16-.1c.37-.59.7-1.12.82-1.29A4.38,4.38,0,0,1,10.77,9ZM14,14.94a2,2,0,0,1-.45,0c-.14-.26-.29-.61-.67-1.44a1.94,1.94,0,0,0,.46,0L14,14.94Zm1.12-1.33v.06l2,.34c0,.11.18.43.18.43l-2.15-.36v.06a3.91,3.91,0,0,1-.11.71l-.29,0a3.51,3.51,0,0,0,.09-1.48l.28,0a1.94,1.94,0,0,1,0,.24Zm2.83.81-.15-.34h.87a.16.16,0,0,1-.15.23l-.54.11Zm-.1,0a3,3,0,0,1-.39.08c-.08-.15-.58-1.38-.58-1.38l.39-.06c.26.71.59,1.37.59,1.37Zm-9.37-.8c.39.23.94.58.94.58.38.24.68-.11.77-.23a1.27,1.27,0,0,0,.29-.66.63.63,0,0,0-.37-.49l-.79-.52.37-.61.77.75a3.32,3.32,0,0,0,.74.61l.18.09c.16.48.33.91.4,1.23-.06-.37-.17-.76-.28-1.17a3.57,3.57,0,0,0,1.22.26h.05l0,.06A2.44,2.44,0,0,1,12,14.64v.06l-.33,0-.25,0-.13,0-3.12-.5.3-.45Zm.15-1.05c.29.19.91.56,1.09.66a1,1,0,0,1,.23.16A.4.4,0,0,1,10,14a.43.43,0,0,1-.56.14L9.18,14h0l-.1-.06-.83-.5h0a.35.35,0,0,1-.18-.19.38.38,0,0,1,.08-.29,3.32,3.32,0,0,0,.3-.46.39.39,0,0,0,.16.15Zm.49,0,.89.6a.41.41,0,0,1,.18.48c0-.21-.27-.37-.27-.37l-1.24-.75c-.17-.1-.15-.25-.06-.32,0,.23.33.41.5.36Zm.94.52-.85-.57.07-.07c.31.2.71.46.88.59a.39.39,0,0,1,.14.52.44.44,0,0,0-.24-.47Zm-.77-1.76a3.31,3.31,0,0,0,.31.34l-.48.77c-.07.05-.21,0-.29-.09s-.12-.11-.06-.18h0l.51-.83Zm-1.7,3.26a.31.31,0,0,1-.23-.15.12.12,0,0,1,0-.14l.63-1a2,2,0,0,0,.36.26l-.61.91a.16.16,0,0,1-.17.07Zm7,1.22-.09-.16,0-.08.11,0,.22,0a1.79,1.79,0,0,1-.2.28Zm3.2-.67L18.2,15a3.91,3.91,0,0,0,.94.93c0,.14,0,.48,0,.48a3.41,3.41,0,0,1-1.39-1.32Zm1.37,2.44a5.94,5.94,0,0,1-2.9,0A3.26,3.26,0,0,1,14,15.76a1.43,1.43,0,0,1-.09-.18h.45c.81,1.74,2.91,2.07,4.72,1.6,0,0,.17,0,.21-.07a1.1,1.1,0,0,0,0-.31A10.71,10.71,0,0,0,19.06,15a.23.23,0,0,0-.06-.14l-.09,0a.76.76,0,0,0-.22,0,38.47,38.47,0,0,1-4.19.62l-.29,0h-.14A7.23,7.23,0,0,1,13,15.37l-5-.82.27-.37,4.87.79a3.74,3.74,0,0,0,1.09.06,34.22,34.22,0,0,0,4.33-.59,1.77,1.77,0,0,0,.36-.11,1,1,0,0,0,0-.27s-.24-.78-.36-1.08h0s-.05-.18-.11-.21h0l-.15,0c-1.15.2-3.23.49-4.44.57.11,0-.5,0-1,0a2.89,2.89,0,0,1-2.14-1s-.83-.79-1.15-1.15a.22.22,0,0,1,0-.31.19.19,0,0,1,.25,0c.14.19,1,1,1.37,1.42a2.48,2.48,0,0,0,1.41.61,6.35,6.35,0,0,0,.76,0,40.94,40.94,0,0,0,4.73-.52.65.65,0,0,0,.18,0v-.06a.23.23,0,0,1,.1-.07.25.25,0,0,1,.28,0,10.15,10.15,0,0,1,1.11,5,.24.24,0,0,1-.11.2.38.38,0,0,1-.29,0s0,0-.15.06ZM22,16.42v0a15.73,15.73,0,0,0-.92-4.15h0v0l-.06-.14v0a1.12,1.12,0,0,0-1.33-.72l-.3,0h-.12a10.47,10.47,0,0,1-1.89.05l-.8-1.9A1.21,1.21,0,0,0,17,9.18a1.28,1.28,0,0,0,.14-.4,1.13,1.13,0,0,0,.65-.33,1,1,0,0,0,0-1.29v0L16.78,5.25l-.64.27a8.79,8.79,0,0,0-11-3.18C1.85,3.75-1.31,7.46.53,13.27a12.12,12.12,0,0,0,.73,1.8,1.64,1.64,0,0,0,0,.54h0a5.91,5.91,0,0,0,.4,1.07,1.17,1.17,0,0,0,.33.88A1.65,1.65,0,0,0,3.59,18h0a4.5,4.5,0,0,0,1.66-.52,6.16,6.16,0,0,0,4.37,1,3.6,3.6,0,0,0,2.24-1.2,4.46,4.46,0,0,0,.84,0A4.12,4.12,0,0,0,13.89,17,4.32,4.32,0,0,0,16,18.32a6.48,6.48,0,0,0,3.27-.05,1.1,1.1,0,0,0,.57-.11c1.16-.26,1.42-.37,1.59-.52h0a1.37,1.37,0,0,0,.53-1.2"/></g><path class="cls-4" d="M10.49,17.45a2.39,2.39,0,0,0,.9-.8h0a1.74,1.74,0,0,0,.24-.47,2.5,2.5,0,0,1-1.14,1.27"/><path class="cls-4" d="M10,11.17c.26.28.66.68,1,1a3.34,3.34,0,0,1,0-1.26,2.69,2.69,0,0,1,.27-.71L11,9.61l-.25.39L10,11.17"/><path class="cls-4" d="M11,13.26a6,6,0,0,1,.45,1.36l.25,0c0-.13-.05-.25-.07-.35s-.24-.67-.41-1.22a3.05,3.05,0,0,1-.74-.6l-.77-.75-.37.6.79.52c.17.12.36.25.37.5a1.16,1.16,0,0,1-.29.65.57.57,0,0,1-.77.23l-.94-.58-.3.45,3.12.5A12,12,0,0,0,11,13.27"/><g class="cls-2"><path class="cls-4" d="M12.26,9.19a3.43,3.43,0,0,1,1.46-.48l.18,0c.12,0,.35-.07.42-.19a.54.54,0,0,0,0-.27,13.91,13.91,0,0,0-2.28.63,2.83,2.83,0,0,0-.62.34l.2.43a2.76,2.76,0,0,1,.5-.39l.08-.05"/><path class="cls-4" d="M7,14.34a.81.81,0,0,1-.27.05,1,1,0,0,1-.7-.32,1,1,0,0,1,0-1.33.79.79,0,0,1,.59-.24,1,1,0,0,1,.7.31,1,1,0,0,1,.29.71L7,14.35Zm1.26.88A1.93,1.93,0,0,1,5.38,15,2.25,2.25,0,0,0,8.25,15.22Zm-2,1.12A.29.29,0,0,1,6,16.4a.28.28,0,0,1-.34-.08A.29.29,0,0,1,5.56,16a.38.38,0,0,1,.13-.37.39.39,0,0,1,.53.16.41.41,0,0,1,0,.56ZM9.48,15a.41.41,0,0,1,.41.42.41.41,0,0,1-.25.38.25.25,0,0,1-.2.09.28.28,0,0,1-.24-.16A.41.41,0,0,1,9.48,15Zm4.43-8.76L14,6.18a7.63,7.63,0,0,0-7.79-3.5,7.73,7.73,0,0,0-5.16,9.67,11.61,11.61,0,0,0,1.8,3.86s0,.45.76.22a1.76,1.76,0,0,1,1.9.32,5.21,5.21,0,0,0,5,.66,2.45,2.45,0,0,0,1.14-1.27,2.28,2.28,0,0,0,.12-.85l-.28,0c-.06,1.18-1.23,2.32-3.33,2.19a6,6,0,0,1-2.36-.76A5.43,5.43,0,0,0,4.46,16a5.35,5.35,0,0,1,1.37.59,5.91,5.91,0,0,0,2.31.69c1.4.13,3-.59,3.16-2.08l-3.54-.59a.26.26,0,0,1-.2,0,.39.39,0,0,1-.33-.21.27.27,0,0,1,0-.26l.67-1,0-.05A.38.38,0,0,1,8,12.85a7.28,7.28,0,0,0,.42-.69A.34.34,0,0,1,8.69,12l.53-.85a.32.32,0,0,1,.13-.33.2.2,0,0,1,.09-.05c.35-.58.75-1.21.86-1.37s.23-.29.34-.43l.18-.15A.39.39,0,0,1,11,8.68l0,0a2.44,2.44,0,0,1,.69-.38,14.05,14.05,0,0,1,2.48-.68c-.06-.2-.28-.83-.28-.83s-.17-.33,0-.52"/></g><path class="cls-5" d="M11.28,14.6l.12,0A6,6,0,0,0,11,13.26a11.43,11.43,0,0,1,.33,1.34"/><path class="cls-5" d="M8.14,17.34a5.91,5.91,0,0,1-2.31-.69,5.35,5.35,0,0,0-1.37-.59,5.8,5.8,0,0,1,1.32.65,5.86,5.86,0,0,0,2.37.77c2.09.13,3.26-1,3.33-2.19l-.18,0c-.18,1.48-1.76,2.2-3.17,2.09"/><path class="cls-5" d="M6.56,12.51a.76.76,0,0,0-.59.24,1,1,0,0,0,0,1.33,1,1,0,0,0,.7.31.8.8,0,0,0,.27,0l.56-.83a1,1,0,0,0-.3-.7,1,1,0,0,0-.7-.32"/><path class="cls-5" d="M5.4,14.92a1.92,1.92,0,0,0,2.87.28,2.27,2.27,0,0,1-2.87-.28"/><path class="cls-5" d="M9.48,15.1a.34.34,0,0,1,.23.58.32.32,0,0,0-.24-.49.31.31,0,0,0-.31.4.34.34,0,0,1,.32-.49Zm.13.3a.27.27,0,0,0-.29,0s-.07,0,0,0a.25.25,0,0,1,.36,0C9.69,15.41,9.64,15.45,9.61,15.4Zm-.18.46a.22.22,0,0,1-.22-.23.23.23,0,1,1,.45,0A.23.23,0,0,1,9.43,15.86Zm-.24-.11a.28.28,0,0,0,.24.16.25.25,0,0,0,.2-.09.4.4,0,0,0,.25-.38A.41.41,0,0,0,9.47,15a.42.42,0,0,0-.42.42.41.41,0,0,0,.14.31"/><path class="cls-3" d="M9.3,15.28c-.05.05,0,.08,0,.06a.24.24,0,0,1,.29,0s.07,0,0-.06a.24.24,0,0,0-.35,0"/><path class="cls-3" d="M9.48,15.17a.32.32,0,0,1,.24.49.34.34,0,0,0-.23-.58c-.38,0-.42.41-.32.49a.31.31,0,0,1,.31-.4"/><path class="cls-3" d="M9.44,15.79a.18.18,0,1,1,.18-.18A.18.18,0,0,1,9.44,15.79Zm.23-.18a.23.23,0,1,0-.23.23.23.23,0,0,0,.23-.23"/><path class="cls-5" d="M9.3,15.64s0,0,0,0a.15.15,0,0,0,.23,0s0,0,0,0c-.09.17-.29.07-.27,0Zm.13-.18a.18.18,0,1,0,.18.18.18.18,0,0,0-.18-.18"/><path class="cls-3" d="M9.55,15.64a.15.15,0,0,1-.23,0s0,0,0,0a.14.14,0,0,0,.27,0s0,0,0,0"/><path class="cls-5" d="M6.12,16.33c.28-.36-.26-.78-.47-.45C5.83,15.34,6.54,16,6.12,16.33ZM6.06,16a.32.32,0,0,0-.17-.14s0-.09,0-.07a.42.42,0,0,1,.16.13c.06.09,0,.13,0,.08Zm-.38.25a.24.24,0,0,1,0-.32c.07-.07.21,0,.31.06a.24.24,0,0,1,0,.32.24.24,0,0,1-.32-.06Zm0-.66a.38.38,0,0,0-.13.37.3.3,0,0,0,.08.33.28.28,0,0,0,.34.08.29.29,0,0,0,.22-.06.42.42,0,0,0,0-.57.4.4,0,0,0-.53-.15"/><path class="cls-3" d="M5.91,15.82c-.06,0-.08.06,0,.07A.29.29,0,0,1,6,16c0,.05.09,0,0-.09a.53.53,0,0,0-.16-.13"/><path class="cls-3" d="M5.62,15.86c.21-.33.75.09.48.45.41-.31-.3-1-.48-.45"/><path class="cls-3" d="M5.94,16.29c-.06.05-.17,0-.25-.06a.19.19,0,0,1,0-.26c.07-.06.18,0,.25.06s.11.21,0,.26ZM6,16a.24.24,0,0,0-.32-.06.24.24,0,0,0,0,.32c.1.1.24.13.31,0A.22.22,0,0,0,6,16"/><path class="cls-5" d="M5.91,16.29c-.13,0-.25-.14-.2-.21s0,0,0,0a.24.24,0,0,0,.17.18s0,0,0,0ZM5.68,16a.19.19,0,0,0,0,.26c.08.07.19.11.25.06s0-.19,0-.26-.19-.12-.25-.06"/><path class="cls-3" d="M5.73,16s0,0,0,0,.06.23.19.22,0,0,0,0A.24.24,0,0,1,5.73,16"/><path class="cls-3" d="M5.08,16.73l.07-.06a1.67,1.67,0,0,0-1.52-.14h0a2.81,2.81,0,0,1,.56-.06,1.44,1.44,0,0,1,.73.21l-.13.07a4.14,4.14,0,0,1-1.45.41c-.3,0-.24-.15-.05-.25a.44.44,0,0,0,.24-.34l-.08,0h0c-.06.46-1,.41-.87-.22,0,0-.13-.26-.2-.42,0,0,0-.1,0-.1s.22.36.31.47c-.12.43.51.61.68.29-.55.1-.58-.18-.57-.28s0,0,0,0A6.1,6.1,0,0,1,2,15.13a3.93,3.93,0,0,0,.41,1.35l0,.09c-.13.36.25.84.92.73a4,4,0,0,0,1.72-.57"/><path class="cls-5" d="M14.38,15.57l0,.09a1.19,1.19,0,0,0,.09.15,2,2,0,0,0,.2-.28l-.23,0h-.11"/><path class="cls-5" d="M14.71,14.89l.28,0a2.77,2.77,0,0,0,.11-.71v-.07l2.15.37s-.15-.32-.18-.43l-2-.36V13.6c0-.09,0-.17,0-.25l-.28,0a3.5,3.5,0,0,1-.09,1.48"/><path class="cls-5" d="M11,12.14l.12.13,0,0a2.89,2.89,0,0,1,.19-2l-.07-.16a2.35,2.35,0,0,0-.28.72,3.34,3.34,0,0,0,0,1.26"/><path class="cls-5" d="M11.68,14.67l.33.05a.13.13,0,0,0,0-.06,2.37,2.37,0,0,0,.79-1.09l0-.06h0a3.52,3.52,0,0,1-1.22-.26c.11.41.22.8.28,1.17-.08-.32-.25-.75-.41-1.23l-.17-.09c.16.55.35,1,.4,1.21s.05.23.08.36"/><path class="cls-3" d="M14.6,11.64a2.48,2.48,0,0,1,.45-2.05c-.63.07-.81,1.66-.45,2.05"/><path class="cls-5" d="M12.47,12.87l-1.08-2.4a3.41,3.41,0,0,0-.09,1.95,2.36,2.36,0,0,0,1.17.45"/><path class="cls-5" d="M14.6,11.64c-.36-.39-.18-2,.45-2.05A2.48,2.48,0,0,0,14.6,11.64Zm2.09-3.49c.34.18,1-.06.59-.66L16.47,6l-.31.14.56,1.26h.06a.73.73,0,0,1,.27.06.29.29,0,0,1-.17.56l-.2,0h0l-.29,0h0c.11.45.08,1.05-.53,1.19.32-.14,0-.23,0-.24a17.94,17.94,0,0,0-1.86,0c.7-.07.75-.42.69-.78l-.11,0c.07.37-.09.52-.3.59a1.48,1.48,0,0,1-.55.11h-.21c.09,0,.27,0,.48-.09s.54-.21.51-.6l-.13,0a.45.45,0,0,1-.05.27c-.07.13-.3.17-.42.19l-.18,0a3.3,3.3,0,0,0-1.46.47l-.09.06a3,3,0,0,0-.5.38l.07.14L12,9.51a2.26,2.26,0,0,1,.46-.29,3.67,3.67,0,0,0-.71.59l1.06,2.35c-.08-.66,1.17-1.16,1.64-.07a6,6,0,0,1,.22.68l.28,0c0-.13-.06-.25-.1-.37a4.67,4.67,0,0,1-.12-1.08v-.06a4,4,0,0,0,1.69,1.2l-.21-.5a3.6,3.6,0,0,1-1.42-1.29.25.25,0,0,1,0-.1,2.12,2.12,0,0,1,.39-.92l0-.05.06-.08,1.29,3a3,3,0,0,0,.41,0L15.7,9.32h.14a.76.76,0,0,0,.59-.41,1.1,1.1,0,0,0,.09-.62.43.43,0,0,1,.16-.13"/><path class="cls-3" d="M8.83,13.3a.35.35,0,0,0,.5.36.35.35,0,0,0,.44.29.37.37,0,0,1-.53-.25.32.32,0,0,1-.41-.4Zm.07-.08a.24.24,0,0,1,.19-.07.56.56,0,0,0-.06.23l0,0v.06a.1.1,0,0,0,0,0,.52.52,0,0,0,0,.14l0,0c-.18-.1-.12-.35-.12-.35Zm.3-.06a.28.28,0,0,1,.21.27h0a.22.22,0,0,1-.28.17s0-.08,0-.12l.1,0a.2.2,0,0,1,0,0l-.11,0a.77.77,0,0,1,.07-.27Zm.3.28c.26,0,.47.25.34.45H9.79a.31.31,0,0,1-.4-.26.29.29,0,0,0,.11-.19Zm-.3.34a.37.37,0,0,0,0,.09h0a.32.32,0,0,0,.11.12.4.4,0,0,0,.55-.06.33.33,0,0,0-.07-.44.52.52,0,0,0-.34-.11.41.41,0,0,0-.42-.29h0c-.23,0-.29.14-.31.21a.36.36,0,0,0,0,.3.39.39,0,0,0,.41.18"/><path class="cls-5" d="M15.32,6.63a.43.43,0,0,1-.17-.36c.17,0,.23.27.17.36"/><path class="cls-5" d="M15.5,7.1a.49.49,0,0,1-.15-.34.23.23,0,0,1,.15.34"/><path class="cls-5" d="M14.74,6.73s.12.36.26.71c.38-.1.65.6,0,.65.07.27.69.16.45-.47,0-.12-.47-1-.54-1.2s-.06-.16-.05-.21,0,0,0,0h0l-.13.07c-.1.12,0,.5,0,.5"/><path class="cls-5" d="M14.49,6.73l.27.79.14,0-.26-.72a1,1,0,0,1-.05-.46l-.12.06a.5.5,0,0,0,0,.36"/><path class="cls-5" d="M15.43,8.25c.5,0,.62-.19.62-.19h-.48c0,.1-.14.19-.14.19"/><path class="cls-5" d="M9.59,10.77c.07,0,.15.1.15.1l.19.21.7-1.15c.12-.18.32-.44.31-.43l-.13-.29A.56.56,0,0,1,10.76,9a5.6,5.6,0,0,0-.36.49c-.11.17-.45.69-.81,1.29"/><path class="cls-5" d="M18.46,12.18a.27.27,0,0,1,.16.07s.53-.07.64-.11a6.9,6.9,0,0,1-.8,0"/><path class="cls-5" d="M18.46,12.18h0"/><path class="cls-5" d="M18.64,14.09h-.87l.15.35.57-.12s.21,0,.15-.23"/><path class="cls-5" d="M17.27,13.08l-.4.06s.5,1.23.58,1.38a3.47,3.47,0,0,0,.4-.08,13,13,0,0,1-.59-1.36"/><path class="cls-5" d="M18.13,15.07l-.42.09a3.49,3.49,0,0,0,1.39,1.32s0-.34,0-.48a3.91,3.91,0,0,1-.94-.93"/><path class="cls-5" d="M20.87,16.62s.11.31-1.05.46c0,0,.69-.1.88-.33,0,0,.18-.15-.19-.23a2.92,2.92,0,0,1-.76-.19,4.19,4.19,0,0,1,0,.42,1.23,1.23,0,0,0,.35.06s0-.1-.29-.19c0,0,1.27.12-.06.4a2,2,0,0,1,0,.43l.9-.24c.24-.07.71-.29.24-.6"/><path class="cls-5" d="M12.87,13.52c.38.83.53,1.18.67,1.44A2,2,0,0,0,14,15l-.66-1.43a1.94,1.94,0,0,1-.46,0"/><path class="cls-5" d="M10.92,8.93a.2.2,0,0,0,0,.21l1.7,3.71a2.27,2.27,0,0,0,.45,0L11.19,8.81s0,0-.09,0a.26.26,0,0,0-.22.13"/><path class="cls-5" d="M19.54,17.52a.24.24,0,0,0,.11-.19,10.25,10.25,0,0,0-1.11-5,.31.31,0,0,0-.29,0s-.09.06-.09.08v0a.65.65,0,0,1-.18,0,39.34,39.34,0,0,1-4.73.53,7.51,7.51,0,0,1-.76,0,2.45,2.45,0,0,1-1.41-.6c-.4-.38-1.23-1.23-1.37-1.43a.2.2,0,0,0-.25,0,.23.23,0,0,0-.05.31c.33.36,1.14,1.13,1.15,1.14a2.93,2.93,0,0,0,2.15,1,7.24,7.24,0,0,0,1,0,44.08,44.08,0,0,0,4.44-.57l.15,0h0c.05,0,.11.19.11.2h0c.12.3.35,1.08.36,1.09a1,1,0,0,1,0,.26,1.88,1.88,0,0,1-.36.12,35.6,35.6,0,0,1-4.33.58A3.51,3.51,0,0,1,13,15l-4.86-.8-.27.37,5,.82a6.09,6.09,0,0,0,1.08.09h.14l.29,0a34.72,34.72,0,0,0,4.19-.62l.22,0,.09,0A.38.38,0,0,1,19,15a9.5,9.5,0,0,1,.24,1.84,1,1,0,0,1,0,.31.56.56,0,0,1-.21.08c-1.8.46-3.9.13-4.73-1.61H13.8c0,.06.08.19.08.19a3.26,3.26,0,0,0,2.27,1.83,5.94,5.94,0,0,0,2.9,0c.16,0,.15-.07.15-.07a.36.36,0,0,0,.3,0"/><path class="cls-5" d="M8.76,13.3a.29.29,0,0,1,.31-.21h0a.39.39,0,0,1,.41.29.43.43,0,0,1,.34.11.31.31,0,0,1,.08.43.39.39,0,0,1-.55.06.25.25,0,0,1-.11-.12h0l-.05-.09a.38.38,0,0,1-.41-.18.39.39,0,0,1,0-.29Zm-.3-.84a5.28,5.28,0,0,1-.3.45.36.36,0,0,0-.08.3.35.35,0,0,0,.17.19h0l.83.51.09.06h0l.27.16A.42.42,0,0,0,10,14a.4.4,0,0,0-.08-.57s0-.05-.23-.15l-1.09-.66a.4.4,0,0,1-.15-.15"/><path class="cls-5" d="M10.16,13.05c-.17-.14-.57-.4-.88-.6l-.07.07.85.57a.48.48,0,0,1,.25.48.39.39,0,0,0-.15-.52"/><path class="cls-5" d="M8.68,12.51l1.25.74s.26.16.27.37a.41.41,0,0,0-.19-.48l-.89-.59c-.16,0-.51-.14-.5-.37-.09.07-.11.22.06.32"/><path class="cls-5" d="M9.41,13.62q0,.32.39.27h0c.13-.19-.08-.45-.34-.44a.28.28,0,0,1-.1.18"/><path class="cls-5" d="M9.26,13.7a.37.37,0,0,0,.53.25.35.35,0,0,1-.44-.29c-.19.07-.54,0-.5-.36a.32.32,0,0,0,.41.4"/><path class="cls-5" d="M19.58,12.18c-.25.07-.6.14-.87.19a1.84,1.84,0,0,1,.15.33l.29,0c.24-.05.49-.11.61-.15h0a.16.16,0,0,0,.15-.18.18.18,0,0,0-.17-.17l-.21,0"/><path class="cls-5" d="M20.12,13.88l-.79.15,0,.11c.16,0,.85-.19.85-.19s.13.09.13.09c-.26.09-.94.24-.94.24l.1.37a4.32,4.32,0,0,0,1-.23c.23-.1.14-.37.14-.37-.09-.32-.5-.18-.5-.18"/><path class="cls-5" d="M20.37,12.54c-.15-.55-.46-.48-.46-.48a.27.27,0,0,1,0,.52,7.78,7.78,0,0,1,.35,1.14c.58,0,.61.69.27.8,0,0,.22,1.12.28,1.73a1.25,1.25,0,0,1,0,.21.43.43,0,0,1,.38.3,12.42,12.42,0,0,0-.82-4.22"/><path class="cls-5" d="M17,12.18l.12.29a8.52,8.52,0,0,0,.9-.13.13.13,0,0,1,.12-.12,5.29,5.29,0,0,1-1.14,0"/><path class="cls-5" d="M8.36,13.59A1.67,1.67,0,0,1,8,13.32l-.63,1a.11.11,0,0,0,0,.13.28.28,0,0,0,.23.15.17.17,0,0,0,.16-.08l.61-.9"/><path class="cls-5" d="M11.25,8.68s0,0,.09.12a2.45,2.45,0,0,1,.12.25,2.22,2.22,0,0,1,.6-.31A17.55,17.55,0,0,1,15,8h.08c.15,0,.19-.12.18-.2A.22.22,0,0,0,15,7.58a18.42,18.42,0,0,0-3.25.83,3.19,3.19,0,0,0-.53.27"/><path class="cls-5" d="M8.76,12.14h0c-.05.07,0,.16.06.18s.22.14.29.09l.48-.77a3.31,3.31,0,0,1-.31-.34c-.4.64-.51.82-.51.83h0"/><path class="cls-5" d="M16.11,7.49a1.26,1.26,0,0,1,.1.39c.19,0,.56,0,.7.08a.17.17,0,0,0,.19-.15A.17.17,0,0,0,17,7.62h0c-.11,0-.65-.1-.85-.12"/><path class="cls-5" d="M9.23,13.48a.16.16,0,0,1-.1,0,.45.45,0,0,0,0,.12.22.22,0,0,0,.28-.17h0a.31.31,0,0,0-.22-.28.6.6,0,0,0-.06.27l.1,0a.08.08,0,0,0,0,.05"/><g class="cls-2"><path class="cls-5" d="M9,13.55l0,0a.53.53,0,0,1,0-.13s0,0-.06,0v-.06s0,0,0,0a.48.48,0,0,1,.06-.23.21.21,0,0,0-.19.06s-.06.25.12.35"/><path class="cls-5" d="M15.68,7c.05.21-.1.32-.25.15a.72.72,0,0,1-.12-.23h0a.77.77,0,0,1,0-.2.66.66,0,0,1-.16-.22c-.09-.26,0-.32,0-.34s.35.18.33.51a.57.57,0,0,1,.18.34ZM2,15.14a7.14,7.14,0,0,0,.76,1.17v0c0,.1,0,.38.57.28-.17.32-.8.14-.68-.29-.09-.11-.31-.47-.31-.47s0,.1,0,.1c.08.15.21.42.21.42-.1.63.8.67.86.21h0s0,0,.07,0a.43.43,0,0,1-.23.35c-.19.1-.25.27,0,.25a4.13,4.13,0,0,0,1.46-.41l.13-.08a1.58,1.58,0,0,0-.74-.2,2.89,2.89,0,0,0-.56.06h0a1.59,1.59,0,0,1,1.51.14l-.07.05a4.08,4.08,0,0,1-1.72.57c-.68.11-1.05-.36-.92-.72l0-.09A4.08,4.08,0,0,1,2,15.14Zm14.6-7.72-.53-1.2-.12,0s-.08-.07-.16-.08c-4.4-7.86-17.93-3.5-14.68,6.89A11.73,11.73,0,0,0,1.87,15a1,1,0,0,0,0,.5,5.53,5.53,0,0,0,.43,1.13c-.11.4.26,1,1.17.81a4.07,4.07,0,0,0,1.77-.66l.1.08c1.91,1.49,5,1.61,6.17-.16a3.47,3.47,0,0,0,1,0A3,3,0,0,0,14,16.23c-.05-.07-.09-.15-.14-.23a3.24,3.24,0,0,1-2.15.43h-.06a3.18,3.18,0,0,0,.29-1.07l-.22,0a2.3,2.3,0,0,1-.12.85,2.61,2.61,0,0,1-.24.47h0a2.49,2.49,0,0,1-.91.8,5.18,5.18,0,0,1-5-.66,1.78,1.78,0,0,0-1.9-.33c-.79.24-.76-.21-.76-.21A11.13,11.13,0,0,1,1,12.37,7.68,7.68,0,0,1,6.18,2.7,7.62,7.62,0,0,1,14,6.18a.24.24,0,0,0-.09.08c-.12.19,0,.49,0,.52l.29.83.13,0L14,6.69c-.13-.31,0-.42,0-.42a.52.52,0,0,0,0,.31c0,.13.18.52.3.82l.06.17.11,0c-.1-.3-.24-.65-.28-.77a1.58,1.58,0,0,1-.1-.29c-.06-.22,0-.22.11-.23h.25l.41-.21A7.73,7.73,0,0,0,6.8,2.53a7.89,7.89,0,0,1,8.44,3.05,4.91,4.91,0,0,1,.36.61h-.07A.47.47,0,0,0,15.16,6a.23.23,0,0,0-.24.28.76.76,0,0,0,.07.24h0l.2.43.05.11.2.4a1.76,1.76,0,0,1,.15.44h.53A1.14,1.14,0,0,0,16,7.42c-.08-.2-.32-1-.4-1.11h0a.72.72,0,0,1,.19,0c.11.26.26.71.37,1.06h.13l.29,0"/></g><path class="cls-3" d="M15.5,7.1a.49.49,0,0,1-.15-.34A.23.23,0,0,1,15.5,7.1Zm-.19-.49a.46.46,0,0,1-.17-.36C15.32,6.26,15.37,6.52,15.31,6.61Zm.36.36a.61.61,0,0,0-.18-.34c0-.32-.18-.54-.33-.5s-.13.07,0,.33a.58.58,0,0,0,.16.22.59.59,0,0,0,0,.2v0a.68.68,0,0,0,.12.22c.15.17.3.06.25-.15"/><path class="cls-6" d="M6.52,14.33a1,1,0,0,1-.76-1,.74.74,0,0,1,.08-.4.81.81,0,0,1,1.1-.35,1.08,1.08,0,0,1,.59.77c0,.12,0,.14-.27.54s-.29.42-.4.44a.57.57,0,0,1-.34,0Z"/><path class="cls-6" d="M8,17.91a5.76,5.76,0,0,1-2.61-1.1c-.1-.07-.1-.07-.18,0a4.33,4.33,0,0,1-2,.62.77.77,0,0,1-.45-.09.6.6,0,0,1-.39-.57,2,2,0,0,0-.16-.55,2.28,2.28,0,0,1-.28-1c0-.21,0-.22-.14-.51s-.37-.87-.51-1.27A8.43,8.43,0,0,1,1.9,5.78,7.8,7.8,0,0,1,5,3.11a8.47,8.47,0,0,1,8.31.35,8.07,8.07,0,0,1,2.34,2.42c.19.32.27.39.43.39s.11.11.31.56l.24.56a.69.69,0,0,1-.19,0l-.19,0-.16-.5-.2-.53s-.08,0-.13,0-.08,0-.06,0c.08.2.46,1.31.48,1.4l0,.11h-.51l0-.1s-.16-.38-.32-.73c-.35-.7-.39-.86-.27-1A.25.25,0,0,1,15.21,6a.45.45,0,0,1,.32.16.09.09,0,0,0,.08,0c.06,0,.06,0,0-.17a8,8,0,0,0-1.74-2,8,8,0,0,0-6.2-1.62l-.54.1-.23.06H7l.46,0a15,15,0,0,1,1.64,0,9.12,9.12,0,0,1,2.09.47A8.17,8.17,0,0,1,13.3,4.11a9.69,9.69,0,0,1,1,1A8.21,8.21,0,0,1,15,6a1.14,1.14,0,0,1-.48.2c-.21,0-.28,0-.29.12a3.48,3.48,0,0,0,.19.63c.11.3.19.55.19.56h0a4.24,4.24,0,0,1-.41-1.13c0-.16,0-.17-.06-.12s0,.24.14.75a2.78,2.78,0,0,1,.17.52c-.05,0-.11-.07-.27-.51s-.21-.72-.11-.82l.07-.07-.21-.31a7.94,7.94,0,0,0-4.19-3,8,8,0,0,0-2.59-.28,3.74,3.74,0,0,0-1.39.29,7.6,7.6,0,0,0-4.9,7.88,11.14,11.14,0,0,0,1.76,5,5,5,0,0,1,.31.51.31.31,0,0,0,.2.21c.12.05.26,0,.63-.07a2.29,2.29,0,0,1,.67-.09c.44,0,.63.07,1.3.54a6.1,6.1,0,0,0,2,.82,4.68,4.68,0,0,0,2.49-.11,2.31,2.31,0,0,0,1.65-2l0-.24.08,0,.09,0a2.53,2.53,0,0,1-.15.71,2.42,2.42,0,0,0-.1.3c0,.12.92.09,1.44,0a2.82,2.82,0,0,0,.5-.19l.26-.12.05.1a.49.49,0,0,1,0,.11,4.41,4.41,0,0,1-.63.28,4.88,4.88,0,0,1-1.56.16l-.25,0-.09.11a3.32,3.32,0,0,1-2.8,1.17,6.43,6.43,0,0,1-.69,0Zm-4.27-.65a4,4,0,0,0,1.4-.53l.07-.05L5,16.58a1.45,1.45,0,0,0-.68-.16,1.93,1.93,0,0,0-.68.13s0,0,.07,0a2.75,2.75,0,0,1,.91,0c.27.08.27.12,0,.22a4.16,4.16,0,0,1-1.41.36c-.15,0-.14-.09,0-.22a.5.5,0,0,0,.19-.23c0-.07,0-.13,0-.13s-.1,0-.15.12a.42.42,0,0,1-.54.15.41.41,0,0,1-.26-.35,1.15,1.15,0,0,0-.07-.28c-.07-.15,0-.16,0,0a.67.67,0,0,1,.09.26.27.27,0,0,0,.11.23.39.39,0,0,0,.53,0l.09-.07H3.18c-.28,0-.4-.08-.4-.25a1.28,1.28,0,0,0-.17-.29c-.1-.13-.28-.4-.4-.6S2,15.13,2,15.13a1.48,1.48,0,0,0,.1.57,4.89,4.89,0,0,0,.21.54,1.18,1.18,0,0,1,.13.48.5.5,0,0,0,.17.4c.23.21.56.25,1.13.14ZM15.64,7.2c.1-.07.07-.31-.06-.5a.65.65,0,0,1-.09-.23c0-.22-.23-.42-.34-.35s-.07.31,0,.46a.77.77,0,0,1,.1.23c.05.28.23.47.36.38Z"/><path class="cls-6" d="M7,15.74h.12s0,0-.06,0S6.92,15.75,7,15.74Z"/><path class="cls-6" d="M5.74,15.25a1.89,1.89,0,0,0,.54.33l.34.1A1.84,1.84,0,0,0,8,15.45l.14-.1a.92.92,0,0,0-.27.09A2,2,0,0,1,6,15.36l-.24-.11Zm.15.33H5.83a.33.33,0,0,0-.24.32c0,.13,0,.13,0,.06a.17.17,0,0,1,.13-.07.11.11,0,0,0,.11-.07c0-.07,0-.08,0-.08a.24.24,0,0,0-.13.07c-.1.07-.1,0,0-.08s.51,0,.55.3a.19.19,0,0,1-.06.21c-.06.07-.08.07-.06,0a.4.4,0,0,0,0-.34s-.06-.09-.08-.09,0,0,0,.06.06.15,0,.15,0,0,0,.1a.17.17,0,0,1,0,.17c-.06.05-.06.06,0,.06a.34.34,0,0,0,.18-.09.26.26,0,0,0,.1-.24.48.48,0,0,0-.43-.48ZM5.75,16s-.11.1-.11.13,0,0,.05,0,0-.05.06,0a.79.79,0,0,0,.11.14c.09.08.1.09.11,0A.23.23,0,0,0,5.83,16l-.08,0Z"/><path class="cls-6" d="M8.89,13.75c-.68-.41-.8-.5-.8-.62a1.58,1.58,0,0,1,.19-.36l.18-.29.08.07s.36.24.71.45.67.42.71.46a.4.4,0,0,1-.13.66c-.18.09-.25.06-.94-.36Zm1,.2a.33.33,0,0,0-.16-.55.54.54,0,0,0-.16-.05s-.07,0-.09-.09a.41.41,0,0,0-.36-.19.34.34,0,0,0-.34.21.37.37,0,0,0,.33.49c.06,0,.12,0,.12,0a.4.4,0,0,0,.66.15Z"/><path class="cls-6" d="M7.44,14.5a.1.1,0,0,1-.05-.12,6.35,6.35,0,0,1,.63-1,.41.41,0,0,1,.11.06l.15.12.07,0L8,14.08c-.3.44-.33.47-.42.47a.34.34,0,0,1-.17-.05Z"/><path class="cls-6" d="M9.15,13.55s0,0,0,0,.07-.06,0-.08-.06,0,0-.1,0-.17.15-.07a.27.27,0,0,1,.1.15c0,.13-.21.25-.25.14Z"/><path class="cls-6" d="M9,13.49c-.06-.07-.08-.26,0-.29s.16,0,.07.11,0,.06,0,.12,0,.13,0,.06Z"/><path class="cls-6" d="M9.49,13.78a.42.42,0,0,1-.07-.11l.06-.12c0-.11.09-.12.23,0a.28.28,0,0,1,.15.27c0,.07,0,.08-.15.09s-.15,0-.22-.09Z"/><path class="cls-6" d="M16.91,17.73a4.92,4.92,0,0,1-1.49-.4,3.36,3.36,0,0,1-1.53-1.61l0-.11h.42l.07.14a3.48,3.48,0,0,0,.63.8,3.58,3.58,0,0,0,1.87.8,7.34,7.34,0,0,0,1.48,0,3.41,3.41,0,0,0,.86-.21A6.39,6.39,0,0,0,19,14.9c0-.09-.06-.1-.16-.1a4.79,4.79,0,0,0-.55.09c-.78.16-1.84.32-3.2.48a6.92,6.92,0,0,1-1.85,0C12.7,15.35,8,14.57,8,14.55s.2-.33.25-.33l2.52.42,2.49.41h.63c.34,0,.79,0,1,0a30.71,30.71,0,0,0,3.83-.59l.17-.05,0-.13a12.05,12.05,0,0,0-.47-1.4c-.05-.06-.05-.06-.35,0-.75.15-2.57.4-3.63.5a12.19,12.19,0,0,1-2,0,3.05,3.05,0,0,1-1.4-.6,19.68,19.68,0,0,1-1.59-1.59.22.22,0,0,1,.18-.24c.07,0,.12,0,.28.21a17.45,17.45,0,0,0,1.44,1.41,3.14,3.14,0,0,0,2.19.47,34.58,34.58,0,0,0,3.61-.37c1-.14,1.09-.16,1.09-.21s.05-.07.1-.09c.21-.1.31,0,.61.76a10.25,10.25,0,0,1,.77,3.69c0,.49,0,.57-.05.64s-.07.09-.21.08a2.41,2.41,0,0,0-.44.07,6.15,6.15,0,0,1-2,.14Z"/><path class="cls-6" d="M19.48,14.47l-.05-.17.45-.11a3.79,3.79,0,0,0,.46-.13s0-.1-.08-.1l-.46.09c-.27.06-.4.08-.42.06s0,0,0,0a6.63,6.63,0,0,1,1-.18.31.31,0,0,1,.18.46,2.51,2.51,0,0,1-.95.29l-.11,0-.05-.17Z"/><path class="cls-6" d="M21.09,16.58a.56.56,0,0,0-.17-.09c-.08,0-.08,0-.09-.17a13.2,13.2,0,0,0-.21-1.44l-.05-.31.07-.07a.46.46,0,0,0-.23-.77c-.12,0-.13,0-.17-.2s-.09-.34-.16-.55C20,12.6,20,12.6,20,12.56a.3.3,0,0,0,.08-.33c-.05-.13,0-.14.08,0s.15.2.32.73a17.34,17.34,0,0,1,.63,2.64,4.61,4.61,0,0,1,.08,1.07.31.31,0,0,1-.12-.07Z"/><path class="cls-6" d="M18.81,12.57a.87.87,0,0,1-.06-.16s.07,0,.14-.05l.52-.11c.39-.1.45-.09.51,0s0,.19-.12.22l-.43.09-.43.09c-.06,0-.08,0-.13-.11Z"/><path class="cls-6" d="M17.08,12.34a.48.48,0,0,1,0-.12h.51c.4,0,.5,0,.48.06a2.11,2.11,0,0,1-.7.14l-.2,0-.05-.11Z"/><path class="cls-6" d="M14.63,12.54a1.56,1.56,0,0,0-.65-1,1,1,0,0,0-.68,0,.76.76,0,0,0-.47.46l0,.13L12.29,11l-.52-1.14.11-.11a4.09,4.09,0,0,1,.34-.29.84.84,0,0,0,.22-.18,1.7,1.7,0,0,0-.48.3c-.18.14-.23.17-.26.14s.8-.68,1.36-.84l.6-.12c.47-.07.62-.13.68-.26a.59.59,0,0,0,0-.17s0-.08,0-.08.06.2,0,.32-.26.21-.6.27a.8.8,0,0,0-.3.08,1.5,1.5,0,0,0,.61-.06c.34-.09.47-.22.47-.5,0-.11,0-.14.05-.14s0,0,0,.18-.18.45-.51.52-.19.09.32.06c1.15-.06,1.64,0,1.4.21l-.07.06.07,0a.72.72,0,0,0,.37-.26.89.89,0,0,0,.14-.63V8l.19,0c.35,0,.47,0,.56-.05s.07-.1.07-.21-.08-.28-.32-.32l-.18,0L16.5,7l-.27-.61-.08-.18.12-.06.15-.06s.22.36.47.81c.39.7.44.81.45.94a.26.26,0,0,1-.09.23.46.46,0,0,1-.46.13c-.12,0-.15,0-.21,0s-.08.08-.1.31a.69.69,0,0,1-.1.4.76.76,0,0,1-.58.39c-.07,0-.13,0-.12,0s.29.72.65,1.57a7.11,7.11,0,0,1,.61,1.56l-.19,0h-.14L16,11.18l-.65-1.53-.07-.16-.09.1a2.35,2.35,0,0,0-.35.71c-.11.38-.12.34.11.64a3.5,3.5,0,0,0,1.05.92.54.54,0,0,1,.28.33l.07.22a1.24,1.24,0,0,1-.33-.14,3.83,3.83,0,0,1-1-.77,2.26,2.26,0,0,0-.28-.25,4.5,4.5,0,0,0,.14,1.22,1.36,1.36,0,0,1,.05.26l-.12,0h-.11l-.06-.23Zm-.05-1a2.72,2.72,0,0,1,0-.78,2.08,2.08,0,0,1,.37-1.09c.1-.12.08-.15-.06-.08a1.6,1.6,0,0,0-.49,1.29c0,.33.1.71.19.71s0,0,0-.05Z"/><path class="cls-6" d="M12.12,12.77a1.81,1.81,0,0,1-.61-.24l-.21-.13,0-.22a4.48,4.48,0,0,1,0-1.08c0-.3.12-.59.15-.56s1,2.06,1,2.22,0,.09-.29,0Z"/><path class="cls-6" d="M12.64,12.83C12.57,12.78,10.9,9.11,10.9,9a.27.27,0,0,1,.23-.21.11.11,0,0,1,.1.08s.43.93.89,2,.87,1.91.89,1.94,0,.06-.15.06a.5.5,0,0,1-.22,0Z"/><path class="cls-6" d="M11.86,14.68c-.17,0-.18,0-.2-.19s-.11-.39-.22-.72a4.18,4.18,0,0,1-.18-.61c.05-.05.12.08.29.6s.27.75.23.56-.23-1-.25-1,0,0,.21,0a4.13,4.13,0,0,0,.88.16c.07,0,.14,0,.14,0s-.33.71-.58,1l-.18.18s-.06,0-.14,0Z"/><path class="cls-6" d="M8,17.45a5,5,0,0,1-1.16-.27,5.54,5.54,0,0,1-1.16-.56,2,2,0,0,1,.3.12A4.61,4.61,0,0,0,10,17a2.39,2.39,0,0,0,1.05-.93,2.3,2.3,0,0,0,.25-.72c0-.06,0-.08.08-.08s.07,0,.07.1a2.06,2.06,0,0,1-.36.94A3.35,3.35,0,0,1,8,17.45Z"/><path class="cls-6" d="M9.38,15.66l-.09-.06s.1-.13.15-.13.24.19.14.2l-.08,0a.15.15,0,0,1-.12,0Z"/><path class="cls-6" d="M9.18,15.54s0-.23.07-.26,0,0,0,0,0,0,.11,0a.25.25,0,0,1,.18,0c.06,0,0,0-.08,0s-.22,0-.26.12,0,.05,0,0Z"/><path class="cls-6" d="M9.12,15.6a.36.36,0,0,1,0-.32c.05-.12.06-.08,0,.06a.23.23,0,0,0,0,.21c0,.06,0,.11,0,.12s0,0-.06-.07Z"/><path class="cls-6" d="M9.67,15.69a.44.44,0,0,0,0-.18s0-.07,0-.07,0,0,0-.07,0-.06,0,0a.36.36,0,0,1,0,.19c0,.14,0,.17.06.07a.47.47,0,0,0,0-.33s0-.07,0-.08.11.21.09.31-.15.28-.2.28,0-.05,0-.11Z"/><path class="cls-6" d="M13.21,14.27l-.32-.7s.09,0,.21,0h.21l.23.48c.12.27.27.58.32.7L14,15h-.43l-.32-.69Z"/><path class="cls-6" d="M14.74,14.85s0-.13,0-.27a3.41,3.41,0,0,0,0-.7v-.45l.09,0c.16,0,.16,0,.16.14s0,.15.1.16l1,.18.89.15.08.18a.47.47,0,0,1,.05.19s-.47-.06-1-.15l-1.05-.17s0,.09,0,.23a3.42,3.42,0,0,1-.05.39c0,.16,0,.16-.16.16s-.11,0-.11,0Z"/><path class="cls-6" d="M14.46,15.69l-.06-.11h.14c.07,0,.13,0,.13,0l-.08.11-.08.1,0-.1Z"/><path class="cls-6" d="M17.4,14.45l-.28-.67c-.25-.6-.26-.63-.12-.63l.14,0c.09,0,.09,0,.22.31.07.18.2.48.29.67l.16.35-.18,0-.18,0s0,0-.05-.08Z"/><path class="cls-6" d="M17.89,14.27a.53.53,0,0,1-.06-.15h.42c.44,0,.47,0,.38.13a2.44,2.44,0,0,1-.65.17s-.06-.06-.09-.14Z"/><path class="cls-6" d="M18.87,16.32a4,4,0,0,1-.93-.88,1.07,1.07,0,0,1-.18-.27l.2-.05c.16,0,.19,0,.21,0A4.22,4.22,0,0,0,19,16c.08.06.08.07.07.28v.21l-.21-.13Z"/><path class="cls-6" d="M19.79,17.24a.71.71,0,0,1,0-.2L20,17c.22-.05.41-.14.41-.2s-.17-.13-.39-.15l-.17,0,.13.07c.15.08.17.13,0,.1s-.2,0-.21-.23,0-.19,0-.2l.08,0a2.43,2.43,0,0,0,.42.11,2.09,2.09,0,0,1,.4.1c.15.12-.08.29-.57.42l-.21.06.16,0a2.06,2.06,0,0,0,.41-.09.76.76,0,0,0,.35-.19l.11-.12.07.08a.25.25,0,0,1,.06.14c0,.17-.16.26-.79.43l-.45.12s0,0,0-.18Z"/><path class="cls-6" d="M11.37,8.85l-.1-.18.22-.1a12.7,12.7,0,0,1,2.88-.85c.67-.13.76-.14.83,0s.05.23-.62.37a17.35,17.35,0,0,0-2.1.54,3.83,3.83,0,0,0-1,.41c0,.06-.06,0-.15-.14Z"/><path class="cls-6" d="M14.63,7c-.17-.5-.19-.63-.1-.68s.06,0,.06.12a2.2,2.2,0,0,0,.15.56c.14.39.15.46.06.46A3.22,3.22,0,0,1,14.63,7Z"/><path class="cls-6" d="M15.09,8.21c-.1,0-.07-.08.07-.13a.29.29,0,0,0,.23-.3.32.32,0,0,0-.28-.33c-.06,0-.12,0-.13-.07-.09-.22-.28-.83-.3-.93a.16.16,0,0,1,.05-.19l.06-.06.07.19c0,.1.17.42.31.71.34.74.35.79.26,1a.45.45,0,0,1-.26.17l-.08,0Z"/><path class="cls-6" d="M15.52,8.16c.05-.07.08-.08.26-.08s.2,0,.19,0a.55.55,0,0,1-.36.12h-.14l0-.07Z"/><path class="cls-6" d="M16.56,7.9a1.59,1.59,0,0,1-.3-.05,1,1,0,0,1-.07-.33l.42,0c.33,0,.4.06.45.11a.15.15,0,0,1,0,.22C17,8,17,8,16.56,7.9Z"/><path class="cls-6" d="M15.44,6.94c0-.05,0-.11,0-.12s.1,0,.12.15,0,.1-.09,0Z"/><path class="cls-6" d="M15.23,6.51c-.07-.11-.08-.21,0-.21s.12.15.11.24v.08l-.07-.11Z"/><path class="cls-6" d="M9.78,10.9l-.15-.15.07-.12c.17-.29.79-1.25.92-1.41l.13-.17,0,.11a2,2,0,0,0,.09.22l0,.11-.11.15c-.06.08-.28.42-.5.77l-.39.64-.15-.15Z"/><path class="cls-6" d="M8.89,12.37c-.16-.11-.15-.14.13-.59l.26-.43.15.15.15.17L9.34,12c-.2.32-.25.38-.31.38a.24.24,0,0,1-.14-.05Z"/><path class="cls-6" d="M10.13,13.44c-.08-.12-.14-.16-.84-.57l-.64-.4a.23.23,0,0,1-.07-.15v-.09l.07.1a.54.54,0,0,0,.36.24,1.71,1.71,0,0,1,.56.3c.47.32.59.43.62.56s0,.11-.06,0Z"/><path class="cls-6" d="M10.3,13.35c0-.13-.19-.26-.62-.55a2.28,2.28,0,0,1-.43-.32,3.62,3.62,0,0,1,.93.61c.1.08.19.27.15.31a.14.14,0,0,1,0-.05Z"/><path class="cls-6" d="M11.28,14.47c0-.06,0-.24-.09-.4-.13-.53-.07-.46.09.1.12.41.12.42.06.42s-.05-.05-.06-.12Z"/><path class="cls-6" d="M11,12.17s-.06-.12-.08-.38a3.37,3.37,0,0,1,.07-1,1.93,1.93,0,0,1,.23-.55c.06,0,.06.13,0,.24a2.93,2.93,0,0,0-.18,1.46,2.16,2.16,0,0,1,0,.27l-.06,0Z"/><path class="cls-6" d="M9.15,15.25s0-.05,0-.09a.32.32,0,0,1,.29-.11.27.27,0,0,1,.17,0c.07,0,.16.11.14.12s0,0,0,0,0,0,0,0a.28.28,0,0,0-.22-.09.35.35,0,0,0-.33.16l0,0v-.05Z"/><path class="cls-6" d="M9.67,15.34a.23.23,0,0,0-.16-.09.22.22,0,0,0-.18,0s0,0,0,0h0s.07-.06.13-.08a.32.32,0,0,1,.22,0c.05,0,.1.08.07.08l0,0Z"/><path class="cls-6" d="M9.38,15.8s-.05,0-.07-.05a.15.15,0,0,1,0-.11c0-.06,0-.06,0,0a.11.11,0,0,1,0,.06c0,.07.06.12.15.12s.06,0,.1-.06l.06,0a.18.18,0,0,1-.24.12Z"/><path class="cls-6" d="M9.35,15.89s-.08-.05-.15-.15,0,0,0,0,0,0,0,0,0,0,0-.06,0,0,0,0,0,0,0,0a.27.27,0,0,0,.14.24.24.24,0,0,0,.28-.08l0,0v0s0,0,0,0l-.07,0a.22.22,0,0,1-.15.06.22.22,0,0,1-.12,0Z"/><path class="cls-6" d="M9.61,15.46s0,0,0,0,0,0,0,0h0s0,0,0,0,0,0,0,0Z"/><path class="cls-6" d="M6,16.06a.3.3,0,0,0-.2-.13h0l.06,0s0,0,.08,0A.51.51,0,0,1,6,16a.11.11,0,0,1,0,.05v0l0-.06Z"/><path class="cls-6" d="M6,15.86l-.07,0a0,0,0,0,1,0,0s0,0,0,0,.15.06.14.07,0,0,0,0,0,0-.06,0Z"/><path class="cls-6" d="M9.49,14a.4.4,0,0,1-.23-.23v0h-.1a.31.31,0,0,1-.25-.09.3.3,0,0,1-.09-.21s0,0,0,0a.29.29,0,0,0,.17.23.57.57,0,0,0,.29,0s0,0,.05,0a.31.31,0,0,0,.3.25c.06,0,.07,0,0,0a.45.45,0,0,1-.2,0Z"/><path class="cls-6" d="M11.08,13.64c-.09-.31-.08-.32,0-.08,0,.09.06.15.05.15s0,0,0,.06a.18.18,0,0,1,0,.05.8.8,0,0,1-.06-.18Z"/><path class="cls-6" d="M5.74,16.61h0s-.07,0-.17-.08-.52-.28-.67-.35l-.1-.05a4.24,4.24,0,0,1,.58.25,4.33,4.33,0,0,1,.46.25s0,0,0,0Z"/><path class="cls-6" d="M5.6,15.17l-.1-.1.08,0,.13.1.07,0h0a.45.45,0,0,1-.14-.1Z"/><path class="cls-6" d="M2.4,16.06c-.07-.16-.07-.2,0-.06l.05.11s0,0,0,0a.1.1,0,0,1,0,0,.92.92,0,0,1-.07-.13Z"/></svg>