<svg id="Layer_1" data-name="Layer 1" xmlns="http://www.w3.org/2000/svg" viewBox="0 0 22 22"><defs><style>.cls-1{fill:#b2babf;}.cls-2{fill:#fff;}.cls-3{fill:#d60a0c;}.cls-4{fill:#ff7a00;}</style></defs><path class="cls-1" d="M4.18,6.12A2.32,2.32,0,0,0,4.69,6c.11,0,.3-.13.28-.27s-.45-.06-.56,0a3.61,3.61,0,0,0-.62.24,2.48,2.48,0,0,1,.08-.66,2.69,2.69,0,0,1-.74-.19,3.16,3.16,0,0,0,.66-.27c.44-.25.83-.58,1.27-.84a8.59,8.59,0,0,1,2.06-.9,8,8,0,0,1,1.93-.34A11,11,0,0,1,13,3.34c.91.3,1.8.69,2.72,1a7.16,7.16,0,0,0,2.71.35,5.9,5.9,0,0,0,1.89-.47L20.73,4c.13-.49.24-1,.32-1.47A8.09,8.09,0,0,0,21.12,1a4,4,0,0,1,.67,1.49,8.62,8.62,0,0,1-.07,4,19.15,19.15,0,0,1-2.39,5.65c-1.07,1.75-2.23,3.44-3.39,5.14a1.32,1.32,0,0,1,.34,1.11,1.79,1.79,0,0,1-.57,1.09,2,2,0,0,1-1.29.47H14a1.13,1.13,0,0,0-.18.12c0,.05-.07.12-.12.18a.87.87,0,0,1-.5.28,1,1,0,0,1-.38,0,.84.84,0,0,1-.66-.76,1,1,0,0,1,.05-.38L12.14,19l.29-.26a5,5,0,0,1,.82-1.82.77.77,0,0,1-.43-.61.73.73,0,0,1,.4-.72,1,1,0,0,1,.88.07,1.33,1.33,0,0,1,.19.14l.82-1.19a9.76,9.76,0,0,1-3.41-.1,10.07,10.07,0,0,1-2.45-.93c-.48-.25-.94-.52-1.42-.77a6.4,6.4,0,0,0-2-.57,6.45,6.45,0,0,0-2.55.16A5.31,5.31,0,0,0,1,13.86a4.93,4.93,0,0,0-.42.49L0,15.2v-.1a9.84,9.84,0,0,1,.19-1.72,6,6,0,0,1,1.6-3,4.29,4.29,0,0,1,1.27-.83.83.83,0,0,0,.15-.11.68.68,0,0,0,.31-.64c0-.38-.43-.65-.78-.72a1.79,1.79,0,0,0-.61,0,1.23,1.23,0,0,1,.47-.27A1.53,1.53,0,0,1,1.91,7a4.08,4.08,0,0,0,1.66-.23A2.47,2.47,0,0,0,3,6.2h.58Z"/><path d="M21.31,2.06a4.11,4.11,0,0,1,.39,1.42,7.63,7.63,0,0,1,0,.83A13.18,13.18,0,0,1,20.5,9.36a14.58,14.58,0,0,1-.66,1.31c-.44.78-.9,1.56-1.36,2.32-.91,1.49-1.88,2.95-2.87,4.39a1.13,1.13,0,0,1,.41,1,1.43,1.43,0,0,1-.24.69,1.52,1.52,0,0,1-.88.63,2.39,2.39,0,0,1-1,0,.58.58,0,0,1-.28.21.63.63,0,0,1-.67.4.63.63,0,0,1-.53-.52.67.67,0,0,1,.07-.37l-.1-.35c.08-.07.19-.13.23-.22.14-.31.2-.65.35-1a9.15,9.15,0,0,1,.6-1.05s0-.05,0-.07l-.05,0c-.16-.07-.29-.09-.4-.26a.47.47,0,0,1,0-.53A.63.63,0,0,1,14,15.9a1.31,1.31,0,0,1,.36.3c.45-.63.88-1.27,1.32-1.92l0,0a9.68,9.68,0,0,1-3.83,0,9.4,9.4,0,0,1-2.4-.9c-.5-.26-1-.55-1.48-.8A7,7,0,0,0,5.64,12a6.35,6.35,0,0,0-2.6.26,6.06,6.06,0,0,0-2.71,2s0,0,0,0A9.45,9.45,0,0,1,.7,12.67a5.12,5.12,0,0,1,1.65-2.39,5.05,5.05,0,0,1,.58-.36c.18-.1.39-.14.57-.24a1,1,0,0,0,.2-.25,1.24,1.24,0,0,0,.12-1.06,2.22,2.22,0,0,0-.93-.89c-.13-.09-.24-.2-.36-.3a3.18,3.18,0,0,0,.75-.07c.33-.07.63-.22,1-.28a2.2,2.2,0,0,0-.7-.4A5,5,0,0,0,5,6.1a1.32,1.32,0,0,0,.56-.4c.07-.09.15-.23.07-.33s-.33,0-.43,0a1,1,0,0,1,.42-.27s0,0,0,0a2.7,2.7,0,0,0-1.48.44s0,0,0,0A3.8,3.8,0,0,1,4.5,4.9L4.07,5H4A9.88,9.88,0,0,1,7.44,3.19a8.37,8.37,0,0,1,4.13,0c.58.14,1.15.32,1.72.51,1.07.37,2.11.77,3.22,1.06a5.38,5.38,0,0,0,1,.16,6.38,6.38,0,0,0,1.69-.1A4.76,4.76,0,0,0,21,4.13,8,8,0,0,0,21.31,2.06Z"/><path class="cls-1" d="M13.35,18.66v.05a.8.8,0,0,1-.25.48.22.22,0,0,1-.15.06v0l0,0a.45.45,0,0,0,.21.26.29.29,0,0,0-.16,0,.21.21,0,0,0-.08.24.22.22,0,0,0,.26.13.2.2,0,0,0,.14-.15.19.19,0,0,0-.07-.21s0,0,0,0a.33.33,0,0,0,.22,0,.29.29,0,0,0,.14-.08l0-.07a.45.45,0,0,1-.5-.09h0a.58.58,0,0,0,.48-.14,1.7,1.7,0,0,0,.66.17,1.46,1.46,0,0,0,.93-.23,1,1,0,0,0,.42-.93.89.89,0,0,0-.27-.49c-.31-.34-.74-.59-1.06-.91-.1-.11-.21-.28-.32-.38a.93.93,0,0,0-.38-.2s-.05,0-.07,0a.06.06,0,0,0,0,.05.67.67,0,0,1,.44.31.61.61,0,0,1,.07.17,1.14,1.14,0,0,0,.05.37.42.42,0,0,0,.13.21l.39.32c.09.07.24.19.36.13a.23.23,0,0,0,.14-.13A.31.31,0,0,1,15,18c.14.16.3.37.25.58a.85.85,0,0,1-.56.63,1.41,1.41,0,0,1-1.1-.12l0-.07A.45.45,0,0,1,13.35,18.66Z"/><path class="cls-1" d="M15.3,17.12h0c.77-1.14,1.53-2.29,2.28-3.44l-.43.16,0,0c-.67,1-1.36,2.06-2,3.07Z"/><path class="cls-1" d="M13.44,18.45a.61.61,0,0,0,.32.33c.21-.35.4-.66.62-1a1.84,1.84,0,0,1-.25-.23.5.5,0,0,1-.11-.17l-.37.6Z"/><path class="cls-2" d="M14.59,16.51c.54-.77,1.06-1.55,1.59-2.34l0,0,.59-.16s0,0,0,0-.15.23-.23.35c-.56.8-1.12,1.61-1.69,2.41Z"/><path class="cls-2" d="M13.35,18.66a.81.81,0,0,1-.26.53.22.22,0,0,1-.15.06v0a.7.7,0,0,0,.15-.23c.1-.27.16-.55.28-.84A1,1,0,0,0,13.35,18.66Z"/><path class="cls-2" d="M14,17.43a7,7,0,0,0-.59,1,1.13,1.13,0,0,1,0-.45c.06-.15.18-.35.26-.5s.18-.3.28-.44A.94.94,0,0,0,14,17.43Z"/><path class="cls-3" d="M5.79,6.11a1.19,1.19,0,0,0,.34-.4,1,1,0,0,0,.12-.54.45.45,0,0,0-.38-.36A1.68,1.68,0,0,0,5,4.9s0,0,0,0a5,5,0,0,1,1.64-1A7,7,0,0,1,9,3.36h.64a10,10,0,0,1,1.89.23l.78.2c.89.26,1.76.58,2.64.87a11.25,11.25,0,0,0,3.13.64,5.63,5.63,0,0,0,1.47-.17,4.74,4.74,0,0,0,1.63-.75,4,4,0,0,0,.32-.28,13.57,13.57,0,0,1-.21,2,18.15,18.15,0,0,1-2.39,5.73c-.25.42-.51.84-.78,1.25a11,11,0,0,1-3.77.95c-.25,0-.5,0-.75,0l-.67,0a9.9,9.9,0,0,1-2.15-.51,9.1,9.1,0,0,1-1.31-.6c-.32-.18-.64-.38-1-.56A5.8,5.8,0,0,0,7,11.76a9.07,9.07,0,0,0-2.49-.22,6,6,0,0,0-2.28.54,4.54,4.54,0,0,0-1.07.66h0a4,4,0,0,1,2.07-2.59A3.75,3.75,0,0,1,4.48,9.8a3,3,0,0,1,.73,0A2,2,0,0,0,4,9.64a1.79,1.79,0,0,0,.32-1,1.59,1.59,0,0,0-.91-1.24l.66-.15L4.61,7a5.88,5.88,0,0,1,.73-.14,2.65,2.65,0,0,0-.76-.31A3.17,3.17,0,0,0,5.79,6.11Z"/><path d="M9.15,10.16a4.79,4.79,0,0,0-.85-.05,2.32,2.32,0,0,0-.38.05.33.33,0,0,1-.25-.08l-.15.13a.73.73,0,0,0-.25.08.35.35,0,0,0-.16.34.39.39,0,0,0,.43.34.43.43,0,0,0,.17.12.93.93,0,0,0,.29.39,1,1,0,0,0,.73.22.71.71,0,0,0,.63-.4,2.59,2.59,0,0,0,1.56,1.43,2.64,2.64,0,0,0,1.93-.23A.75.75,0,0,0,13,13a1,1,0,0,0,.8.4,1.07,1.07,0,0,0,.52-.14h.21a.45.45,0,0,0,.39.08.39.39,0,0,0,.25-.41.55.55,0,0,0-.17-.28.49.49,0,0,0-.05-.2.25.25,0,0,1-.2-.06c-.11-.1-.23-.23-.35-.32a4.3,4.3,0,0,0-.67-.44.47.47,0,0,0,.13-.15,7,7,0,0,0,2.55-.87,3.51,3.51,0,0,0,1.26-1.22,6.65,6.65,0,0,0,.53-1.39,10.83,10.83,0,0,1-1.37,1.08,7,7,0,0,1-1.38.74,8.58,8.58,0,0,1-2.36.51l-.74,0a1,1,0,0,0,.33-.16c.32-.23.68-.43,1-.68a1.77,1.77,0,0,0,.42-.71,1.26,1.26,0,0,0,.64-.77,2.93,2.93,0,0,1,0-.29,1.05,1.05,0,0,1,.17-.73A2,2,0,0,0,15,5.94a1.43,1.43,0,0,0-.62-1,3.44,3.44,0,0,0-.66-.31A3.09,3.09,0,0,0,12,4.43a1.63,1.63,0,0,0-1.19,1.15,5.3,5.3,0,0,0-.1.8,1.25,1.25,0,0,1,0,.19.51.51,0,0,1-.24.22s0,0,0,0a1.49,1.49,0,0,0,.12.88,2,2,0,0,0-.09.81c.1.38.24.74.35,1.12A1.22,1.22,0,0,0,11,10,10.65,10.65,0,0,1,9.25,8.22,5.84,5.84,0,0,1,8.51,7a10.83,10.83,0,0,1-.74-2.43,4.71,4.71,0,0,0-.43,2,5,5,0,0,0,.34,1.31A7.14,7.14,0,0,0,9.14,10,.31.31,0,0,0,9.15,10.16Z"/><path class="cls-2" d="M13,4.73a3.48,3.48,0,0,1,1.25.51,1.27,1.27,0,0,1,.44,1.23,1.47,1.47,0,0,1-.26.6L14,6.49a1.58,1.58,0,0,0,.41.72,2.67,2.67,0,0,0,0,1l0,.06a0,0,0,0,1,0,0,1,1,0,0,1-.15.14.62.62,0,0,1-.22.1,4.79,4.79,0,0,1-.6-.11.5.5,0,0,0-.41.17l-.06.09-.05.17h-.05a.85.85,0,0,1-.1.28A.51.51,0,0,1,12.5,9l.08-.29a.13.13,0,0,0-.09,0l-.1.3a.48.48,0,0,1-.2-.07l.1-.32a.28.28,0,0,0-.13,0l-.08.32-.24-.07c0-.09.05-.19.08-.32l-.08,0-.11.31-.19-.07a.66.66,0,0,1,.11-.28l0,0v0s.05-.11.06-.17a.62.62,0,0,0-.06-.26c-.1-.19-.46-.33-.67-.42s-.16-.23-.18-.31a1.69,1.69,0,0,1,0-.23V7A.82.82,0,0,0,11,6.7a2,2,0,0,0,.15-.43A1.12,1.12,0,0,0,11.66,6l-.54.16a2.24,2.24,0,0,1,.1-.68,1.51,1.51,0,0,1,.85-.72A2.13,2.13,0,0,1,13,4.73Z"/><path d="M13.18,7.93l.17.07a1.26,1.26,0,0,0,.39,0,.62.62,0,0,0,.36-.35c0-.1.05-.23.13-.3h0a.74.74,0,0,0-.26,0l-.43.06a.57.57,0,0,1-.36-.06A.47.47,0,0,1,13,7.23l0,0a.88.88,0,0,0,0,.28.72.72,0,0,0,.11.32S13.15,7.91,13.18,7.93Z"/><path d="M11.89,7.48H12A.92.92,0,0,0,12.42,7h0l-.2,0c-.28,0-.45-.33-.64-.5a1,1,0,0,0-.22-.13,0,0,0,0,0,0,0,3.34,3.34,0,0,0-.1.43.52.52,0,0,0,.06.3l0,0a.23.23,0,0,0,.07.07,1.05,1.05,0,0,0,.4.19Z"/><path d="M12.67,7.58a.17.17,0,0,0-.16-.08l-.06,0-.1.17c-.06.06-.12.13-.18.18a.25.25,0,0,0-.06.14.12.12,0,0,0,.05.09h0c.07,0,.2,0,.21-.07s0,0,0,0a.11.11,0,0,0,.07.16h.07l.08,0a.15.15,0,0,0,0-.14,1.91,1.91,0,0,0,0-.21.65.65,0,0,1,0-.24A0,0,0,0,0,12.67,7.58Z"/><path class="cls-2" d="M8.12,10.59a.5.5,0,0,1,.35-.22,3.36,3.36,0,0,1,.63.06.52.52,0,0,0-.22.17l-.44,0Z"/><path class="cls-2" d="M7.7,5.6c.13.39.23.75.37,1.1A8.31,8.31,0,0,0,9.89,9.39c.22.21.45.42.69.61l-.29.07A6.47,6.47,0,0,1,7.7,5.6Z"/><path class="cls-2" d="M7.81,10.42a2.59,2.59,0,0,0,.47-.05l0,0a.39.39,0,0,0-.28.2H8a.33.33,0,0,1-.28-.17C7.8,10.42,7.74,10.45,7.81,10.42Z"/><path class="cls-2" d="M12.29,9.24a2.13,2.13,0,0,1-.12.29l.15,0c0-.11,0-.17.07-.27a.38.38,0,0,1,.21.05l-.11.23h.11l.11-.26a.18.18,0,0,1,.09.2A1.48,1.48,0,0,0,13,9.39a3.2,3.2,0,0,1,.25-.27.23.23,0,0,1,.11,0h0a.32.32,0,0,1,.14.14,2.15,2.15,0,0,1-.24.18c-.29.15-.54.28-.82.46a.49.49,0,0,1-.17.06,1.16,1.16,0,0,0-1-.33.36.36,0,0,1-.1-.14c-.11-.29-.24-.58-.37-.86a2.34,2.34,0,0,1-.09-.24s0,0,0-.06,0,0,0,0h0a.55.55,0,0,1,.18,0l0,0,.05.06a2.5,2.5,0,0,1,.07.41,1,1,0,0,0,.07.23.3.3,0,0,1,.15-.16.44.44,0,0,1,0,.32.28.28,0,0,0,.1.09A.61.61,0,0,1,11.5,9a.6.6,0,0,1,.16.08l-.07.28a.25.25,0,0,0,.11,0l.06-.3a.6.6,0,0,1,.19.06,1.57,1.57,0,0,1-.08.31.31.31,0,0,0,.12.05,1.58,1.58,0,0,1,.1-.31A.76.76,0,0,1,12.29,9.24Z"/><path class="cls-2" d="M14.28,12.65a7.74,7.74,0,0,0-.62-.47.93.93,0,0,0-.05-.24,4,4,0,0,1,.56.36A.56.56,0,0,1,14.28,12.65Z"/><path class="cls-2" d="M14.54,12.63a.56.56,0,0,0,.18.13l-.12,0a.3.3,0,0,1-.24-.07v0a.62.62,0,0,0,0-.13s0-.08-.14-.26A2.5,2.5,0,0,1,14.54,12.63Z"/><path class="cls-2" d="M12.87,10.93l-.18-.22a8.83,8.83,0,0,0,3.39-.81,7,7,0,0,0,1.56-1A6,6,0,0,1,12.87,10.93Z"/><path class="cls-3" d="M9.54,10.76h0s0,0,0,0,.1.36.16.45a2.54,2.54,0,0,0,1.33,1,2.61,2.61,0,0,0,1.74-.13c.1,0,.19-.11.21-.22h0A.2.2,0,0,1,13,12c-.1.23-.63.43-.86.49a2.1,2.1,0,0,1-1.57-.17,2.36,2.36,0,0,1-.9-.9,1.31,1.31,0,0,1-.19-.51A.21.21,0,0,1,9.54,10.76Z"/><path class="cls-4" d="M9.54,10.76v0a2.08,2.08,0,0,1,1.29-.51,2,2,0,0,1,1.24.31,2.21,2.21,0,0,1,1,1.31v0h0c0,.11-.11.17-.21.22a2.61,2.61,0,0,1-1.74.13,2.54,2.54,0,0,1-1.33-1c-.06-.09-.24-.35-.16-.45s0,0,0,0Z"/><path d="M10.64,10.68a5.53,5.53,0,0,0-.91,0h0a6.31,6.31,0,0,1,.76.08h0Z"/><path d="M12.19,11.35a4.57,4.57,0,0,1,.71.42,3.45,3.45,0,0,0-.7-.56Z"/><path class="cls-2" d="M12.19,11.38l-.08,0-.06.21-.15-.08a1.6,1.6,0,0,0,0-.21l-.16-.07,0,.2-.16-.07.05-.19-.16-.06-.06.19-.16-.06.06-.18-.17,0-.07.18-.16,0,.07-.18-.17,0-.08.2-.18,0,.09-.2-.1,0,.1-.15h.1l.09-.12.16,0-.09.12.17,0,.07-.13.15,0-.07.13.16,0,0-.13.14.05,0,.13.15.06,0-.14.13.06V11l.14.07,0-.14.13.08v.15l.07.05Z"/><path class="cls-1" d="M12.79,7a.79.79,0,0,1-.36-.24c-.11-.09-.2-.2-.3-.3a2.76,2.76,0,0,0-.39-.28h0c.23,0,.68.41.86.56a.55.55,0,0,0,.37.12,4.93,4.93,0,0,1,.77,0,.53.53,0,0,1,.3.12,4,4,0,0,0-.49,0C13.4,7,13.22,7,13,7A1,1,0,0,1,12.79,7Z"/><path class="cls-1" d="M11.35,6.42a0,0,0,0,0,0,0,3.34,3.34,0,0,0-.1.43.52.52,0,0,0,.06.3l0,0a.07.07,0,0,0-.09,0,.17.17,0,0,0,0,.1.41.41,0,0,1-.14-.4,1.45,1.45,0,0,1,.2-.56Z"/><path class="cls-1" d="M13.74,8a.62.62,0,0,0,.36-.35c0-.1.05-.23.13-.3s0,0,0,0a1.44,1.44,0,0,1-.14.49.49.49,0,0,1-.3.28h0s-.07,0,0,0a.11.11,0,0,0,.06-.09.09.09,0,0,0,0-.05Z"/><path class="cls-1" d="M11.89,7.48H12A.92.92,0,0,0,12.42,7h0s0,0,0,0h0A.65.65,0,0,0,13,7.2l0,0,0,0a.88.88,0,0,0,0,.28.72.72,0,0,0,.11.32s.05,0,.08.07,0,0,0,0a.22.22,0,0,0,0,.14c-.31-.13-.27-.38-.33-.67a.24.24,0,0,0-.24-.18.25.25,0,0,0-.13,0,2.91,2.91,0,0,1-.37.33.44.44,0,0,1-.3,0A.16.16,0,0,0,11.89,7.48Z"/><path class="cls-1" d="M12.51,7.5l-.06,0-.1.17c-.06.06-.12.13-.18.18a.25.25,0,0,0-.06.14.12.12,0,0,0,.05.09l0,0s0,.08,0,.11a.22.22,0,0,1-.09-.35s.14-.12.19-.17.07-.18.19-.23Z"/><path class="cls-1" d="M12.72,7.66a1.34,1.34,0,0,1,0,.2,1.35,1.35,0,0,0,0,.28c0,.11-.12.25-.25.19,0,0,.05-.05.06-.08l.08,0a.15.15,0,0,0,0-.14,1.91,1.91,0,0,0,0-.21.65.65,0,0,1,0-.24,0,0,0,0,0,0,0A.22.22,0,0,1,12.72,7.66Z"/><path class="cls-1" d="M12.06,4.72a1.43,1.43,0,0,0-.75.56,1.31,1.31,0,0,0-.19.84L11.51,6a1.45,1.45,0,0,1,.08-.66,1,1,0,0,1,.58-.56,1.36,1.36,0,0,1,.63-.09A2.3,2.3,0,0,0,12.06,4.72Z"/><path class="cls-1" d="M14.7,6.46a1.62,1.62,0,0,0,0-.44A1.24,1.24,0,0,0,14,5.1a1.58,1.58,0,0,1,.22.2.89.89,0,0,1,.22.87,1,1,0,0,1-.35.49l.32.41A1.51,1.51,0,0,0,14.7,6.46Z"/><path class="cls-1" d="M10.76,8.37c0-.06,0-.07,0-.07l0,0a.55.55,0,0,1,.18,0l0,0a1.79,1.79,0,0,1,0-.46l-.15-.08a1.77,1.77,0,0,0-.14.56l.34,1.15a1,1,0,0,0,.31.44,1.05,1.05,0,0,0,1.15.11c.3-.21.63-.41.91-.63a1.6,1.6,0,0,0,.37-.65l-.18,0a1.27,1.27,0,0,1-.26.39h0a.32.32,0,0,1,.14.14,2.15,2.15,0,0,1-.24.18c-.29.15-.54.28-.82.46a.49.49,0,0,1-.17.06,1.16,1.16,0,0,0-1-.33.36.36,0,0,1-.1-.14c-.11-.29-.24-.58-.37-.86A2.34,2.34,0,0,1,10.76,8.37Z"/><path class="cls-1" d="M10.74,7a.05.05,0,0,0,0,0c0,.21,0,.52.2.63a5.52,5.52,0,0,1,.54.28.36.36,0,0,1,.18.33.67.67,0,0,0-.14-.15c0,.11-.1.2-.15.31a.38.38,0,0,0,0,.33.64.64,0,0,0,.13-.32.06.06,0,0,1,.05,0h.06v0s.05-.11.06-.17a.62.62,0,0,0-.06-.26c-.1-.19-.46-.33-.67-.42s-.16-.23-.18-.31a1.69,1.69,0,0,1,0-.23Z"/><path class="cls-1" d="M9.33,10.31s-.29.23-.32.32a2.46,2.46,0,0,0-.09.39c0,.08.07.12.14.15a.2.2,0,0,1-.17,0,.34.34,0,0,1-.09.12.44.44,0,0,1-.39,0,.76.76,0,0,1-.49-.59H8a.1.1,0,0,1,0-.09s0,0,0,0H8a.33.33,0,0,1-.28-.17c.08,0,0,0,.09,0l-.11,0a.42.42,0,0,0-.09.16s-.05-.07-.1-.08a.12.12,0,1,0,0,.24.16.16,0,0,0,.09-.09.28.28,0,0,0,.12.18l0,0a.26.26,0,0,1-.08-.26s0,0,0,0a.31.31,0,0,0,.14.21,1.22,1.22,0,0,0,.14.33.81.81,0,0,0,.54.34.48.48,0,0,0,.57-.21c.1-.23.12-.49.22-.71A.71.71,0,0,0,9.44,10h0A.37.37,0,0,1,9.33,10.31Z"/><path class="cls-1" d="M8.13,10.59a.22.22,0,0,0,0,.14,4.08,4.08,0,0,1,.69.09.94.94,0,0,1,.07-.22l-.45,0Z"/><path class="cls-1" d="M7.7,5.58A2.17,2.17,0,0,0,7.62,6a3.51,3.51,0,0,0,.14,1.25A5.92,5.92,0,0,0,9.29,9.72c.18.18.37.34.55.51l.27-.11A7.36,7.36,0,0,1,7.7,5.58Z"/><path class="cls-1" d="M13,11.08l.15.25h.16A6.94,6.94,0,0,0,16,10.6,3.75,3.75,0,0,0,17.59,9s0,0,.05-.14A6.81,6.81,0,0,1,13,11.08Z"/><path class="cls-1" d="M12.84,9.2A.42.42,0,0,0,13,9c0-.13.05-.26.08-.39a.63.63,0,0,0-.21,0l-.05.16,0,0,.05,0A.37.37,0,0,0,12.84,9.2Z"/><path class="cls-1" d="M12.94,8.57a.73.73,0,0,1,.32-.06c.22,0,.45.1.65.1a.33.33,0,0,0,.21-.09.74.74,0,0,0,.2-.25,1,1,0,0,1-.15.14.62.62,0,0,1-.22.1,4.79,4.79,0,0,1-.6-.11A.5.5,0,0,0,12.94,8.57Z"/><path class="cls-1" d="M14.35,12.71v0l-.06.08a.46.46,0,0,1,.07.07l0,0a.77.77,0,0,1-.73.11.35.35,0,0,1-.26-.38.25.25,0,0,1-.12-.11h0a.12.12,0,0,0,.16,0,3.17,3.17,0,0,0,.17-.37.32.32,0,0,0,0-.17,1.14,1.14,0,0,1-.09-.3.35.35,0,0,1,.15-.26l0-.05a.44.44,0,0,0-.17.23c0,.1,0,.2-.07.3s-.16.38-.22.58a.42.42,0,0,0,0,.19.56.56,0,0,0,.35.41.86.86,0,0,0,.93-.14.31.31,0,0,0,.25-.1s0,0,0,0a.23.23,0,0,1-.21.14v.05a.24.24,0,0,0,.21-.06s0,.09,0,.12a.12.12,0,0,0,.1,0,.12.12,0,0,0,.09-.14c0-.06-.09-.12-.15-.09s0,0,0,0a.59.59,0,0,0,0-.13v0l-.12,0a.3.3,0,0,1-.24-.07Z"/><path class="cls-1" d="M13.66,12.18a.47.47,0,0,1-.07.25,3.51,3.51,0,0,1,.6.33l0,0a.16.16,0,0,0,0-.08Z"/><path class="cls-1" d="M14.23,18.8h.22a.46.46,0,0,0,.4-.28c.06-.15-.1-.28-.21-.33A5.55,5.55,0,0,0,14.23,18.8Z"/></svg>