<svg id="Layer_1" data-name="Layer 1" xmlns="http://www.w3.org/2000/svg" viewBox="0 0 22 22"><defs><style>.cls-1{fill:#fff;}.cls-2{fill:#da2128;}.cls-3{fill:#005496;}</style></defs><path class="cls-1" d="M2.31,14.18a5.4,5.4,0,0,0,2-2.07L0,12.71,1.85,9.45l3.7-.29A14,14,0,0,1,9.22,7a4.21,4.21,0,0,1,1.51-1.13,14.73,14.73,0,0,1,2.49-1.12,7.77,7.77,0,0,1,1.17-.32l-.08-.29L16,4l0-.17a5.61,5.61,0,0,1,1.4.29l.1-.13a5.59,5.59,0,0,1,2.06,1.89,3.8,3.8,0,0,1,1.62.33A1.3,1.3,0,0,1,22,7.45a9.43,9.43,0,0,1-.38,2.4,2.51,2.51,0,0,1-.1.29,3.79,3.79,0,0,1-.22.35,3.06,3.06,0,0,0-.56.77l-.26.68s-.13.61-1,.64A16.64,16.64,0,0,1,18.25,14l0-.26a9.09,9.09,0,0,1-1.12.87l.18-1.53s0-.28-.13-.3h-.44a3.46,3.46,0,0,1,0,1.35s-.11.67-1.15,1a8.9,8.9,0,0,1-1.73.32l-.2,0L12.14,16l.43-1.51s-.54.05-.59,0l-1.61.69L11,13.3l.44-.24-.14-.19h-.89l-.33.26A5.2,5.2,0,0,0,8.6,13L4.84,16l-.95,2.07-1.11-1.5.35-.46L3,16l-.51.4-.76,2L.63,16.87l.29-.64-.07-.39a3.34,3.34,0,0,0,.72-.55,1.39,1.39,0,0,0,.24-.35c.1-.24.11-.5.22-.58Z"/><path class="cls-2" d="M2.06,9.78.62,12.3,19.1,9.62s-.64-.49.3-1.26Z"/><path class="cls-3" d="M20.82,8s-1.45,1-.95,1.83c0,0-.52.29.05.7,0,0-.89.4-.65-.7L4.74,12a4.79,4.79,0,0,1-2.38,2.55.35.35,0,0,0-.17.26.78.78,0,0,1-.17.45,2.49,2.49,0,0,1-.78.75l0,.27L1,16.84l.61.88.56-1.5,1.11-.85A6.62,6.62,0,0,1,6.18,13,7.56,7.56,0,0,1,10,12.75l.21-.2,2.66-.05s.1,0,0,.08a2.42,2.42,0,0,1-1.1.45l.06.16s0,.06,0,.08l-.56.21-.37,1,1-.45.06,0a9.47,9.47,0,0,0,2.28-.22,1.71,1.71,0,0,0,1.21-1.41l1.81-.07a.4.4,0,0,1,.32.43l-.13,1,.83-.73.05.2a5.45,5.45,0,0,0,.79-1.07s.69,0,.86-.26a2.37,2.37,0,0,0,.3-.68,1.88,1.88,0,0,1,.53-.83,2.27,2.27,0,0,0,.51-1.12s.23-1.16.23-1.39c0,0,.24-1.15-.56-1.5a3.25,3.25,0,0,0-1.69-.24s-.21-.76-1.73-1.82l-.11.16a2.33,2.33,0,0,0-1.25-.35l0,.1s-.45,0-1.42.09l.09.27a10.69,10.69,0,0,0-4.87,2L10,6.82,9.64,7l.19.11A14.88,14.88,0,0,0,6.06,9.17Z"/><path class="cls-3" d="M15.71,12.7h.63a4.86,4.86,0,0,1,0,1.19,1.12,1.12,0,0,1-.68.75,6.67,6.67,0,0,1-2,.42L13.59,15l-.94.39L13,14.32a14,14,0,0,0,1.62-.21A1.52,1.52,0,0,0,15.71,12.7Z"/><path class="cls-3" d="M8,13A5.19,5.19,0,0,0,4.3,14.74a1.37,1.37,0,0,1-.79,1.08l0,.21-.38.51.66.89.75-1.65Z"/></svg>