<svg id="Layer_1" data-name="Layer 1" xmlns="http://www.w3.org/2000/svg" viewBox="0 0 22 22"><defs><style>.cls-1{fill:#97233f;}.cls-2{fill:#fff;}.cls-3{fill:#ffb612;}</style></defs><path d="M22,17.45c.27-2.08-2.07-4.63-2.07-4.63a7.46,7.46,0,0,0-4.17-6C10.71,4,7.93,6.3,0,1.44A7.11,7.11,0,0,0,1.35,4.39L.53,4.12A8.71,8.71,0,0,0,2.58,6.88L1.66,6.6a9.94,9.94,0,0,0,2.88,3.8c.43,3.66,3.12,4.28,3.33,6.53,3.5.54,7.19,4.28,7.19,4.28A8,8,0,0,1,22,17.45Z"/><path class="cls-1" d="M15.32,7.27c-3.64-2-8.1-.7-13.79-4.23C2.1,4.72,5.62,6.7,5.62,6.7l-3.12-1c.8,1.38,4.05,3.11,4.05,3.11L3.64,7.85A10.89,10.89,0,0,0,7.57,11.2L5.9,11.08c.21,1.88,2.81,3.49,2.95,5a13.71,13.71,0,0,1,3.87,2.24c2.25-1.11,1.63-4.86-2.67-10.18,5.92.36,5.75,4.74,9.15,4.11-.25-1.18-.41-3-3.88-4.93Z"/><path class="cls-2" d="M17.5,12.74c-.76,1.22-2,.88-2.5-.64l.93.05a8.23,8.23,0,0,1-2.12-1.9c-.17,3.37,3,4.88,4,2.51l-.36,0Z"/><path class="cls-3" d="M19.22,13.17a3.7,3.7,0,0,1-2.35,1.66,8.31,8.31,0,0,1,4.68,1.92A6,6,0,0,0,19.22,13.17Zm-2.13,2.44-.35,0A3.17,3.17,0,0,1,17,17.9,7.08,7.08,0,0,1,21.47,17a7.41,7.41,0,0,0-4.38-1.4Z"/></svg>