<svg id="Layer_1" data-name="Layer 1" xmlns="http://www.w3.org/2000/svg" viewBox="0 0 22 22"><defs><style>.cls-1{fill:#001532;}.cls-2{fill:#0080c5;}.cls-3{fill:#eead1e;}</style></defs><path class="cls-1" d="M20.16,9.86A10.41,10.41,0,0,1,22,17a16.63,16.63,0,0,0-4.47-6.18,8.54,8.54,0,0,1,.51,1.4A18.11,18.11,0,0,0,7.25,9.37a6.52,6.52,0,0,1,.64.82A13.45,13.45,0,0,0,.13,17c-.69-3.3,1.59-6.53,2.31-7.3-.39,0-.47,0-.89,0,2.38-3.32,6.89-4,9.29-3.81l-.62-.77a10.51,10.51,0,0,1,5.54,1.1,11.15,11.15,0,0,1,4.4,3.7"/><path class="cls-2" d="M11.26,5.45H11l.52.73c-1.21-.09-5.87-.25-9,2.87l-.22.22.89,0-.15.19A10.55,10.55,0,0,0,.38,15.2l-.08.59.33-.49a13.29,13.29,0,0,1,6.5-5.18l.17-.07-.1-.14a4.66,4.66,0,0,0-.79-.84A18.69,18.69,0,0,1,17,11.15l.33.16L17.18,11a8.31,8.31,0,0,0-.74-1.42,15,15,0,0,1,4.83,5.13l.3.46-.05-.54c-.52-6-6.4-9.23-10.26-9.16"/><path class="cls-3" d="M11.91,6.28l-.38-.55A10.75,10.75,0,0,1,17.38,7.9a9.37,9.37,0,0,1,3.8,6.17,13.92,13.92,0,0,0-5.09-5l-.47-.25.29.44a10,10,0,0,1,.87,1.52A18.91,18.91,0,0,0,6.06,8.83l-.31,0,.37.31a5.28,5.28,0,0,1,.75.75A13.53,13.53,0,0,0,.75,14.68a10.32,10.32,0,0,1,2.51-5l.5-.62H3.48L3,9c3.51-3.23,8.77-2.55,8.82-2.54l.31,0-.18-.26"/></svg>