<svg id="Layer_1" data-name="Layer 1" xmlns="http://www.w3.org/2000/svg" viewBox="0 0 22 22"><defs><style>.cls-1{fill:#fff;}.cls-2{fill:#e31837;}</style></defs><path class="cls-1" d="M.84,15.09a.86.86,0,0,1-.46-.34c-.17-.28-.11-.48,0-.86a2.15,2.15,0,0,0-.06-1A5.67,5.67,0,0,1,.06,12c0-.26-.06-.48-.06-.63a7.06,7.06,0,0,1,0-.73,3.21,3.21,0,0,1,.2-.85A6.77,6.77,0,0,1,.5,9.11a1.19,1.19,0,0,0,.21-.89c0-.18-.1-.28-.13-.53a1.28,1.28,0,0,1,0-.58,1.22,1.22,0,0,1,.23-.42.72.72,0,0,1,.45-.27.68.68,0,0,1,.32,0c.37,0,.31.35.86,0a1.07,1.07,0,0,1,1.16.06c.19.11.35.5.15-.14-.1-.38-.2-.56-.33-1.16a1.27,1.27,0,0,1,.43-1.45c.33-.29,1-.16,1.78,0S6.52,3.63,7,3.65a3.8,3.8,0,0,1,.7.06A2.28,2.28,0,0,1,8.31,4c.47.25.44,0,1.09.09a2.84,2.84,0,0,1,.5.06,2.41,2.41,0,0,1,.61.27,2,2,0,0,0,1.61.39,1.6,1.6,0,0,1,.7.25,2.6,2.6,0,0,0,1.11.44,2.64,2.64,0,0,1,1.69.45c.49.43,1.1.41,1.65.71a2.64,2.64,0,0,1,.8.74c0,.08.22.19.67.27a2,2,0,0,1,1.05.87c.29.27.12.09.52.37l.47.34a4.45,4.45,0,0,1,.38.28c.06,0,.13.12.32.29a1.38,1.38,0,0,1,.45.54c.15.29,0,.49-.1.73a3.07,3.07,0,0,1-.51.69,2,2,0,0,1-.5.42c-.58.34-1,.23-1.26.64a2.08,2.08,0,0,1-.92.93c-.54.25-.91.24-1.26.52a5.65,5.65,0,0,1-1,.64c-.59.26-.66.11-1.06.36a2.6,2.6,0,0,0-.39.31,1.66,1.66,0,0,1-.66.32,5.74,5.74,0,0,0-.62.1c-.48.13-.53.3-1.06.4a4.58,4.58,0,0,0-1.45.34c-.16.07-.33.15-.55.27a3.65,3.65,0,0,1-1.19.26,1.27,1.27,0,0,0-.83.1,2.85,2.85,0,0,1-1.08.35,2.51,2.51,0,0,1-.55,0c-.34,0-.7-.12-1.07-.11a5.53,5.53,0,0,0-.6,0l-.22,0-.33.07s-.12,0-.12,0a1.42,1.42,0,0,1-.65,0,1.34,1.34,0,0,1-.74-.4.89.89,0,0,1-.2-.76,12.25,12.25,0,0,1,.44-1.56s.17-.4-.25-.17-.75-.12-1,0a2.37,2.37,0,0,1-.73.29A1.35,1.35,0,0,1,.84,15.09Z"/><path d="M5.57,17.18h0a2.49,2.49,0,0,1,.82,0,3.25,3.25,0,0,0,.93.07,2.63,2.63,0,0,0,.47-.1A5.36,5.36,0,0,1,9,16.77a5.83,5.83,0,0,1,.83,0,1.57,1.57,0,0,0,.8-.28c.2-.11.26-.12.4-.19a6.23,6.23,0,0,1,1.64-.37c.4-.1.55-.29,1-.4a3.45,3.45,0,0,1,.55-.07,1.22,1.22,0,0,0,.54-.28c.25-.23.22-.24.41-.34a8.78,8.78,0,0,1,1-.32,3,3,0,0,0,.83-.49,3.45,3.45,0,0,1,1.32-.6,1.56,1.56,0,0,0,.88-.76,1.4,1.4,0,0,1,1-.7,1.51,1.51,0,0,0,.74-.41,2.43,2.43,0,0,0,.41-.51c.12-.18.35-.47.11-.68A3.88,3.88,0,0,0,21,9.9a3.35,3.35,0,0,0-.37-.29,1.65,1.65,0,0,0-.3-.21c-.19-.11-.24-.21-.42-.31a1.76,1.76,0,0,1-.65-.57,1.18,1.18,0,0,0-1-.57,1.21,1.21,0,0,1-.67-.46A1.62,1.62,0,0,0,17,6.94c-.51-.27-1.08-.23-1.54-.63a2,2,0,0,0-1.57-.41,2.35,2.35,0,0,1-1.09-.41,1.16,1.16,0,0,0-.45-.24c-.51-.16-.85.11-1.56-.23-.2-.1-.39-.24-.59-.36a1.37,1.37,0,0,0-.42-.15,3.77,3.77,0,0,0-1.16,0c-.21,0-.33-.09-.53-.2a1.83,1.83,0,0,0-.61-.21,2.7,2.7,0,0,0-1,0c-.71.15-1.36-.21-2-.15A.7.7,0,0,0,4,4.33a.92.92,0,0,0-.08.56,1.43,1.43,0,0,0,.11.5c.12.41.18.64.28.91s.11.72-.16.85a.49.49,0,0,1-.47,0c-.19-.14-.3-.35-.51-.39S2.49,7,2.18,7,1.84,7,1.62,6.86s-.27,0-.35.07-.18.24-.22.42a1.24,1.24,0,0,0,0,.43,2.72,2.72,0,0,1,.13.51A1.31,1.31,0,0,1,1,9.18a2.83,2.83,0,0,0-.28.62,3.61,3.61,0,0,0-.19.79c0,.21,0,.45,0,.65a5.62,5.62,0,0,0,0,.62,8.18,8.18,0,0,0,.18.84,3.33,3.33,0,0,1,.14,1c0,.32-.22.63,0,.85a.66.66,0,0,0,.69.16,3,3,0,0,1,.64-.28c.38-.05.62.11.78.09s.39-.16.51-.17a.88.88,0,0,1,.37,0c.12.08.19.18.17.47l-.07.32c-.12.39-.25.75-.31,1s-.37.88.25,1.13a1.39,1.39,0,0,0,.88,0,2.93,2.93,0,0,1,.41-.07s.24,0,.24,0Z"/><path class="cls-1" d="M17.28,7.85a2.46,2.46,0,0,1,.52.63,1,1,0,0,0,.7.37c-.09,0,.44.16.52.21a1.4,1.4,0,0,1,.45.4,2.67,2.67,0,0,0,.66.54l.47.34a1,1,0,0,1,.32.33c.14.29-.05.39-.35.55-.48.25-.89.18-1.32.63a4.34,4.34,0,0,1-1,.91,2.67,2.67,0,0,0-.64.26,2.27,2.27,0,0,0-.46.3,1.84,1.84,0,0,1-.76.48c-.26.09-.56.13-.83.21a2.79,2.79,0,0,0-.53.24,3.24,3.24,0,0,1-1,.59,3.19,3.19,0,0,0-1.27.43,2.12,2.12,0,0,1-.7.15,2,2,0,0,0-1,.24,2.27,2.27,0,0,1-1,.42,11.66,11.66,0,0,0-1.34.16,6.22,6.22,0,0,0-.71.29,3.93,3.93,0,0,1-1.18.06,3.75,3.75,0,0,0-1.22.06,4.41,4.41,0,0,1-1.08.08c-.1,0-.17-.07-.23-.17a.48.48,0,0,1-.06-.35,3.2,3.2,0,0,1,.09-.54c0-.07.12-.57.13-.65.11-.48.14-1-.24-1.18a1.08,1.08,0,0,0-.62-.08c-.64.12-.51.22-.92.08a.9.9,0,0,0-.34-.05,7.65,7.65,0,0,0-.76.19c-.18,0-.23-.17-.22-.32s0-.44,0-.69a4,4,0,0,0-.22-1.09c-.07-.35-.05-1-.07-1A2.78,2.78,0,0,1,1.43,9.7a2.22,2.22,0,0,0,.26-.51,1.19,1.19,0,0,0,0-.77s-.06-.21,0-.21a.67.67,0,0,1,.06-.38A.4.4,0,0,1,2,7.57a.58.58,0,0,1,.21-.07c.24,0,.29.13.73,0a.77.77,0,0,1,.58.07c.31.11.25.11.45.12a1,1,0,0,0,.54-.15c.1-.06.18-.09.23-.18a1.15,1.15,0,0,0,.14-.38,1.28,1.28,0,0,0,0-.52c-.1-.37-.13-.45-.2-.69s-.12-.38-.15-.56V4.94a.27.27,0,0,1,.26-.31c.55,0,1.06.16,1.65.15a2.63,2.63,0,0,1,1.25.11,5.72,5.72,0,0,0,.62.32c.59.16,1.06-.23,1.56,0a3.62,3.62,0,0,1,.72.33,2.53,2.53,0,0,0,1,.39A2.39,2.39,0,0,1,13,6.24a2,2,0,0,0,1,.36c.47.05.51,0,.88.25s.2.15.47.35a1.75,1.75,0,0,0,.4.27,3,3,0,0,0,.49.1,2,2,0,0,1,.72.09Z"/><path d="M5.18,11.18v.74H8l.28-.26v-.89H7.84v-.23l1.54-.88.13.13a2.6,2.6,0,0,0-.82.83,2.26,2.26,0,0,0-.23,1.76,2,2,0,0,0,.51.86,2.65,2.65,0,0,0,.85.58,6.28,6.28,0,0,0,1.67.46,10.25,10.25,0,0,0,1.77,0,5.25,5.25,0,0,0,1.38-.37,4.73,4.73,0,0,0,.77-.42,2.36,2.36,0,0,0,1.15-1.76h-1c-.32,1.16-3.46,1.69-4.72.8-.91-.72-.65-1.36-.27-1.66l.12.13-.2.21,0,.74h2.64l.34-.32v-.81h-.2l-.91-1A2.66,2.66,0,0,1,15.48,11h.69l.34-.34v-2h-.73L15.34,9a4.92,4.92,0,0,0-3.93-.21l-.19-.21,1.11-.66H13l.33-.31V7h-2.7l-.29.29V7.7L7.82,9.14V8l.41-.41V7H5.58l-.36.42V7.9h.43v2.87H5.52S5.17,11.17,5.18,11.18Z"/><polygon class="cls-2" points="5.65 7.11 8.08 7.11 8.08 7.55 7.66 7.55 7.66 9.43 10.96 7.55 10.67 7.55 10.67 7.11 13.17 7.11 13.17 7.54 12.62 7.55 10.92 8.55 13.2 11.01 13.28 11.01 13.28 11.51 10.77 11.51 10.77 11 11.12 11.01 9.56 9.34 7.68 10.42 7.68 11.01 8.08 11.01 8.08 11.5 5.65 11.5 5.65 11.01 6.07 11.01 6.07 7.55 5.65 7.55 5.65 7.11"/><path class="cls-2" d="M16.37,11.87h-.66a2.3,2.3,0,0,1-1.48,1c-1.63.48-3.2.24-3.89-.62a1,1,0,0,1,.06-1.57l-.73-.78a2.06,2.06,0,0,0-.89,1.12,1.94,1.94,0,0,0,0,1.46,2.57,2.57,0,0,0,1.26,1.06,6.63,6.63,0,0,0,2.68.44,4.91,4.91,0,0,0,2.14-.49,3.07,3.07,0,0,0,.85-.61A2,2,0,0,0,16.37,11.87Z"/><path class="cls-2" d="M11.54,8.94a5.06,5.06,0,0,1,3.84.24l.41-.27h.58v1.73h-.64a3.35,3.35,0,0,0-3.54-1Z"/></svg>