<svg id="Layer_1" data-name="Layer 1" xmlns="http://www.w3.org/2000/svg" viewBox="0 0 22 22"><defs><style>.cls-1{fill:#fff;}.cls-2{fill:#003a70;}</style></defs><path class="cls-1" d="M11.15,22a10.11,10.11,0,0,1-4.51-1,10.93,10.93,0,0,1-3.86-3.32,9.68,9.68,0,0,1-2-4.73,10.13,10.13,0,0,1,0-2.67,12.48,12.48,0,0,1,.77-3A17.48,17.48,0,0,1,2.73,5c.31-.45.87-1.28,1.1-1.57.06-.09,0-.05-.05-.05a.49.49,0,0,1-.2,0,.81.81,0,0,1-.2,0,.91.91,0,0,1-.68-1A9.78,9.78,0,0,1,2.94.76a1,1,0,0,1,1-.76A15.68,15.68,0,0,1,5.74.06,2.36,2.36,0,0,1,7.89,1.32a3.59,3.59,0,0,1-.25,2.89,11.06,11.06,0,0,1-.77,1.27,9.58,9.58,0,0,0-.59,1A19,19,0,0,0,5,9.65a5.4,5.4,0,0,0,.73,4.75,6.79,6.79,0,0,0,2.16,2.15,6.68,6.68,0,0,0,3.23.85"/><path class="cls-1" d="M11.15,17.4a6.65,6.65,0,0,0,3.23-.85,6.69,6.69,0,0,0,2.16-2.15,5.44,5.44,0,0,0,.74-4.75A20,20,0,0,0,16,6.47a9.64,9.64,0,0,0-.6-1,12.69,12.69,0,0,1-.77-1.27,3.62,3.62,0,0,1-.24-2.89A2.35,2.35,0,0,1,16.58.06,15.46,15.46,0,0,1,18.42,0a1,1,0,0,1,.95.76,9.78,9.78,0,0,1,.24,1.59.9.9,0,0,1-.68,1,.69.69,0,0,1-.2,0,.44.44,0,0,1-.19,0s-.12,0-.05.05c.22.29.79,1.12,1.09,1.57A16.46,16.46,0,0,1,20.75,7.3a12.1,12.1,0,0,1,.76,3,10.22,10.22,0,0,1,0,2.67,9.89,9.89,0,0,1-2,4.73A11,11,0,0,1,15.68,21a10.2,10.2,0,0,1-4.52,1"/><path class="cls-2" d="M6.42,20.28a10.51,10.51,0,0,1-3.85-3.85A9.4,9.4,0,0,1,1.4,9.69a14.64,14.64,0,0,1,3-6.18c.39-.56,0-.88-.33-.76a1.36,1.36,0,0,1-.44.1c-.46-.06-.4-.36-.31-1.15l.11-.65c.09-.57.35-.56,1-.55A8.78,8.78,0,0,1,6.29.64c.78.17,1.79,1,1,3.09-.49,1.15-1,1.53-1.57,2.72s-2.08,4.28-1.08,6.81a6.85,6.85,0,0,0,6.5,4.64,7.1,7.1,0,0,0,6.56-4.64c1-2.53-.48-5.49-1.08-6.81S15.53,4.88,15,3.73c-.8-2.14.22-2.92,1-3.09A8.67,8.67,0,0,1,17.88.5c.69,0,.95,0,1,.55L19,1.7c.09.79.15,1.09-.31,1.15a1.43,1.43,0,0,1-.45-.1c-.31-.12-.71.2-.32.76a14.64,14.64,0,0,1,3,6.18,9.39,9.39,0,0,1-1.18,6.74,10.49,10.49,0,0,1-3.84,3.85,9.67,9.67,0,0,1-4.76,1.2,9.61,9.61,0,0,1-4.72-1.2Z"/><path class="cls-1" d="M16.72,3.65a.25.25,0,1,0-.5,0,.25.25,0,1,0,.5,0Z"/><path class="cls-1" d="M19.71,10.57a.26.26,0,0,0-.26-.26.26.26,0,0,0-.25.26.25.25,0,0,0,.25.25.26.26,0,0,0,.26-.25Z"/><path class="cls-1" d="M18.19,16.44a.25.25,0,0,0-.25-.25.26.26,0,0,0-.26.25.26.26,0,0,0,.26.26.26.26,0,0,0,.25-.26Z"/><path class="cls-1" d="M5.85,3.91a.26.26,0,0,0,.25-.26.25.25,0,0,0-.25-.25.26.26,0,0,0-.26.25.26.26,0,0,0,.26.26Z"/><path class="cls-1" d="M2.87,10.82a.25.25,0,0,0,.25-.25.26.26,0,0,0-.25-.26.26.26,0,0,0-.26.26.26.26,0,0,0,.26.25Z"/><path class="cls-1" d="M4.38,16.7a.26.26,0,0,0,.25-.26.25.25,0,0,0-.25-.25.26.26,0,0,0-.26.25.26.26,0,0,0,.26.26Z"/><path class="cls-1" d="M11.15,19.92a.26.26,0,0,0,.25-.26.25.25,0,0,0-.25-.25.26.26,0,0,0-.26.25.26.26,0,0,0,.26.26Z"/></svg>