<svg id="Layer_1" data-name="Layer 1" xmlns="http://www.w3.org/2000/svg" viewBox="0 0 22 22"><defs><style>.cls-1{fill:#005778;}.cls-2{fill:#fff;}.cls-3{fill:#f58220;}.cls-4{fill:#008e97;}</style></defs><path class="cls-1" d="M19,7a4.73,4.73,0,0,1-.75,0,1.73,1.73,0,0,0-.8.14,1.37,1.37,0,0,0-.54.48L17,7.55a1,1,0,0,1,.84-.28.14.14,0,0,0,0,.11h0l.34-.1a4.67,4.67,0,0,0,.71-.22c.29-.12.38-.17.37-.19S19.18,6.92,19,7Z"/><path class="cls-2" d="M17,7.55l-.07.08c-.1.15-.23.4-.23.4a2.71,2.71,0,0,1,1.13-.63h0a.14.14,0,0,1,0-.11A1,1,0,0,0,17,7.55Z"/><path class="cls-3" d="M17.57,14.13A1.54,1.54,0,0,0,18,15.34c-.21-.06-1.29-.37-1.47,0s.87,2.07,1,2.38c-.49-.49-1.83-1.58-2-1.46s-.14.74-.09,1c-.19-.22-.51-.58-.78-.47s-.24,1.15-.26,1.59c-.22-.52-.59-1.57-.93-1.53s-.73.75-.8,1c0-.28-.27-.88-.61-.88s-1.13,1.59-1.36,2.11a8.89,8.89,0,0,0-.12-2.45c-.21-.1-.93.35-1.09.55.06-.26.11-1.13-.08-1.23s-.74-.14-1.73.77a4.51,4.51,0,0,0,.5-1.1,8.3,8.3,0,0,0,1.22-.15A5.41,5.41,0,0,0,18,11.18c0-.23,0-.46,0-.69l.57-.54a.8.8,0,0,0-.06.36c0,.46,1.19.56,1.82.61-.7.09-1.93.6-1.69.87a4.51,4.51,0,0,0,1,.7c-.32,0-1.38.11-1.5.41s1.54,1.31,2.15,1.55C19.49,14.24,17.69,13.88,17.57,14.13Z"/><path class="cls-3" d="M16.65,6.34a6.4,6.4,0,0,0-1.1.32,5.41,5.41,0,0,0-8,6.56,5.25,5.25,0,0,1-.91.55c.22-.27.41-.77.16-.91a4.63,4.63,0,0,0-1-.13s.89-.6.87-1-1.44-.66-2-.78c.5-.11,2.11-.47,2.18-.79s-.5-.56-.74-.67c.27,0,1,.12,1-.22s-1.58-1.37-2-1.51A8.68,8.68,0,0,0,7.51,8c.44-.1-.07-.69-.15-.76.13.07.86.22,1.07-.13s-.5-1.74-.9-2.33c.35.36,2,1.51,2.22,1.31s.05-.83-.08-1c.26.25.52.58.85.57.17,0,.38-.55.41-1.8.23.7.76,1.65,1.16,1.59s.53-.64.58-.89c.05.26.25,1,.52,1s.94-1.39,1.16-2c0,.32-.2,2,.15,2.11s.92-.56,1.25-1c-.2.38-.59,1.29-.36,1.5s1,0,1.34-.26A.88.88,0,0,0,16.65,6.34Z"/><path class="cls-4" d="M20.9,6.32a7.46,7.46,0,0,0-1.24.34,6.69,6.69,0,0,0-5.5.9c-.41.25-.79.51-1.14.77s-.66.53-1,.8l-.43.41c-.72.24-1,0-2,.14a1.75,1.75,0,0,0-1.24.58.1.1,0,0,0,0,.14c.09.08.23,0,.5,0a1.71,1.71,0,0,1,1,.16.84.84,0,0,1,.28.52l-.6.62a9.66,9.66,0,0,1-3,2.32,3.56,3.56,0,0,1-3.62-.41h0a4.85,4.85,0,0,0-1.69-.55,1.29,1.29,0,0,1-.69-.34c-.08-.07-.15-.19-.25-.16l-.06,0,.06,0a2.86,2.86,0,0,0,2.42,1.86,2.92,2.92,0,0,0,.78,0,4.35,4.35,0,0,1-.58-.67L3.1,14a3,3,0,0,0,1.69.91l.54,0a9,9,0,0,0,2.15-.41A13.14,13.14,0,0,0,11.78,12l-.16.69a7.06,7.06,0,0,1-.34,1.13s-.06.15-.15.33a3.13,3.13,0,0,0-.31.77V15a4.92,4.92,0,0,0,.64-.45A11.54,11.54,0,0,0,13,13c1.31-1.62,1.52-2.73,2.44-3.59a7.51,7.51,0,0,1,2-1.12h0c.89-.51,1.76-.9,1.9-1,.52-.21,2.35-.82,2.54-.52h0C21.72,6.42,21.31,6.28,20.9,6.32Zm-2,.76a4.67,4.67,0,0,1-.71.22l-.34.1h0A2.6,2.6,0,0,0,16.7,8s.13-.26.23-.4a1.37,1.37,0,0,1,.54-.48,1.73,1.73,0,0,1,.8-.14A4.73,4.73,0,0,0,19,7c.16,0,.23-.09.24-.07S19.18,7,18.89,7.08Z"/><path class="cls-2" d="M11.62,12.68a7.06,7.06,0,0,1-.34,1.13,13.62,13.62,0,0,1-2.9,1.11,6.76,6.76,0,0,1-3.56,0h0l.54,0a8.32,8.32,0,0,0,3-.52A15.82,15.82,0,0,0,11.62,12.68Z"/><path class="cls-1" d="M11.78,12l-.16.69a15.82,15.82,0,0,1-3.26,1.73,8.32,8.32,0,0,1-3,.52,9,9,0,0,0,2.15-.41A13.14,13.14,0,0,0,11.78,12Z"/><path class="cls-4" d="M17,11.1a11,11,0,0,1-.68,1.69,4,4,0,0,1-1,1.28s-.05-.07-.06-.12a8.49,8.49,0,0,0,.29-1.6c.26-.2.49-.38.7-.56S16.71,11.34,17,11.1Z"/><path class="cls-1" d="M4.94,13.38a.69.69,0,0,1,0,.2,1.26,1.26,0,0,1-.19.39,2.1,2.1,0,0,1-.16.2H4.41l-.16,0h0s.82-.59.59-.87C4.86,13.28,4.93,13.26,4.94,13.38Z"/><path class="cls-1" d="M21.7,7.13h0l-.15.15a4.58,4.58,0,0,1-.62.44,13,13,0,0,0-1.79,1.35l-1.8,1.69a10.52,10.52,0,0,1-.76,1.94A3.37,3.37,0,0,1,15.45,14s-.13.08-.21,0a4,4,0,0,0,1-1.28A11,11,0,0,0,17,11.1c-.26.24-.54.48-.8.69s-.44.36-.7.56c0,0-.56.41-.88.62h0c-.17.12-1,.63-1.48.89s-1.29.65-1.29.65h0a2.11,2.11,0,0,1-.91.54.12.12,0,0,1-.08-.09,4.92,4.92,0,0,0,.64-.45A11.54,11.54,0,0,0,13,13c1.31-1.62,1.52-2.73,2.44-3.59a7.51,7.51,0,0,1,2-1.12h0a8.72,8.72,0,0,0-1.61,1.12A14.28,14.28,0,0,0,14,12.07l0,0c2.58-1.95,4.57-4.21,6.62-4.94l.19-.06h0c.7-.24,1-.28,1-.15A.43.43,0,0,1,21.7,7.13Z"/><path class="cls-4" d="M4.25,14.15h0a4.87,4.87,0,0,1-1.32-.56.69.69,0,0,1,.53-.16,4.34,4.34,0,0,0,1.09,0c.18-.06.21-.14.29-.15h0C5.07,13.56,4.23,14.12,4.25,14.15Z"/><path class="cls-1" d="M9.61,9.68c1-.12,1.3.1,2-.14l.43-.41a2.65,2.65,0,0,1-.5.13c-.34.07-.58.05-1.27.14A3.46,3.46,0,0,0,8.54,10a.94.94,0,0,0-.12.14.29.29,0,0,0-.05.1A1.75,1.75,0,0,1,9.61,9.68Z"/><path class="cls-1" d="M11.13,14.14a3.13,3.13,0,0,0-.31.77v0a8.74,8.74,0,0,1-3,.61,8.81,8.81,0,0,1-4.08-.82h0a5.3,5.3,0,0,1-2-.34A2.79,2.79,0,0,1,.32,13.06c-.14-.31-.15-.41-.11-.45h0l0,0a2.86,2.86,0,0,0,2.42,1.86,2.92,2.92,0,0,0,.78,0,4.35,4.35,0,0,1-.58-.67L3.1,14a3,3,0,0,0,1.69.91h0a6.76,6.76,0,0,0,3.56,0,13.62,13.62,0,0,0,2.9-1.11S11.22,14,11.13,14.14Z"/><path class="cls-2" d="M22,6.82a.38.38,0,0,0,0-.13h0A.9.9,0,0,0,21,6.12h-.16a7.35,7.35,0,0,0-1.23.33,6.92,6.92,0,0,0-1.76-.23,6.65,6.65,0,0,0-.89.06h0l-.13,0A1,1,0,0,1,17,5.8a2.45,2.45,0,0,1,.15-.36s-1.34.7-1.51.48.58-2,.58-2S14.89,5.36,14.64,5.3s-.11-.55-.12-1.11c0-.76,0-1.63,0-1.63S13.47,5.21,13.21,5.2s-.55-1.43-.55-1.43S12.45,5,12.08,5.14,10.76,3,10.76,3s0,2.28-.31,2.33-1.1-.8-1.1-.8.39,1.14.26,1.29a5.47,5.47,0,0,1-1.74-1L7,4.17s.47.79.85,1.61A2.61,2.61,0,0,1,8.18,7c-.16.26-1.42-.11-1.42-.11s.72.69.67.86A3.94,3.94,0,0,1,6,7.68c-.76-.1-1.54-.25-1.54-.25S7,8.91,6.9,9.17s-1.64,0-1.64,0,1.37.63,1.37.84a13.67,13.67,0,0,1-2.69.89s2.43.5,2.47.78-1,1.14-1,1.14,1.17.1,1.22.26A1.13,1.13,0,0,1,6.1,14,3.4,3.4,0,0,1,5,14.16H4.82l.06-.08a1.52,1.52,0,0,0,.21-.45h0a.67.67,0,0,0,0-.24h0A.34.34,0,0,0,5,13.16a.23.23,0,0,0-.26-.05l-.23.11-.06,0a1,1,0,0,1-.33,0l-.61,0H3.39a.89.89,0,0,0-.52.15l-.05,0a5.33,5.33,0,0,0-1.49-.45H1.25a1.35,1.35,0,0,1-.66-.35.42.42,0,0,0-.14-.12.34.34,0,0,0-.27,0,.28.28,0,0,0-.14.12c-.09.15,0,.36.11.61a2.9,2.9,0,0,0,1.48,1.41,3.93,3.93,0,0,0,1.22.31,6.23,6.23,0,0,0,.82.05,8.38,8.38,0,0,0,1.06.41,9.06,9.06,0,0,0,2.66.42s.39,0,.6,0a2.45,2.45,0,0,1-.32.77c-.21.44-.49.95-.49.95s.5-.44,1-.77,1-.6,1.12-.44,0,1.48,0,1.48.95-.84,1.17-.73a3.61,3.61,0,0,1,.11,1.34c0,.79,0,1.62,0,1.62s1.31-2.65,1.58-2.57.57,1.28.57,1.28.5-1.47.8-1.43c.13,0,.39.46.62.94s.47,1.06.47,1.06,0-.55,0-1.1.1-1,.21-1,.91.85.91.85-.24-1.26-.05-1.37a15.43,15.43,0,0,1,2.44,1.84s-1.48-2.74-1.3-3,1.76.22,1.76.22a7.27,7.27,0,0,1-.43-.59c-.22-.33-.39-.69-.31-.78a5.28,5.28,0,0,1,1.75.17l1.62.32s-.58-.31-1.43-.82a5,5,0,0,1-1.36-1,7.34,7.34,0,0,1,1.82-.34l-.61-.37c-.35-.21-.71-.47-.71-.57a2.41,2.41,0,0,1,1-.47c.7-.21,1.34-.36,1.34-.36s-2.4-.19-2.55-.53.09-.54.23-.74a2,2,0,0,1,.33-.37A12.61,12.61,0,0,1,21,7.88l0,0,.68-.5A.7.7,0,0,0,22,7,.73.73,0,0,0,22,6.82Zm-15.18,6a4.63,4.63,0,0,0-1-.13s.89-.6.87-1-1.44-.66-2-.78c.5-.11,2.11-.47,2.18-.79s-.5-.56-.74-.67c.27,0,1,.12,1-.22s-1.58-1.37-2-1.51A8.68,8.68,0,0,0,7.51,8c.44-.1-.07-.69-.15-.76.13.07.86.22,1.07-.13s-.5-1.74-.9-2.33c.35.36,2,1.51,2.22,1.31s.05-.83-.08-1c.26.25.52.58.85.57.17,0,.38-.55.41-1.8.23.7.76,1.65,1.16,1.59s.53-.64.58-.89c.05.26.25,1,.52,1s.94-1.39,1.16-2c0,.32-.2,2,.15,2.11s.92-.56,1.25-1c-.2.38-.59,1.29-.36,1.5s1,0,1.34-.26a.88.88,0,0,0-.08.48,6.4,6.4,0,0,0-1.1.32,5.41,5.41,0,0,0-8,6.56,5.25,5.25,0,0,1-.91.55C6.88,13.5,7.07,13,6.82,12.86Zm-3.36.57a4.34,4.34,0,0,0,1.09,0c.18-.06.21-.14.29-.15h0s.09,0,.1.1a.69.69,0,0,1,0,.2,1.26,1.26,0,0,1-.19.39,2.1,2.1,0,0,1-.16.2H4.41l-.16,0a4.87,4.87,0,0,1-1.32-.56A.69.69,0,0,1,3.46,13.43Zm16.83-2.51c-.7.09-1.93.6-1.69.87a4.51,4.51,0,0,0,1,.7c-.32,0-1.38.11-1.5.41s1.54,1.31,2.15,1.55c-.76-.21-2.56-.57-2.68-.32A1.54,1.54,0,0,0,18,15.34c-.21-.06-1.29-.37-1.47,0s.87,2.07,1,2.38c-.49-.49-1.83-1.58-2-1.46s-.14.74-.09,1c-.19-.22-.51-.58-.78-.47s-.24,1.15-.26,1.59c-.22-.52-.59-1.57-.93-1.53s-.73.75-.8,1c0-.28-.27-.88-.61-.88s-1.13,1.59-1.36,2.11a8.89,8.89,0,0,0-.12-2.45c-.21-.1-.93.35-1.09.55.06-.26.11-1.13-.08-1.23s-.74-.14-1.73.77a4.51,4.51,0,0,0,.5-1.1,8.3,8.3,0,0,0,1.22-.15A5.41,5.41,0,0,0,18,11.18c0-.23,0-.46,0-.69l.57-.54a.8.8,0,0,0-.06.36C18.48,10.77,19.66,10.87,20.29,10.92ZM21.8,6.76c-.19-.3-2,.31-2.54.52-.14.06-1,.45-1.9,1a8.72,8.72,0,0,0-1.61,1.12A14.28,14.28,0,0,0,14,12.07l0,0c2.58-1.95,4.57-4.21,6.62-4.94l.19-.06h0c.7-.24,1-.28,1-.15a.43.43,0,0,1-.05.18l-.15.15a4.58,4.58,0,0,1-.62.44,13,13,0,0,0-1.79,1.35l-1.8,1.69a10.52,10.52,0,0,1-.76,1.94A3.37,3.37,0,0,1,15.45,14s-.13.08-.21,0-.05-.07-.06-.12a8.49,8.49,0,0,0,.29-1.6s-.56.41-.88.62c-.17.12-1,.63-1.48.89s-1.29.65-1.29.65a2.11,2.11,0,0,1-.91.54.12.12,0,0,1-.08-.09v0a8.74,8.74,0,0,1-3,.61,8.81,8.81,0,0,1-4.08-.82h0a5.3,5.3,0,0,1-2-.34A2.79,2.79,0,0,1,.32,13.06c-.14-.31-.15-.41-.11-.45l.06,0c.1,0,.17.09.25.16a1.29,1.29,0,0,0,.69.34,4.85,4.85,0,0,1,1.69.55A3.56,3.56,0,0,0,6.52,14a9.66,9.66,0,0,0,3-2.32l.6-.62a.84.84,0,0,0-.28-.52,1.71,1.71,0,0,0-1-.16c-.27,0-.41.06-.5,0s0-.06,0-.1a.28.28,0,0,1,0-.12l0,0A.94.94,0,0,1,8.54,10a3.46,3.46,0,0,1,1.75-.62c.69-.09.93-.07,1.27-.14a2.65,2.65,0,0,0,.5-.13c.3-.27.62-.53,1-.8s.73-.52,1.14-.77a6.69,6.69,0,0,1,5.5-.9,7.46,7.46,0,0,1,1.24-.34C21.31,6.28,21.72,6.42,21.8,6.76Z"/></svg>