<svg id="Layer_1" data-name="Layer 1" xmlns="http://www.w3.org/2000/svg" xmlns:xlink="http://www.w3.org/1999/xlink" viewBox="0 0 22 22"><defs><style>.cls-1,.cls-5{fill:none;}.cls-2{clip-path:url(#clip-path);}.cls-3{fill:#fff;}.cls-4{fill:#004c54;}.cls-5{stroke:#fff;stroke-width:0.11px;}.cls-6{fill:#a5acaf;}</style><clipPath id="clip-path"><rect class="cls-1" x="-5.58" y="-3.9" width="33.17" height="30.78"/></clipPath></defs><g class="cls-2"><g class="cls-2"><path class="cls-3" d="M12.78,5.63l-1,1c1.71-.67,5.46-1.8,5.46-1.8L16,5.94c3.27-.9,5.76-1.33,5.76-1.33A23.48,23.48,0,0,1,20,7.73l1.57-.17a21.91,21.91,0,0,1-2.64,3.24l.79.18a19.79,19.79,0,0,1-2.86,3c-2.34,1.93-3.54,1.64-3.54,1.64a3.47,3.47,0,0,1-3.13.57s.6-1.41,0-1.56a2,2,0,0,0-1.52.44,6.48,6.48,0,0,1-1.06,1.8A6,6,0,0,1,5.6,18.35a2.39,2.39,0,0,1-.81-1.73,3.06,3.06,0,0,1-1.45.73A3,3,0,0,1,1,16.69c-.59-.46-.7-2-.7-2a7.44,7.44,0,0,1,1.63-1.85,1.33,1.33,0,0,1-.43-.57C4.31,11.1,4.32,10,6.58,8.66a47,47,0,0,1,6.2-3"/><path class="cls-4" d="M11.39,6.56l-.89.87C12.27,6.71,16,5.53,16,5.53l-1.09,1A55.42,55.42,0,0,1,21.18,5a20.58,20.58,0,0,1-1.85,3l1.58-.17A17.2,17.2,0,0,1,18.27,11c.17,0,.89.18.89.18a15.62,15.62,0,0,1-2.61,2.65c-2.11,1.72-3,1.51-3,1.51a.46.46,0,0,0,0-.17.63.63,0,0,0,0-.11,3.17,3.17,0,0,1-3,.94s.6-1.35-.32-1.62a2,2,0,0,0-1.9.62,6.32,6.32,0,0,1-1,1.7A5.61,5.61,0,0,1,5.67,18s-.78-.56-.51-2.2a.72.72,0,0,0-.06-.56C5,15,4,15.24,3.72,15.76c-.17.37.83.68.83.68a2.54,2.54,0,0,1-3.38,0c-.49-.39-.59-1.72-.59-1.72a7.44,7.44,0,0,1,1.77-1.91,1.36,1.36,0,0,1-.45-.47c2.36-.94,2.69-2.28,5.35-3.77a40,40,0,0,1,4.14-2"/><path d="M17.67,11.17a4.54,4.54,0,0,1,.7.17c-.81,1.22-3.24,3.62-4.59,3.71a1,1,0,0,0-.21-.51,3.24,3.24,0,0,1-2.71,1.25c.79-2.66-2.54-1.64-2.79-.91a5.49,5.49,0,0,1-2.34,2.79,2.17,2.17,0,0,1-.31-1.85c.17-.94-.47-.91-.47-.91-.26,0-1.23.1-1.53.73s.61.86.61.86a2.22,2.22,0,0,1-2.69-.22C1,16,.85,14.81.85,14.81a7.41,7.41,0,0,1,2-2,1.06,1.06,0,0,1-.52-.34c1.94-.83,2.7-2.2,4.35-3.22A22.91,22.91,0,0,1,9.88,7.58l-.52.61S9.8,8,10,7.93a44.56,44.56,0,0,1,4.67-1.65l-.92.82s1.52-.48,3.44-.86l3.14-.62a11.57,11.57,0,0,1-1.56,2.75l1.33-.08a11.66,11.66,0,0,1-2.42,2.88"/><path d="M9.78,9.32l-.06,0,0,0h0"/><polyline points="9.71 9.35 9.72 9.34 9.71 9.35"/><path class="cls-3" d="M12,12.53a3.68,3.68,0,0,0-2.39,0,7.49,7.49,0,0,1,4.57-.64,6.87,6.87,0,0,0-4,0c-.51.19-.82.34-.82.34s.13-.09.37-.22a11.36,11.36,0,0,1,2.23-1.16,10.27,10.27,0,0,1,2.15-.52,6.85,6.85,0,0,0-2.25.07,12,12,0,0,1,3.35-.65c.55,0,1.81.05,1.81.05a13.27,13.27,0,0,0-5-.42c-.73.17-1.31.34-1.31.34a2.85,2.85,0,0,1,.3-.12A17.89,17.89,0,0,1,16.88,7.9s-.45-.05-1-.05A15,15,0,0,0,14.19,8a15.9,15.9,0,0,1,4.21-.84,17.9,17.9,0,0,0-6.35.7H12l.79-.5.74-.48a25.66,25.66,0,0,0-4.2,1.46c-.68.3-1,.48-1,.48s.59-.51.71-.65a10.12,10.12,0,0,0-3.52,2.41,6.38,6.38,0,0,1-2.35,1.82,2.61,2.61,0,0,0,2.14-.24,3.1,3.1,0,0,0,.53-.44c.38-.41.25-.83.76-1.13a1.55,1.55,0,0,0-.2.56,4.28,4.28,0,0,1,1.26-1,7.34,7.34,0,0,1,2.26-.88l-.11,0C7.92,10,7.61,11,7.6,11.07s.68-.26,1.24-.32A2.32,2.32,0,0,0,7.49,12c-.11.23-.14.5-.43.7a1.17,1.17,0,0,1-.34.2.85.85,0,0,1-.75,0,.34.34,0,0,1-.09-.09.92.92,0,0,0,.68-.13.88.88,0,0,0,.37-.37h0a.37.37,0,0,0,0-.39.33.33,0,0,0-.29-.16,1.33,1.33,0,0,1,.28-.4,2.59,2.59,0,0,0-.55.5.44.44,0,0,1,.31.17.46.46,0,0,1-.26.62.56.56,0,0,1-.72-.08l0-.08,0,0-.26.1a.78.78,0,0,0,.26,0c0,.27.2.71,1.24.46a1.52,1.52,0,0,1-1.44,0,1.74,1.74,0,0,0,.2.13,3.44,3.44,0,0,0,3.17-.15A1.71,1.71,0,0,1,9.08,13a2.93,2.93,0,0,0-.64.79A4.23,4.23,0,0,1,12,12.53"/><path class="cls-5" d="M12,12.53a3.68,3.68,0,0,0-2.39,0,7.49,7.49,0,0,1,4.57-.64,6.87,6.87,0,0,0-4,0c-.51.19-.82.34-.82.34s.13-.09.37-.22a11.36,11.36,0,0,1,2.23-1.16,10.27,10.27,0,0,1,2.15-.52,6.85,6.85,0,0,0-2.25.07,12,12,0,0,1,3.35-.65c.55,0,1.81.05,1.81.05a13.27,13.27,0,0,0-5-.42c-.73.17-1.31.34-1.31.34a2.85,2.85,0,0,1,.3-.12A17.89,17.89,0,0,1,16.88,7.9s-.45-.05-1-.05A15,15,0,0,0,14.19,8a15.9,15.9,0,0,1,4.21-.84,17.9,17.9,0,0,0-6.35.7H12l.79-.5.74-.48a25.66,25.66,0,0,0-4.2,1.46c-.68.3-1,.48-1,.48s.59-.51.71-.65a10.12,10.12,0,0,0-3.52,2.41,6.38,6.38,0,0,1-2.35,1.82,2.61,2.61,0,0,0,2.14-.24,3.1,3.1,0,0,0,.53-.44c.38-.41.25-.83.76-1.13a1.55,1.55,0,0,0-.2.56,4.28,4.28,0,0,1,1.26-1,7.34,7.34,0,0,1,2.26-.88l-.11,0C7.92,10,7.61,11,7.6,11.07s.68-.26,1.24-.32A2.32,2.32,0,0,0,7.49,12c-.11.23-.14.5-.43.7a1.17,1.17,0,0,1-.34.2.85.85,0,0,1-.75,0,.34.34,0,0,1-.09-.09.92.92,0,0,0,.68-.13.88.88,0,0,0,.37-.37h0a.37.37,0,0,0,0-.39.33.33,0,0,0-.29-.16,1.33,1.33,0,0,1,.28-.4,2.59,2.59,0,0,0-.55.5.44.44,0,0,1,.31.17.46.46,0,0,1-.26.62.56.56,0,0,1-.72-.08l0-.08,0,0-.26.1a.78.78,0,0,0,.26,0c0,.27.2.71,1.24.46a1.52,1.52,0,0,1-1.44,0,1.74,1.74,0,0,0,.2.13,3.44,3.44,0,0,0,3.17-.15A1.71,1.71,0,0,1,9.08,13a2.93,2.93,0,0,0-.64.79A4.23,4.23,0,0,1,12,12.53"/><path class="cls-6" d="M7.24,11.35c0,.17.39,0,.39,0a2.49,2.49,0,0,0-.64.73.47.47,0,0,1,0,.21.25.25,0,0,0,.12,0,.77.77,0,0,0,.26-.09.65.65,0,0,1-.26.45c.29-.2.32-.47.43-.7a2.32,2.32,0,0,1,1.35-1.2c-.56.06-1.26.54-1.24.32s.32-1,2.17-1.75l-.06,0c-1.71.58-2.6,1.52-2.47,2"/><path class="cls-4" d="M6.53,12.07c.09.13,0,.33-.19.44a.4.4,0,0,1-.52,0l0-.06-.11.06,0,.08a.56.56,0,0,0,.72.08A.46.46,0,0,0,6.69,12a.44.44,0,0,0-.31-.17l-.1.12a.28.28,0,0,1,.25.12"/><path d="M6.34,12.51c.19-.11.28-.31.19-.44A.28.28,0,0,0,6.28,12L6,12.23a.26.26,0,0,0,.12.24.38.38,0,0,1-.2,0,.23.23,0,0,1-.07-.08l-.07.05,0,.06a.4.4,0,0,0,.52,0"/><path class="cls-3" d="M5.93,12.43a.38.38,0,0,0,.2,0A.26.26,0,0,1,6,12.23l-.15.12a.23.23,0,0,0,.07.08"/><path class="cls-6" d="M17,9.83s-1.26-.06-1.81-.05a12,12,0,0,0-3.35.65,6.85,6.85,0,0,1,2.25-.07,10.27,10.27,0,0,0-2.15.52A11.36,11.36,0,0,0,9.69,12,10.77,10.77,0,0,1,16.83,11a7.18,7.18,0,0,0,.83-.78,3.06,3.06,0,0,0,.77-1,25.55,25.55,0,0,0-5.06,0c-.46.06-.95.16-1.39.26a13.27,13.27,0,0,1,5,.42"/><path class="cls-6" d="M10.21,13.06c2.4-.55,4.06.12,4.26.82h0a3.7,3.7,0,0,0,1-.71,5,5,0,0,0,1.1-1.26,8.87,8.87,0,0,0-6.49,0,6.87,6.87,0,0,1,4,0,7.49,7.49,0,0,0-4.57.64,3.6,3.6,0,0,1,2.39,0,4.23,4.23,0,0,0-3.55,1.21c0,.07-.07.13-.1.21a3.81,3.81,0,0,1,1.87-.89"/><path class="cls-6" d="M18.4,7.19A15.9,15.9,0,0,0,14.19,8a15,15,0,0,1,1.69-.18c.55,0,1,.05,1,.05A18.28,18.28,0,0,0,11,9.62a16.8,16.8,0,0,1,2.95-.81c1.37-.25,3-.31,3.62-.37a5,5,0,0,0,1.28-1.87s-1.6.12-3.42.44a16.94,16.94,0,0,0-3.35.88,17.9,17.9,0,0,1,6.35-.7"/><path class="cls-6" d="M8.86,14a2.32,2.32,0,0,1,1.63-.27C12,13.91,12,14.8,12,14.8A2.41,2.41,0,0,0,13,14a2.58,2.58,0,0,0-1.2-.51,3.57,3.57,0,0,0-2.93.5"/><path class="cls-6" d="M4.08,13.6c-.15,0-.48.08-.32-.13l.45-.23a.91.91,0,0,0,.54.18Zm.63-.67a2.53,2.53,0,0,1-1.16,0,5.44,5.44,0,0,0-2.17,1.79,3,3,0,0,0,.25,1.14,1.77,1.77,0,0,0,1.91.64s-1.84-.76.12-1.86a5.7,5.7,0,0,1,3.4-.31c.09,0,.2.1.19.12C7.14,15,6.71,16.32,6,16.71c-.4-.54.65-1.78-.42-1.83a1.21,1.21,0,0,1,.15.9,2.14,2.14,0,0,0,.08,1.46,4.83,4.83,0,0,0,2.11-3,2.34,2.34,0,0,1,.21-.53,3.13,3.13,0,0,1-3.41-.78"/><path d="M3.76,13.47c-.16.21.17.17.32.13l.67-.18a.91.91,0,0,1-.54-.18l-.45.23"/></g></g></svg>