<svg id="Layer_1" data-name="Layer 1" xmlns="http://www.w3.org/2000/svg" viewBox="0 0 22 22"><defs><style>.cls-1{fill:#a5acaf;}.cls-2{fill:#fff;}.cls-3{fill:#a71930;}</style></defs><g id="layer1"><g id="g8"><path id="path10" class="cls-1" d="M20.42,9.47A1.91,1.91,0,0,0,22,8.05c.24-1.22-.6-2.2-2.09-2.88A49.1,49.1,0,0,0,9.62,2c-3-.66-3.78-.87-3.78-.87L0,7.38l5-.16a11.49,11.49,0,0,0-1.38,6.66C3.9,18,5.67,20.09,7.06,21a7.53,7.53,0,0,0,2.24.91,3.13,3.13,0,0,1-.47-2.13,6.57,6.57,0,0,1,1-2.45c.35-.63,2.64-5.12,2.64-5.12s.83,0,1.18,0,.59.2.59.39a1,1,0,0,1-.23.48,7.18,7.18,0,0,0,2.72-.52,3.94,3.94,0,0,0,2-1.57,10.92,10.92,0,0,0-1.46-1.46c-.79-.63-1.42-1-1.42-1H19.4a1.89,1.89,0,0,1,.9.2C20.54,9,20.42,9.47,20.42,9.47Z"/></g><g id="g12"><path id="path14" class="cls-2" d="M20.8,9a1.28,1.28,0,0,0,.84-1,1.88,1.88,0,0,0-.57-1.56A9.86,9.86,0,0,0,18,4.78,72.44,72.44,0,0,0,10,2.71,31.54,31.54,0,0,0,6.23,2L1.93,6.65l4.44,0a11.72,11.72,0,0,0-2,6.7C4.14,20,8.67,21.45,8.67,21.45a3.05,3.05,0,0,1-.31-1.69,6.77,6.77,0,0,1,.94-2.41c.44-.78,2.8-5.48,2.8-5.48h1.66a1.21,1.21,0,0,1,.87.38.43.43,0,0,1,.08.39,5,5,0,0,0,1.91-.25,4.83,4.83,0,0,0,1.71-1.25,9.31,9.31,0,0,0-1.95-1.67c-1.16-.73-2.15-1.22-2.15-1.22h5.5a2,2,0,0,1,.87.17A.87.87,0,0,1,20.8,9Z"/></g><g id="g16"><path id="path18" d="M21,8.48a.86.86,0,0,0,.36-.79,1.89,1.89,0,0,0-.79-1.24,8.74,8.74,0,0,0-2.39-1.14C17,4.9,14.29,4.25,12,3.77S6,2.69,6,2.69l.34.49L3.86,5.82l8.76.69-.08.1H6.68L7.12,7l-1,1.68,4.93-1L11,7.83,5.2,9.78l.5.32a3.8,3.8,0,0,0-.3,1c-.12.71-.2,1.38-.2,1.38l4.93-3,0,.12L4.67,14l.51.14a12.27,12.27,0,0,0,.12,1.48c.1.55.26,1.18.26,1.18L10,11.52v.18L5.62,18.16h.43a5.52,5.52,0,0,0,.79,1.4A7.28,7.28,0,0,0,8.2,20.84,3.21,3.21,0,0,1,8,19.19a9.88,9.88,0,0,1,1.07-2.41c.31-.63,4.33-8.57,4.33-8.57l-.76-.42h7.47A1.65,1.65,0,0,1,20.8,8,.72.72,0,0,1,21,8.48Z"/></g><g id="g20"><path id="path22" class="cls-2" d="M21.09,8A1,1,0,0,0,21,7.3a1.65,1.65,0,0,0-.57-.53l.08.39-2.05.26-.08.12h2a1,1,0,0,1,.44.15A.7.7,0,0,1,21.09,8Z"/></g><g id="g24"><path id="path26" class="cls-2" d="M20.13,7a2.3,2.3,0,0,0-.57-.52c-.36-.21-1-.51-1-.51a8.55,8.55,0,0,1,.65.62,2,2,0,0,1,.28.39Z"/></g><g id="g28"><path id="path30" class="cls-3" d="M17.78,6.3S15.15,5.58,12.1,5s-5.3-.94-5.3-.94l-.69.81L17.76,6.43Z"/></g><g id="g32"><path id="path34" class="cls-3" d="M10.7,7.18l-3.15.06L7.15,8l3.51-.67Z"/></g><g id="g36"><path id="path38" class="cls-3" d="M9.63,9,6.21,10.26l-.23.9,3.59-2Z"/></g><g id="g40"><path id="path42" class="cls-3" d="M9.15,11.33,5.83,14.14s0,.37,0,.54.08.4.08.4l3.22-3.59Z"/></g><g id="g44"><path id="path46" class="cls-3" d="M9.75,13.59S8.79,15,8.14,16s-1.29,2-1.29,2,.15.29.25.45.25.35.25.35l2.47-5.07Z"/></g><g id="g48"><path id="path50" d="M13.7,8.37a28.38,28.38,0,0,1,2.68,1.48A10.18,10.18,0,0,1,18,11.16a2.5,2.5,0,0,1-.67.61,2.86,2.86,0,0,1-1,.38s.38-.33.41-.5,0-.21-.14-.21H15.5a.48.48,0,0,0-.16.39.87.87,0,0,0,.13.44,1.06,1.06,0,0,1-.59-.34.84.84,0,0,1-.24-.49H12.39L13.8,8.67Z"/></g><g id="g52"><path id="path54" class="cls-3" d="M13.46,10.56,16,11l-.06.12H13.19Z"/></g></g></svg>