<svg id="Layer_1" data-name="Layer 1" xmlns="http://www.w3.org/2000/svg" viewBox="0 0 22 22"><defs><style>.cls-1{fill:#fff;}.cls-2{fill:#d7a22a;}.cls-3{fill:#9f792c;}.cls-4{fill:#00839c;}</style></defs><path d="M21.11,10.79h0c-.06,0-.19,0-.17-.1s.09-.1.13-.12a2.35,2.35,0,0,0,.39-.19l.13-.1s.06,0,.06-.07a1.18,1.18,0,0,0-.1-.36.33.33,0,0,1-.07.13.49.49,0,0,1-.2.21c-.05,0-.14.05-.19,0s.08-.16.08-.16a.75.75,0,0,0,.28-.34.93.93,0,0,0-.19-.23,2,2,0,0,1-.92,1,3.59,3.59,0,0,0-1.21.83,1.34,1.34,0,0,0-.11.14h0a1.68,1.68,0,0,1,1.13.51l0,0h0a2.26,2.26,0,0,0,1.15-.6h-.05c-.1,0-.5,0-.4-.19s.15,0,.21,0h.31c.14,0,.17-.14.2-.26a1.32,1.32,0,0,0,.07-.32A1,1,0,0,1,21.11,10.79Zm-1.51,1.1a.66.66,0,0,0-.44.13.2.2,0,0,0-.13-.1.62.62,0,0,0-.47.13c0-.15-.19-.11-.2-.11a2.14,2.14,0,0,0-.48.18c-.23.08-.53.17-.86.25a2.76,2.76,0,0,1,0,.61,2.44,2.44,0,0,0,.83-.83,1.88,1.88,0,0,0,.19.43,3.23,3.23,0,0,0,.47-.38,1,1,0,0,1,.06.43,1.31,1.31,0,0,0,.44-.26,4.3,4.3,0,0,1-.47,1.17,3.51,3.51,0,0,0,1.27-1.24A.3.3,0,0,0,19.6,11.89Zm-3.82.65a2,2,0,0,1-.58,1.38A3.05,3.05,0,0,0,17,12.48l0-.1A5.59,5.59,0,0,1,15.78,12.54Zm1,2.29a8,8,0,0,1-.94,1.24,1.13,1.13,0,0,0-.15-.26,2,2,0,0,0-.42.37s-.07-.11-.07-.12a1.27,1.27,0,0,0-.13-.19,1,1,0,0,0-.38.35,2.35,2.35,0,0,0,.14-.37,2,2,0,0,0,0-.24,2,2,0,0,0-.1-.83A4.66,4.66,0,0,1,14,16c-.38.4-.59.5-.61.56s0,.26.42.2a1.44,1.44,0,0,0,.77-.4,4.39,4.39,0,0,1,1.15,0,.5.5,0,0,0,.37.15C16.34,16.46,16.79,15.62,16.76,14.83Zm-3.09-2.54a1.68,1.68,0,0,0-1.28-1s.82.33.85,2.71a2,2,0,0,0,.25,1.14c-.42-.22-.53-1-.56-1.67,0-.32-.15-1.89-1.35-2.27a1.42,1.42,0,0,0-1.08,0,1.53,1.53,0,0,1,.88.71c.48.87.14,2.41.49,3.23a2.36,2.36,0,0,0,1.25,1.28,2.54,2.54,0,0,0,1.29-1.45C13.5,14.45,13.94,13.15,13.67,12.29Zm1.38,2.93,0,.41.28.19C15.45,15.49,15.05,15.22,15.05,15.22Zm3-5.64a.86.86,0,0,0-.44.09,2,2,0,0,1,1,.23c.27.23.2.41.2.41a5.89,5.89,0,0,1,.33.6s.5-.46.53-.78A5.83,5.83,0,0,0,18.06,9.58Zm2.19-1s-.31.39-.46.27.08-.28,0-.58a6.27,6.27,0,0,0-2.32-2.1s.59.24,1.15.54h0l.38.21a3.46,3.46,0,0,1,.43.31.62.62,0,0,0,.1-.61l0,0h0l-.08-.12-.1,0a1.71,1.71,0,0,1-.21-.07L19,6.12a.19.19,0,0,0,0,.12.44.44,0,0,0-.18-.1.87.87,0,0,1-.22-.08L18.54,6a.26.26,0,0,0,0,.07.12.12,0,0,1-.1-.1.13.13,0,0,1,.06-.13.11.11,0,0,1,0-.06.69.69,0,0,0,.12.11.34.34,0,0,0,0-.15l0,0-.08,0s-1.33-.75-1.95-1.06l-.18,0s-.1,0-.12-.1a.07.07,0,0,0,0,.06.74.74,0,0,1,.1.16l-.19-.11a1.73,1.73,0,0,1-.32-.14l0,0h0a.05.05,0,0,1,0,0h0v0h0l.12.08h0v0a.48.48,0,0,1-.08-.12,7.78,7.78,0,0,0-1.93-.68,4.92,4.92,0,0,0-2,0,2.91,2.91,0,0,1,.72.18.24.24,0,0,0,.1-.05.26.26,0,0,1,.15-.06s.16.15.16.15l0-.22a.92.92,0,0,1,.17,0l.16,0s0,0,0,0,.05,0,.05.07.1.07.1.13a.6.6,0,0,0,0,.19s0,0-.07,0a.21.21,0,0,1-.13.06h-.08c.23.1.48.23.76.38l.06,0a.37.37,0,0,1,0-.11l0,0a.23.23,0,0,0,0-.09.43.43,0,0,1,.14-.07h.11a.24.24,0,0,0,0-.11.35.35,0,0,1,.13.14V4.08a.55.55,0,0,1,.19,0,.26.26,0,0,1,.15.08s.07.12,0,.15-.08,0-.09.05,0,0,0,.06l-.05,0a.28.28,0,0,0,0,.12.1.1,0,0,1-.06-.06.1.1,0,0,1,0,.08s-.05.06-.08.06a.38.38,0,0,1-.08-.09s0,.16,0,.13l-.18-.15h-.09A.37.37,0,0,1,14,4.47s0,0,.05.07l-.06,0a.26.26,0,0,1-.08.05l.07.07a.33.33,0,0,1-.13-.06l-.12,0a.22.22,0,0,0-.14,0,.15.15,0,0,1-.1,0l-.15-.06a.29.29,0,0,0,0,.06s0,0-.1,0-.09,0-.13-.07-.07-.07-.06-.1a.1.1,0,0,1,0-.06l.07,0s-.08-.1-.08-.14h.06s0,0,.14-.08l.1,0a12.68,12.68,0,0,0-1.37-.35l0,0s0,0,0,0A.3.3,0,0,1,12,4s-.26-.08-.34-.12a1.82,1.82,0,0,0,.22.16s-.08.13-.35.1a.54.54,0,0,1-.22,0A.49.49,0,0,1,11,4a.17.17,0,0,1,.08-.22L11.3,4s-.13-.16-.12-.21a.42.42,0,0,1,.1-.07l-.19,0a8.41,8.41,0,0,0-1.56,0s0,.1.06.15a.07.07,0,0,1,0,.1.91.91,0,0,0-.2-.1.92.92,0,0,1,.12.13.49.49,0,0,1-.25.05A.78.78,0,0,0,9,4c-.07,0-.12-.09-.18-.14l0,0h0v0h0v0l0,.06.1.15h0l0,.06v0H9l-.08,0h0l-.1-.06h0s-.06,0-.08,0H8.48a.74.74,0,0,1-.35-.2.19.19,0,0,1,0-.11l-.3.07-1.73.39a.54.54,0,0,1,0,.15.17.17,0,0,0,0,.1,1,1,0,0,1-.25-.06A.53.53,0,0,0,6,4.6s0,.08-.08.1a.27.27,0,0,1-.18,0c-.07,0-.14,0-.23,0a.6.6,0,0,1-.22-.06.28.28,0,0,0,.19-.06c-.14,0-.18-.06-.2-.09a.18.18,0,0,0-.07-.08l-1,.23-.68.09-.33,0c-.61,0-1.22,0-1.82.06H1.07l.15,0,.2.06c.22.07.44.14.66.23l.32.13.33.15s.17,0,.17,0l0,0a.11.11,0,0,0,.08,0H3l.05,0a.28.28,0,0,1,.12,0s.11-.07.11-.07l0,0a.66.66,0,0,1,.14,0h0a0,0,0,0,0,0,0,.2.2,0,0,0-.08,0,.05.05,0,0,1,0,0h0a.22.22,0,0,1-.1,0h.07l0,0,.07,0a.14.14,0,0,1,.1,0,.16.16,0,0,0,.09,0h.15l-.09,0a.11.11,0,0,1,.07,0c.09.06,0,.13-.08.16a.24.24,0,0,0-.14,0s.11,0,.11,0-.06,0-.11.06a.17.17,0,0,0-.1.07.08.08,0,0,1,.05,0H3.4s0,.08-.06.1a.28.28,0,0,1-.1.06.56.56,0,0,0,.15,0l-.17,0,.21.13h0L3.65,6a3.93,3.93,0,0,0,.68.34l.21.07.25.07.22,0a1.91,1.91,0,0,0,.41,0,3,3,0,0,0,.42,0L6.3,6.4l.08,0A4.14,4.14,0,0,0,7,6.12L7.15,6h0a6.44,6.44,0,0,1-.55.42l-.12.07-.2.11-.17.08L6,6.75H6A3.64,3.64,0,0,1,4.84,7,7.31,7.31,0,0,1,3.45,7a3.49,3.49,0,0,1-1.32-.4,4.36,4.36,0,0,0,1.4.08C3.24,6.46,3,6.23,2.67,6A3.64,3.64,0,0,0,.38,5.32a.84.84,0,0,1,.44.3c0,.24.26.77.72,1.18A3.2,3.2,0,0,0,1.81,7H1.46a5.31,5.31,0,0,0,.9.37A2.86,2.86,0,0,1,2,7.48a3.16,3.16,0,0,0,1.37.3,3.21,3.21,0,0,0,1.41-.25h0l0,0a2.43,2.43,0,0,1-1,.49,3.71,3.71,0,0,1-.58.11H3.12l0,0A2.37,2.37,0,0,0,3,9.1a4.26,4.26,0,0,0,.06.5h0l.07-.07a.54.54,0,0,1,.25-.09h0a.25.25,0,0,0-.12,0h0a.77.77,0,0,1,.3,0h0a.21.21,0,0,1,.14.1h0v0h0v0h0v0a.24.24,0,0,1,0,.08,1.43,1.43,0,0,0-.1.29s-.14.13-.18.16h0l.12,0h.06a1.22,1.22,0,0,0,.17.24.46.46,0,0,1,.16.28H4l0,0,0,0h0a1.05,1.05,0,0,1-.31.3.52.52,0,0,0,.21,0H4a.77.77,0,0,1-.23.51,2.52,2.52,0,0,0,.3.39h0l0,0v0l.11-.09.18-.13.19-.11h0a.13.13,0,0,0,0,.06,1.06,1.06,0,0,1,.13-.11.81.81,0,0,0-.11.28.32.32,0,0,0,.16.3c.19.1.47.18.55.24a2.3,2.3,0,0,1,.22-.14,1,1,0,0,0-.24.35,1.15,1.15,0,0,1,.17-.13.62.62,0,0,0,.29.12c.1,0,.25,0,.32-.14a1.3,1.3,0,0,1,.08-.21A.93.93,0,0,0,6,12.2.46.46,0,0,1,6.21,12a.83.83,0,0,1,.2-.13s.34-.44,0-.65l.3-.16-.42.11a2.3,2.3,0,0,0-.35,0,1.91,1.91,0,0,1-.43,0L5.26,11a.38.38,0,0,1,.11-.05.42.42,0,0,0-.35.19H5a.27.27,0,0,1,.06-.17.61.61,0,0,0-.18.13h0l-.13,0-.21,0a.58.58,0,0,0-.14,0,4.83,4.83,0,0,1,1.19-.57l.44-.13a.58.58,0,0,0,.11.1l.3-.09a2.6,2.6,0,0,1-.36.21l.32,0,0,.08a.45.45,0,0,0,.34,0c.24,0,.4-.08.4-.21a.81.81,0,0,1,0-.31A.39.39,0,0,1,7,10a.6.6,0,0,0,.19-.17.56.56,0,0,0,0-.16h0l.59-.05-.08-.08a2,2,0,0,0-.72-.37,12.26,12.26,0,0,1,1.48-.1c.28,0,.56,0,.84,0A.84.84,0,0,0,9,9a2.9,2.9,0,0,1,.51,0,4.19,4.19,0,0,0-.46-.16l-.32-.09h0c.39.05.8.11,1.25.19a23.1,23.1,0,0,1,5.63,1.69l.45.21a.17.17,0,0,0,.21,0l0,0h0a2.52,2.52,0,0,0,.54-.08l.14,0,.29-.11-.18-.23a2.71,2.71,0,0,0-.47-.42l.08,0h.07a2.61,2.61,0,0,0-.47-.35l-.19-.11-.05,0,0,0a1.13,1.13,0,0,0-.21-.12h0c.26,0,.52,0,.78,0H17l.23,0a4.1,4.1,0,0,1,.49.06h.12l.61.12h0a3.58,3.58,0,0,0,.35.09l.19.05c.14,0,.28.08.42.12l.26.09s.14.06.15.05a1.69,1.69,0,0,1,.49-.24c.21,0,.41-.12.41-.36A1.1,1.1,0,0,0,20.25,8.55ZM8.89,12.71c-.12-.14-.25-.18-.32-.11s0-.14-.13-.18a.53.53,0,0,0-.15,0,1.94,1.94,0,0,0-.47.16l.33-.22L8,12.38s-.2,0-.38,0a6.66,6.66,0,0,0-.69,0L7,12.26a.43.43,0,0,0-.24.08s-.28,0-.33.22a.32.32,0,0,0,.12.35.54.54,0,0,1,.18-.14.46.46,0,0,0-.07.19,2.36,2.36,0,0,0,.72.2c.49.06.45,0,.62.13a1.53,1.53,0,0,1,.28-.15,1,1,0,0,0-.15.27.88.88,0,0,0,.4.2c.19,0,.35,0,.33-.24l.06-.09H8.78l0-.06a.41.41,0,0,0-.06-.17.36.36,0,0,0,.19,0l0,.05A.32.32,0,0,0,9.09,13L9,13A.47.47,0,0,0,8.89,12.71ZM7.64,10.92H7.35c-.12,0-.26,0-.27.14a.18.18,0,0,0,.07.21s.25.17.29.21a.77.77,0,0,1,.24-.11,1.34,1.34,0,0,0-.28.25.49.49,0,0,1,.17,0,.78.78,0,0,0,.29.11,2.6,2.6,0,0,0,.34,0,.81.81,0,0,1,.27-.1,1.37,1.37,0,0,0-.18.15.15.15,0,0,1,.1,0,.34.34,0,0,0,.25,0c.11,0,.21-.08.21-.21a1,1,0,0,0-.08-.28A1.49,1.49,0,0,1,9,11.07l-.26.06a1,1,0,0,0-.24-.31.42.42,0,0,0-.38,0c-.14.06-.34.12-.34.12a1.16,1.16,0,0,0-.2.12A.25.25,0,0,1,7.64,10.92ZM21.2,9A3.92,3.92,0,0,0,19.82,7.5a1.1,1.1,0,0,0,.24-1,4.06,4.06,0,0,0-1.3-1.08C18.43,5.23,18,5,18,5a21.65,21.65,0,0,0-2-1.08,8.6,8.6,0,0,0-5.16-.66,6.37,6.37,0,0,0-3.58.3c-.8.22-2.17.58-2.94.71-1.14.19-2.29.21-3.19.3-.47,0-.78,0-.93.22C-.54,5.93,1.47,7.9,2.2,8.22A4.76,4.76,0,0,0,3.53,12.3C4.91,13.86,6.83,14.15,8,15s1.52,2.11,2.57,3.21a4.11,4.11,0,0,0,4.56,1,4,4,0,0,0,2.24-2.68.37.37,0,0,0-.25-.38l-.17-.08a4.63,4.63,0,0,0,.08-2,11.63,11.63,0,0,1-.92,1.19,1.6,1.6,0,0,1-.53-1.22,3.13,3.13,0,0,0,.7-.37,3,3,0,0,0,.32-.27c1-.29,1.27-.72,1.27-.72A1.07,1.07,0,0,0,18,13c.15-.09.35-.24.35-.24a2.78,2.78,0,0,1,0,.34.47.47,0,0,1,.15,0,3.87,3.87,0,0,1-.52,1,3.9,3.9,0,0,0,2.23-1.61h0l.1,0a2.67,2.67,0,0,0,1.54-1.34A1.86,1.86,0,0,0,21.2,9Zm-4.58,7.93a3.7,3.7,0,0,1-.48.69,3.74,3.74,0,0,1-1.16.85,4,4,0,0,1-1.47.38l.27-.28a4.26,4.26,0,0,1-1.51,0c.06-.05.15-.11.16-.19l-.11,0-.24-.11a3.86,3.86,0,0,1-.83-.55,6.38,6.38,0,0,1-1.11-1.32c-.19-.3-.34-.62-.55-.9A3.76,3.76,0,0,0,9,14.78,4.74,4.74,0,0,0,7.79,14a19.18,19.18,0,0,1-2-1l-.53-.35a6.8,6.8,0,0,1-1.05-.88l0,0,.11-.09.18-.13.19-.11h0a.13.13,0,0,0,0,.06,1.06,1.06,0,0,1,.13-.11.81.81,0,0,0-.11.28.32.32,0,0,0,.16.3c.19.1.47.18.55.24a2.3,2.3,0,0,1,.22-.14,1,1,0,0,0-.24.35,1.15,1.15,0,0,1,.17-.13.62.62,0,0,0,.29.12c.1,0,.25,0,.32-.14a1.3,1.3,0,0,1,.08-.21A.93.93,0,0,0,6,12.2.46.46,0,0,1,6.21,12a.83.83,0,0,1,.2-.13s.34-.44,0-.65l.3-.16-.42.11a2.3,2.3,0,0,0-.35,0,1.91,1.91,0,0,1-.43,0L5.26,11a.38.38,0,0,1,.11-.05.42.42,0,0,0-.35.19H5a.27.27,0,0,1,.06-.17.61.61,0,0,0-.18.13h0l-.13,0-.21,0a.58.58,0,0,0-.14,0,4.83,4.83,0,0,1,1.19-.57l.44-.13a.58.58,0,0,0,.11.1l.3-.09a2.6,2.6,0,0,1-.36.21l.32,0,0,.08a.45.45,0,0,0,.34,0c.24,0,.4-.08.4-.21a.81.81,0,0,1,0-.31A.39.39,0,0,1,7,10a.6.6,0,0,0,.19-.17.56.56,0,0,0,0-.16h0l.59-.05-.08-.08a2,2,0,0,0-.72-.37,12.26,12.26,0,0,1,1.48-.1c.28,0,.56,0,.84,0A.84.84,0,0,0,9,9a2.9,2.9,0,0,1,.51,0,4.19,4.19,0,0,0-.46-.16l-.32-.09h0c.39.05.8.11,1.25.19a23.1,23.1,0,0,1,5.63,1.69l.45.21a.17.17,0,0,0,.21,0l0,0h0a2.52,2.52,0,0,0,.54-.08l.14,0,.29-.11-.18-.23a2.71,2.71,0,0,0-.47-.42l.08,0h.07a2.61,2.61,0,0,0-.47-.35l-.19-.11-.05,0,0,0a1.13,1.13,0,0,0-.21-.12c.44.15.88.32,1.31.5l.1,0a6.89,6.89,0,0,1,1,.55,1.56,1.56,0,0,1,.2.16h0a.89.89,0,0,1,.27.39.9.9,0,0,1,.06.22,1.24,1.24,0,0,1,0,.28h-.07a3.51,3.51,0,0,0-.55.05,6.29,6.29,0,0,0-.93.3c-.22.08-.43.19-.66.27a2.38,2.38,0,0,1-1,.13,2.06,2.06,0,0,1-1-.31,2.48,2.48,0,0,1-.57-.55,3.46,3.46,0,0,1-.31-.47c.45.16.8.3,1.05.41l.45.21c.07,0,.16,0,.21-.05s-.08-.26-.08-.26A20.74,20.74,0,0,0,9.19,9.57c-.47-.05-.91-.09-1.32-.11.4,0,.83.1,1.29.17.71.11,1.36.24,1.95.37l-.19,0a1.19,1.19,0,0,0-.35.15,1.41,1.41,0,0,0-.48.49,2.86,2.86,0,0,0-.39,1.37,4.75,4.75,0,0,0,.32,1.7,8.93,8.93,0,0,0,.87,1.85,7,7,0,0,0,.6.83,2.94,2.94,0,0,0,.82.71,1.85,1.85,0,0,0,1.09.12,4.89,4.89,0,0,0,.77-.23A4.27,4.27,0,0,1,16,16.68a1.67,1.67,0,0,1,.61.16S16.64,16.86,16.62,16.89ZM8.89,12.71c-.12-.14-.25-.18-.32-.11s0-.14-.13-.18a.53.53,0,0,0-.15,0,1.94,1.94,0,0,0-.47.16l.33-.22L8,12.38s-.2,0-.38,0a6.66,6.66,0,0,0-.69,0L7,12.26a.43.43,0,0,0-.24.08s-.28,0-.33.22a.32.32,0,0,0,.12.35.54.54,0,0,1,.18-.14.46.46,0,0,0-.07.19,2.36,2.36,0,0,0,.72.2c.49.06.45,0,.62.13a1.53,1.53,0,0,1,.28-.15,1,1,0,0,0-.15.27.88.88,0,0,0,.4.2c.19,0,.35,0,.33-.24l.06-.09H8.78l0-.06a.41.41,0,0,0-.06-.17.36.36,0,0,0,.19,0l0,.05A.32.32,0,0,0,9.09,13L9,13A.47.47,0,0,0,8.89,12.71ZM7.15,11.27s.25.17.29.21a.77.77,0,0,1,.24-.11,1.34,1.34,0,0,0-.28.25.49.49,0,0,1,.17,0,.78.78,0,0,0,.29.11,2.6,2.6,0,0,0,.34,0,.81.81,0,0,1,.27-.1,1.37,1.37,0,0,0-.18.15.15.15,0,0,1,.1,0,.34.34,0,0,0,.25,0c.11,0,.21-.08.21-.21a1,1,0,0,0-.08-.28A1.49,1.49,0,0,1,9,11.07l-.26.06a1,1,0,0,0-.24-.31.42.42,0,0,0-.38,0c-.14.06-.34.12-.34.12a1.16,1.16,0,0,0-.2.12.25.25,0,0,1,.08-.11H7.35c-.12,0-.26,0-.27.14A.18.18,0,0,0,7.15,11.27Z"/><path class="cls-1" d="M18.86,11.08a.9.9,0,0,0-.06-.22.89.89,0,0,0-.27-.39h0a1.56,1.56,0,0,0-.2-.16,6.89,6.89,0,0,0-1-.55l-.1,0c-.43-.18-.87-.35-1.31-.5a1.13,1.13,0,0,1,.21.12l0,0,.05,0,.19.11a2.61,2.61,0,0,1,.47.35h-.07l-.08,0a2.71,2.71,0,0,1,.47.42l.18.23-.29.11-.14,0a2.52,2.52,0,0,1-.54.08h0l0,0a.17.17,0,0,1-.21,0l-.45-.21A23.1,23.1,0,0,0,10,8.94c-.45-.08-.86-.14-1.25-.19h0l.32.09A4.19,4.19,0,0,1,9.53,9,2.9,2.9,0,0,0,9,9a.84.84,0,0,1,.21.11c-.28,0-.56,0-.84,0a12.26,12.26,0,0,0-1.48.1,2,2,0,0,1,.72.37l.08.08-.59.05h0a.56.56,0,0,1,0,.16A.6.6,0,0,1,7,10a.39.39,0,0,0,.16,0,.81.81,0,0,0,0,.31c0,.13-.16.18-.4.21a.45.45,0,0,1-.34,0l0-.08-.32,0a2.6,2.6,0,0,0,.36-.21l-.3.09a.58.58,0,0,1-.11-.1l-.44.13a4.83,4.83,0,0,0-1.19.57.58.58,0,0,1,.14,0l.21,0,.13,0h0a.61.61,0,0,1,.18-.13.27.27,0,0,0-.06.17H5a.42.42,0,0,1,.35-.19.38.38,0,0,0-.11.05l.2.06a1.91,1.91,0,0,0,.43,0,2.3,2.3,0,0,1,.35,0L6.66,11l-.3.16c.39.21,0,.65,0,.65a.83.83,0,0,0-.2.13A.46.46,0,0,0,6,12.2a.93.93,0,0,1,.18-.13,1.3,1.3,0,0,0-.08.21c-.07.14-.22.13-.32.14a.62.62,0,0,1-.29-.12,1.15,1.15,0,0,0-.17.13,1,1,0,0,1,.24-.35,2.3,2.3,0,0,0-.22.14c-.08-.06-.36-.14-.55-.24a.32.32,0,0,1-.16-.3.81.81,0,0,1,.11-.28,1.06,1.06,0,0,0-.13.11.13.13,0,0,1,0-.06h0l-.19.11-.18.13-.11.09,0,0a6.8,6.8,0,0,0,1.05.88l.53.35a19.18,19.18,0,0,0,2,1A4.74,4.74,0,0,1,9,14.78a3.76,3.76,0,0,1,.61.65c.21.28.36.6.55.9a6.38,6.38,0,0,0,1.11,1.32,3.86,3.86,0,0,0,.83.55l.24.11.11,0c0,.08-.1.14-.16.19a4.26,4.26,0,0,0,1.51,0l-.27.28A4,4,0,0,0,15,18.43a3.74,3.74,0,0,0,1.16-.85,3.7,3.7,0,0,0,.48-.69s0,0,0-.05a1.67,1.67,0,0,0-.61-.16,4.27,4.27,0,0,0-1.83.35,4.89,4.89,0,0,1-.77.23,1.85,1.85,0,0,1-1.09-.12,2.94,2.94,0,0,1-.82-.71,7,7,0,0,1-.6-.83A8.93,8.93,0,0,1,10,13.75a4.75,4.75,0,0,1-.32-1.7,2.86,2.86,0,0,1,.39-1.37,1.41,1.41,0,0,1,.48-.49,1.19,1.19,0,0,1,.35-.15l.19,0c-.59-.13-1.24-.26-1.95-.37-.46-.07-.89-.13-1.29-.17.41,0,.85.06,1.32.11a20.74,20.74,0,0,1,6.22,1.52s.18.11.08.26-.14.06-.21.05l-.45-.21c-.25-.11-.6-.25-1.05-.41a3.46,3.46,0,0,0,.31.47,2.48,2.48,0,0,0,.57.55,2.06,2.06,0,0,0,1,.31,2.38,2.38,0,0,0,1-.13c.23-.08.44-.19.66-.27a6.29,6.29,0,0,1,.93-.3,3.51,3.51,0,0,1,.55-.05h.07A1.24,1.24,0,0,0,18.86,11.08ZM9.09,13a.32.32,0,0,1-.18.14l0-.05a.36.36,0,0,1-.19,0,.41.41,0,0,1,.06.17l0,.06h.11l-.06.09c0,.19-.14.26-.33.24a.88.88,0,0,1-.4-.2,1,1,0,0,1,.15-.27,1.53,1.53,0,0,0-.28.15c-.17-.1-.13-.07-.62-.13a2.36,2.36,0,0,1-.72-.2.46.46,0,0,1,.07-.19.54.54,0,0,0-.18.14.32.32,0,0,1-.12-.35c0-.19.33-.22.33-.22A.43.43,0,0,1,7,12.26l-.08.06a6.66,6.66,0,0,1,.69,0c.18,0,.38,0,.38,0l.19-.05-.33.22a1.94,1.94,0,0,1,.47-.16.53.53,0,0,1,.15,0c.09,0,.13.18.13.18s.2,0,.32.11A.47.47,0,0,1,9,13Zm-1-2.21a.42.42,0,0,1,.38,0,1,1,0,0,1,.24.31L9,11.07a1.49,1.49,0,0,0-.21.15,1,1,0,0,1,.08.28c0,.13-.1.17-.21.21a.34.34,0,0,1-.25,0,.15.15,0,0,0-.1,0,1.37,1.37,0,0,1,.18-.15.81.81,0,0,0-.27.1,2.6,2.6,0,0,1-.34,0,.78.78,0,0,1-.29-.11.49.49,0,0,0-.17,0,1.34,1.34,0,0,1,.28-.25.77.77,0,0,0-.24.11s-.24-.17-.29-.21a.18.18,0,0,1-.07-.21c0-.12.15-.13.27-.14h.29a.25.25,0,0,0-.08.11,1.16,1.16,0,0,1,.2-.12S8,10.85,8.1,10.79Z"/><path class="cls-2" d="M20.25,8.55s-.31.39-.46.27.08-.28,0-.58a6.27,6.27,0,0,0-2.32-2.1s.59.24,1.15.54c.7.11.86-.07.9-.14l-.08-.12-.1,0a1.71,1.71,0,0,1-.21-.07A1.85,1.85,0,0,1,19,6.12a.15.15,0,0,0,0,.12.44.44,0,0,0-.18-.1.87.87,0,0,1-.22-.08L18.54,6a.26.26,0,0,0,0,.07.12.12,0,0,1-.1-.1.13.13,0,0,1,.06-.13.11.11,0,0,1,0-.06.69.69,0,0,0,.12.11.34.34,0,0,0,0-.15l0,0-.08,0s-1.33-.75-1.95-1.06l-.18,0s-.1,0-.12-.1a.07.07,0,0,0,0,.06.74.74,0,0,1,.1.16l-.19-.11a1.73,1.73,0,0,1-.32-.14l0,0h0a.05.05,0,0,1,0,0h0v0h0l.12.08h0v0a.48.48,0,0,1-.08-.12,7.78,7.78,0,0,0-1.93-.68,4.92,4.92,0,0,0-2,0,2.91,2.91,0,0,1,.72.18.24.24,0,0,0,.1-.05.26.26,0,0,1,.15-.06s.16.15.16.15l0-.22a.92.92,0,0,1,.17,0l.16,0s0,0,0,0,.05,0,.05.07.1.07.1.13a.6.6,0,0,0,0,.19s0,0-.07,0a.21.21,0,0,1-.13.06l-.08,0a7.41,7.41,0,0,1,.76.37l.06,0a.37.37,0,0,1,0-.11l0,0a.23.23,0,0,0,0-.09.43.43,0,0,1,.14-.07c.06,0,.09,0,.11,0a.19.19,0,0,0,0-.1.35.35,0,0,1,.13.14V4.08a.55.55,0,0,1,.19,0,.26.26,0,0,1,.15.08s.07.12,0,.15-.08,0-.09.05,0,0,0,.06l-.05,0a.28.28,0,0,0,0,.12.1.1,0,0,1-.06-.06.1.1,0,0,1,0,.08s-.05.06-.08.06a.38.38,0,0,1-.08-.09s0,.16,0,.13l-.18-.15h-.09A.37.37,0,0,1,14,4.47s0,0,.05.07l-.06,0a.26.26,0,0,1-.08.05l.07.07a.33.33,0,0,1-.13-.06l-.12,0a.22.22,0,0,0-.14,0,.15.15,0,0,1-.1,0l-.15-.06a.29.29,0,0,0,0,.06s0,0-.1,0-.09,0-.13-.07-.07-.07-.06-.1a.1.1,0,0,1,0-.06l.07,0s-.08-.1-.08-.14h.06s0,0,.14-.08l.1,0c-.34-.1-.82-.24-1.37-.35l0,0s0,0,0,0A.23.23,0,0,1,12,4s-.26-.08-.34-.12a1.82,1.82,0,0,0,.22.16s-.08.13-.35.1a.54.54,0,0,1-.22,0A.49.49,0,0,1,11,4a.17.17,0,0,1,.08-.22L11.3,4s-.13-.16-.12-.21a.42.42,0,0,1,.1-.07l-.19,0a8.41,8.41,0,0,0-1.56,0s0,.1.06.15a.07.07,0,0,1,0,.1.73.73,0,0,0-.2-.1.52.52,0,0,1,.12.13.49.49,0,0,1-.25.05A.89.89,0,0,0,9,4c-.07,0-.12-.09-.18-.14l0,0h0v0h0v0l0,.06.1.15h0l0,.06v0H9l-.08,0h0l-.1-.06h0s-.06,0-.08,0H8.48a.74.74,0,0,1-.35-.2.19.19,0,0,1,0-.11l-.3.07-1.73.39a.54.54,0,0,1,0,.15.17.17,0,0,0,0,.1,1,1,0,0,1-.25-.06A.53.53,0,0,0,6,4.6s0,.08-.08.1a.27.27,0,0,1-.18,0c-.07,0-.14,0-.23,0a.6.6,0,0,1-.22-.06.28.28,0,0,0,.19-.06c-.14,0-.18-.06-.2-.09a.18.18,0,0,0-.07-.08l-1,.23-.68.09s0,.06,0,.07l.14,0h.15L3.45,5a.21.21,0,0,0-.08,0h0l.07,0a.14.14,0,0,1,.1,0,.16.16,0,0,0,.09,0h.15l-.09,0a.11.11,0,0,1,.07,0c.09.06,0,.13-.08.16a.24.24,0,0,0-.14,0s.11,0,.11,0-.06,0-.11.06a.17.17,0,0,0-.1.07.08.08,0,0,1,.05,0H3.4s0,.08-.06.1-.11.06-.11.06a.69.69,0,0,0,.16,0l-.17,0,.21.13h0l.12,0a7.78,7.78,0,0,0,1.35.23,3.29,3.29,0,0,0,.83-.07L6.22,6A1.71,1.71,0,0,1,6,6.19H6l1.65-.4a5.37,5.37,0,0,1,1-.12.44.44,0,0,1,.15,0,1.09,1.09,0,0,1,.34.06l.42,0a.47.47,0,0,0-.23-.21h.38a13.73,13.73,0,0,1,2.12.22l.51.11a0,0,0,0,0,0,0s0-.06,0-.07a.25.25,0,0,1,.13,0l.15.09a.12.12,0,0,1,0,.07L13,6h-.12l0,0a1.17,1.17,0,0,1,.69-.16.66.66,0,0,1,.16,0,.35.35,0,0,1,.16,0c.07,0,.2.07.21.11a.43.43,0,0,1,0,.21.42.42,0,0,1-.21.15h0a.18.18,0,0,0-.07-.08h0s0,0,0,.05v0l0,0a5.5,5.5,0,0,1,1.14.69,4.81,4.81,0,0,0,.66.45l0,0,.12,0a1,1,0,0,0,.71,0h0l.05,0,0-.05h0l0,0a.7.7,0,0,0,0-.45v0s0,0,0-.06a.53.53,0,0,0-.05-.15.5.5,0,0,0-.05-.13V6.38h0l.16.16a2.37,2.37,0,0,1,.54.68,3,3,0,0,1,.31.82c0,.09-.19.06-.33.05A3.75,3.75,0,0,0,16,8.24h0a2.06,2.06,0,0,1,.48-.07,2.41,2.41,0,0,1,1.24.29h0s.13.1.1.22-.12.18-.29.19a.35.35,0,0,0,.06.21,1.31,1.31,0,0,0,.21.23l.61.12h0a3.58,3.58,0,0,0,.35.09l.19.05c.14,0,.28.08.42.12l.26.09s.14.06.15.05a1.69,1.69,0,0,1,.49-.24c.21,0,.41-.12.41-.36A1.1,1.1,0,0,0,20.25,8.55ZM5.42,5.25a.16.16,0,0,1,.07.14c0,.1,0,.14,0,.21s0,.12-.11.17a.77.77,0,0,1-.2,0,.32.32,0,0,0,.11,0A.33.33,0,0,1,5,5.88.71.71,0,0,1,4.73,6c-.14,0-.17-.08-.17-.08l.28,0-.28-.08a.43.43,0,0,1,.06-.15s0-.05,0-.05a1.67,1.67,0,0,1-.24-.07l.27,0s0-.05,0-.12a1,1,0,0,0,.18-.16.42.42,0,0,1,.28,0,.31.31,0,0,0,.14,0l.25,0A.32.32,0,0,1,5.42,5.25Zm2.89-.49c0,.11-.15.2-.18.22S8,5.05,8,5.12a.17.17,0,0,1-.13.12s-.11.07-.11.07a.37.37,0,0,0,.17,0l-.12.1a.49.49,0,0,1-.2.05H7.38c-.13,0-.29,0-.34-.11S7,5.25,7,5.25a1.08,1.08,0,0,1-.3,0A1.26,1.26,0,0,0,7,5l-.22.06A.2.2,0,0,1,6.8,5a.11.11,0,0,1,.06-.09.15.15,0,0,1,0-.08.5.5,0,0,1,.26-.13.42.42,0,0,0,.22-.08.68.68,0,0,1,.33-.1.32.32,0,0,1,.13,0l.17,0a1.12,1.12,0,0,1-.25.16,1.18,1.18,0,0,0,.33-.09C8.27,4.57,8.32,4.65,8.31,4.76Zm2.3-.16c0,.06,0,.21-.13.24l-.1,0v.17a.9.9,0,0,1-.14-.14.23.23,0,0,1-.11,0c-.08,0-.18.13-.33.12S9.55,5,9.51,4.86a.22.22,0,0,1,0-.21.58.58,0,0,0,.14.14.78.78,0,0,1-.05-.21s.05,0,.05-.08a.32.32,0,0,1,.16-.1.17.17,0,0,1,.12,0,1.08,1.08,0,0,0,.11.21,2,2,0,0,1,0-.41,1.46,1.46,0,0,0,.09.18l.17,0a.25.25,0,0,1,.24,0A.24.24,0,0,1,10.61,4.6Zm2.2.18a.56.56,0,0,1-.15.09.17.17,0,0,0,.05.1.29.29,0,0,1-.14,0,.45.45,0,0,0-.06.09.61.61,0,0,1-.13.16.76.76,0,0,1-.15.08,1,1,0,0,0,.16.18A1.63,1.63,0,0,1,12,5.22a.17.17,0,0,0,0,.11.39.39,0,0,1-.26,0,1.06,1.06,0,0,1-.28-.13l.21,0s-.17-.08-.2-.17a.16.16,0,0,1,.07-.23.34.34,0,0,1,.18,0,2.26,2.26,0,0,0,.37.14.79.79,0,0,1-.22-.19.34.34,0,0,0,.16,0s.06-.08.13-.1l.13,0-.08,0,.18,0h.17a1.6,1.6,0,0,1,.22,0C12.9,4.62,12.87,4.73,12.81,4.78Zm1.67.4-.11,0a1.3,1.3,0,0,1,.06.12.39.39,0,0,1-.13.06.17.17,0,0,0-.1.06.22.22,0,0,1-.19.07l-.24-.06a.88.88,0,0,1,.11.13,1,1,0,0,1-.23.06h-.18c-.06,0-.11,0-.11-.08a.11.11,0,0,1,0-.08l.18.06a2.65,2.65,0,0,0-.22-.2l.19,0a.37.37,0,0,0,0-.09c0-.05,0-.09,0-.1l.16-.08a.85.85,0,0,0-.15-.1l.23,0,.13,0a.19.19,0,0,1,.14,0c.06,0,.06,0,.1,0a.14.14,0,0,0,.07,0,.16.16,0,0,0-.08,0,.44.44,0,0,1,.18,0,.32.32,0,0,1,.16.08A.1.1,0,0,1,14.48,5.18Zm.86.71a1.24,1.24,0,0,1,.13.15s-.06,0-.07.07a.34.34,0,0,1-.12.12.21.21,0,0,1-.11.08l-.14,0a.45.45,0,0,1-.31-.11l.21,0A1.08,1.08,0,0,1,14.75,6a.07.07,0,0,0,0-.06s0-.08,0-.12a1.42,1.42,0,0,0,.22.06l-.18-.16a.22.22,0,0,1,.12,0l.09-.06a.24.24,0,0,1,.26,0,.46.46,0,0,1,.13.14.33.33,0,0,1,.14.13A.88.88,0,0,0,15.34,5.89Zm.65-.8a.12.12,0,0,1-.11.11c-.07,0-.11,0-.13,0a.2.2,0,0,1-.09.07l-.33-.19a.93.93,0,0,1,.1.15.6.6,0,0,1-.23,0L15,5.11A.44.44,0,0,1,14.84,5a.78.78,0,0,0,.17.07s-.1-.11-.1-.14A.25.25,0,0,0,15,4.84a.36.36,0,0,1,.2-.07h0a.93.93,0,0,1,.35.17,1.82,1.82,0,0,0-.14-.17h.18a.26.26,0,0,1,.17,0,.15.15,0,0,1,.09.09l-.11,0s0,0,.1.11S16,5,16,5.09Zm.81,1a.51.51,0,0,0-.18,0,.1.1,0,0,1-.12,0A.51.51,0,0,1,16.33,6h.14a.24.24,0,0,0-.1,0,.36.36,0,0,1-.18-.07.07.07,0,0,0,0,.07s-.12,0-.14-.08-.09-.11,0-.2a.18.18,0,0,1,.15-.08l-.14-.09a1.52,1.52,0,0,1,.34.14.2.2,0,0,0-.05-.09.28.28,0,0,1,.22,0c.11.08.11.15.2.21a.1.1,0,0,1,0,.17A.49.49,0,0,0,16.8,6.07Zm.63-.53-.17-.15.07.18a.34.34,0,0,1-.18-.05c-.07,0-.16-.11-.14-.11h.06a.34.34,0,0,0-.21-.1.23.23,0,0,1-.16,0,.36.36,0,0,1-.13-.09.24.24,0,0,1-.06-.12l.13.08A.46.46,0,0,1,16.57,5a.22.22,0,0,1,.12,0c.07,0,.09,0,.09,0a.27.27,0,0,1,0-.08.74.74,0,0,0,.12.09.37.37,0,0,1,.19,0,.55.55,0,0,1,.19.15l.08.06s-.05-.06-.06-.11l.09,0a.39.39,0,0,1,.08.1s0,.09,0,.09.07.09.07.13A.08.08,0,0,1,17.43,5.54Zm.14.2h.09a.06.06,0,0,0,0-.06,1.13,1.13,0,0,1,.21.16l0-.07a.46.46,0,0,1,.17.08.63.63,0,0,1,.1.14s.06.11,0,.14a.06.06,0,0,1-.05,0L17.89,6l.09.15a.43.43,0,0,1-.17-.06A1,1,0,0,1,17.6,6c-.05,0-.1-.09-.1-.13l.13.07-.15-.18A.18.18,0,0,1,17.57,5.74Z"/><path d="M17.76,8.59c-.11.23-.69-.07-1.31-.13A5,5,0,0,0,15,8.65l0,0a1.18,1.18,0,0,1,.19-.11l.17-.08a3.11,3.11,0,0,1,.61-.2h0a2.06,2.06,0,0,1,.48-.07,2.41,2.41,0,0,1,1.24.29C17.76,8.5,17.78,8.55,17.76,8.59Z"/><path class="cls-3" d="M17.53,8.87a.35.35,0,0,0,.06.21,1.31,1.31,0,0,0,.21.23h-.12a4.1,4.1,0,0,0-.49-.06l-.23,0h-.3c-.26,0-.52,0-.78,0h0c-.09-.11-.42-.58-.87-.56a5,5,0,0,1,1.45-.19c.62.06,1.2.36,1.31.13,0,0,0-.09-.05-.13h0s.13.1.1.22S17.7,8.86,17.53,8.87Z"/><path class="cls-2" d="M17.33,10.53l-.29.11-.14,0a2.52,2.52,0,0,1-.54.08h0v0a.24.24,0,0,0-.1-.19h0l-.23-.1-.4-.17-.07,0-.06,0-.93-.33L14,9.7l-.1,0c-.32-.09-.67-.19-1-.28s-.5-.47-.77-.69A19.87,19.87,0,0,1,15.64,10l.45.22a.18.18,0,0,0,.21,0c.1-.14-.07-.27-.07-.27a18.08,18.08,0,0,0-4.46-1.41c-.29-.21-.59-.38-.89-.56a2.1,2.1,0,0,1-.3-.22.29.29,0,0,1-.1-.16v0h0v0h0v0h0a.4.4,0,0,1,.12-.16l0,0h0l0,0h.09a2.23,2.23,0,0,1,.39-.09l.13,0a1.46,1.46,0,0,0,.26.39.71.71,0,0,1-.23,0,2.15,2.15,0,0,0,1.11.65,4,4,0,0,0,.78.07l-.15.06a2.19,2.19,0,0,1,.37,0l.09,0,.43.13,0,0h0l.09.06a4.81,4.81,0,0,1,.52.4l.14.12.21.21v0s0,0,0,0a.42.42,0,0,1,0-.1,1.74,1.74,0,0,0-.1-.19,2.41,2.41,0,0,0-.23-.36,1.25,1.25,0,0,0-.15-.19l-.11-.13s-.07-.1-.12-.11h.18l.11,0,0,0h0l.07,0,0,0h0l0,0,0,0h0l0,0,0,0,0,0a.63.63,0,0,1,.11.13v0a.73.73,0,0,1,.06.14h0v0c.45,0,.78.45.87.56h0a1.13,1.13,0,0,1,.21.12l0,0,.05,0,.19.11a2.61,2.61,0,0,1,.47.35h-.07l-.08,0a2.71,2.71,0,0,1,.47.42Z"/><path class="cls-4" d="M15.37,15.82l-.28-.18,0-.42S15.45,15.49,15.37,15.82Z"/><path class="cls-4" d="M14.41,14.92a2.57,2.57,0,0,1-1.29,1.45,2.36,2.36,0,0,1-1.25-1.28c-.35-.82,0-2.36-.49-3.23a1.53,1.53,0,0,0-.88-.71,1.42,1.42,0,0,1,1.08,0c1.2.38,1.33,2,1.35,2.27,0,.63.14,1.45.56,1.67A2,2,0,0,1,13.24,14c0-2.38-.85-2.71-.85-2.71a1.68,1.68,0,0,1,1.28,1C13.94,13.15,13.5,14.45,14.41,14.92Z"/><path class="cls-4" d="M19.67,10.13c0,.32-.53.78-.53.78a5.89,5.89,0,0,0-.33-.6s.07-.18-.2-.41a2,2,0,0,0-1-.23.86.86,0,0,1,.44-.09A5.83,5.83,0,0,1,19.67,10.13Z"/><path class="cls-1" d="M3.45,5.23a0,0,0,0,1,0,0h0a.66.66,0,0,0-.14,0l0,0s-.09,0-.11.07a.28.28,0,0,0-.12,0L3,5.4H3a.11.11,0,0,1-.08,0l0,0s-.14,0-.17,0L2.4,5.32l-.32-.13C1.86,5.1,1.64,5,1.42,5l-.2-.06-.15,0h.28c.6,0,1.21,0,1.82-.06l.33,0s0,.06,0,.07l.14,0h.15L3.45,5a.21.21,0,0,0-.08,0h0l0,0H3.24a.22.22,0,0,0,.1,0h0a0,0,0,0,0,0,0A.2.2,0,0,1,3.45,5.23Z"/><path class="cls-1" d="M6,6.75l0,0L5.65,7h0L5.53,7h0a1.66,1.66,0,0,1-.31.12L5,7.21a3.39,3.39,0,0,1-1,.17l.14,0c.18,0,.61.08.63.08h0a3.21,3.21,0,0,1-1.41.25A3.16,3.16,0,0,1,2,7.48a2.86,2.86,0,0,0,.39-.09A5.31,5.31,0,0,1,1.46,7h.35a3.2,3.2,0,0,1-.27-.22C1.07,6.39.77,5.86.82,5.62a.84.84,0,0,0-.44-.3A3.64,3.64,0,0,1,2.67,6c.32.2.57.43.85.61a4.3,4.3,0,0,1-1.39-.08A3.49,3.49,0,0,0,3.45,7,7.31,7.31,0,0,0,4.84,7,3.64,3.64,0,0,0,6,6.75Z"/><path class="cls-1" d="M21.64,10.5a1.32,1.32,0,0,1-.07.32c0,.12-.06.25-.2.26h-.31c-.06,0-.18,0-.21,0s.3.19.4.19h.05a2.23,2.23,0,0,1-1.15.6h0l0,0A1.68,1.68,0,0,0,19,11.37h0a1.34,1.34,0,0,1,.11-.14,3.59,3.59,0,0,1,1.21-.83,2,2,0,0,0,.92-1,.93.93,0,0,1,.19.23.75.75,0,0,1-.28.34s-.12.08-.08.16.14.05.19,0a.49.49,0,0,0,.2-.21.33.33,0,0,0,.07-.13,1.18,1.18,0,0,1,.1.36s-.05.06-.06.07l-.13.1a2.35,2.35,0,0,1-.39.19s-.12.06-.13.12.11.11.17.1h0A.88.88,0,0,0,21.64,10.5Z"/><path class="cls-1" d="M16.13,16.47a.48.48,0,0,1-.37-.15,4.39,4.39,0,0,0-1.15,0,1.44,1.44,0,0,1-.77.4c-.45.06-.45-.15-.42-.2s.23-.16.61-.56a4.66,4.66,0,0,0,.72-1.22,2,2,0,0,1,.1.83,2,2,0,0,1,0,.24,1.66,1.66,0,0,1-.14.37,1.07,1.07,0,0,1,.38-.35,1.27,1.27,0,0,1,.13.19s.07.11.07.12a1.86,1.86,0,0,1,.42-.36,1,1,0,0,1,.15.25,8,8,0,0,0,.94-1.24C16.79,15.62,16.34,16.46,16.13,16.47Z"/><path class="cls-1" d="M19.85,12.3a3.51,3.51,0,0,1-1.27,1.24,4.3,4.3,0,0,0,.47-1.17,1.31,1.31,0,0,1-.44.26,1,1,0,0,0-.06-.43,3.23,3.23,0,0,1-.47.38,1.88,1.88,0,0,1-.19-.43,2.44,2.44,0,0,1-.83.83,2.76,2.76,0,0,0,0-.61c.33-.08.63-.17.86-.25a2.14,2.14,0,0,1,.48-.18s.22,0,.2.11a.62.62,0,0,1,.47-.13.2.2,0,0,1,.13.1.66.66,0,0,1,.44-.13A.3.3,0,0,1,19.85,12.3Z"/><path class="cls-1" d="M17,12.38l0,.1a3.05,3.05,0,0,1-1.76,1.44,2,2,0,0,0,.58-1.38A5.59,5.59,0,0,0,17,12.38Z"/><path d="M17.43,5.54l-.17-.15.07.18a.34.34,0,0,1-.18-.05c-.07,0-.16-.11-.14-.11h.06a.34.34,0,0,0-.21-.1.23.23,0,0,1-.16,0,.36.36,0,0,1-.13-.09.24.24,0,0,1-.06-.12l.13.08A.46.46,0,0,1,16.57,5a.22.22,0,0,1,.12,0c.07,0,.09,0,.09,0a.27.27,0,0,1,0-.08.74.74,0,0,0,.12.09.37.37,0,0,1,.19,0,.55.55,0,0,1,.19.15l.08.06s-.05-.06-.06-.11l.09,0a.39.39,0,0,1,.08.1s0,.09,0,.09.07.09.07.13A.08.08,0,0,1,17.43,5.54Z"/><path d="M18.14,6.12a.06.06,0,0,1-.05,0L17.89,6l.09.15a.43.43,0,0,1-.17-.06A1,1,0,0,1,17.6,6c-.05,0-.1-.09-.1-.13l.13.07-.15-.18a.18.18,0,0,1,.09-.06h.09a.06.06,0,0,0,0-.06,1.13,1.13,0,0,1,.21.16l0-.07a.46.46,0,0,1,.17.08.63.63,0,0,1,.1.14S18.16,6.09,18.14,6.12Z"/><path d="M16.3,10.17a.18.18,0,0,1-.21,0L15.64,10A19.87,19.87,0,0,0,12.05,8.7c-.61-.16-1.28-.32-2-.46L8.75,8c.4,0,.84.09,1.31.16s1.18.19,1.71.3A18.08,18.08,0,0,1,16.23,9.9S16.4,10,16.3,10.17Z"/><path d="M12.9,6.66l-.13-.07s.1.11.05.13a.42.42,0,0,0-.14-.1,2,2,0,0,1-.3-.16.34.34,0,0,1-.08-.14s0,0,.06,0l.1.06a.16.16,0,0,0-.05-.09s-.11-.06-.15-.11l.05,0a.56.56,0,0,0,0-.17h0c0-.09,0-.14,0-.15a.8.8,0,0,1,.19,0l-.13-.08a0,0,0,0,0,0,0s0-.06,0-.07a.25.25,0,0,1,.13,0l.15.09a.12.12,0,0,1,0,.07L13,6h0l-.23,0L12.75,6a.3.3,0,0,0-.06.15.27.27,0,0,0,.05.14,1,1,0,0,1,.17.18S12.89,6.63,12.9,6.66Z"/><path d="M12.81,4.78a.56.56,0,0,1-.15.09.17.17,0,0,0,.05.1.29.29,0,0,1-.14,0,.45.45,0,0,0-.06.09.61.61,0,0,1-.13.16.76.76,0,0,1-.15.08,1,1,0,0,0,.16.18A1.63,1.63,0,0,1,12,5.22a.17.17,0,0,0,0,.11.39.39,0,0,1-.26,0,1.06,1.06,0,0,1-.28-.13l.21,0s-.17-.08-.2-.17a.16.16,0,0,1,.07-.23.34.34,0,0,1,.18,0,2.26,2.26,0,0,0,.37.14.79.79,0,0,1-.22-.19.34.34,0,0,0,.16,0s.06-.08.13-.1l.13,0-.08,0,.18,0h.17a1.6,1.6,0,0,1,.22,0C12.9,4.62,12.87,4.73,12.81,4.78Z"/><path d="M14.06,6.05a.42.42,0,0,1-.21.15h0a.18.18,0,0,0-.07-.08h0s0,0,0,.05v0l0,0-.11.09-.08.1a.5.5,0,0,0-.06.2.44.44,0,0,1-.1-.06.3.3,0,0,0,.11.15s.05.06,0,.11a.58.58,0,0,1-.19,0,.59.59,0,0,0-.14-.07h.07a.55.55,0,0,0-.08-.14.2.2,0,0,1-.1-.17.58.58,0,0,1,.14,0A.83.83,0,0,0,13,6.29h.13s0-.08.14-.16A.47.47,0,0,0,13.5,6s.05-.1.09-.13a.85.85,0,0,1,.14.09.46.46,0,0,0-.15-.18.66.66,0,0,1,.16,0,.35.35,0,0,1,.16,0c.07,0,.2.07.21.11A.43.43,0,0,1,14.06,6.05Z"/><path d="M14.48,5.18l-.11,0a1.3,1.3,0,0,1,.06.12.39.39,0,0,1-.13.06.17.17,0,0,0-.1.06.22.22,0,0,1-.19.07l-.24-.06a.88.88,0,0,1,.11.13,1,1,0,0,1-.23.06h-.18c-.06,0-.11,0-.11-.08a.11.11,0,0,1,0-.08l.18.06a2.65,2.65,0,0,0-.22-.2l.19,0a.37.37,0,0,0,0-.09c0-.05,0-.09,0-.1l.16-.08a.85.85,0,0,0-.15-.1l.23,0,.13,0a.19.19,0,0,1,.14,0c.06,0,.06,0,.1,0a.14.14,0,0,0,.07,0,.16.16,0,0,0-.08,0,.44.44,0,0,1,.18,0,.32.32,0,0,1,.16.08A.1.1,0,0,1,14.48,5.18Z"/><path d="M16.76,6a.49.49,0,0,0,0,.1.51.51,0,0,0-.18,0,.1.1,0,0,1-.12,0A.51.51,0,0,1,16.33,6h.14a.24.24,0,0,0-.1,0,.36.36,0,0,1-.18-.07.07.07,0,0,0,0,.07s-.12,0-.14-.08-.09-.11,0-.2a.18.18,0,0,1,.15-.08l-.14-.09a1.52,1.52,0,0,1,.34.14.2.2,0,0,0-.05-.09.28.28,0,0,1,.22,0c.11.08.11.15.2.21A.1.1,0,0,1,16.76,6Z"/><path d="M15.47,6s-.06,0-.07.07a.34.34,0,0,1-.12.12.21.21,0,0,1-.11.08l-.14,0a.45.45,0,0,1-.31-.11l.21,0A1.08,1.08,0,0,1,14.75,6a.07.07,0,0,0,0-.06s0-.08,0-.12a1.42,1.42,0,0,0,.22.06l-.18-.16a.22.22,0,0,1,.12,0l.09-.06a.24.24,0,0,1,.26,0,.46.46,0,0,1,.13.14.33.33,0,0,1,.14.13.88.88,0,0,0-.25-.11A1.24,1.24,0,0,1,15.47,6Z"/><path d="M16,5.09a.12.12,0,0,1-.11.11c-.07,0-.11,0-.13,0a.2.2,0,0,1-.09.07l-.33-.19a.93.93,0,0,1,.1.15.6.6,0,0,1-.23,0L15,5.11A.44.44,0,0,1,14.84,5a.78.78,0,0,0,.17.07s-.1-.11-.1-.14A.25.25,0,0,0,15,4.84a.36.36,0,0,1,.2-.07h0a.93.93,0,0,1,.35.17,1.82,1.82,0,0,0-.14-.17h.18a.26.26,0,0,1,.17,0,.15.15,0,0,1,.09.09l-.11,0s0,0,.1.11S16,5,16,5.09Z"/><path d="M8.77,11.22a1,1,0,0,1,.08.28c0,.13-.1.17-.21.21a.34.34,0,0,1-.25,0,.15.15,0,0,0-.1,0,1.37,1.37,0,0,1,.18-.15.81.81,0,0,0-.27.1,2.6,2.6,0,0,1-.34,0,.78.78,0,0,1-.29-.11.49.49,0,0,0-.17,0,1.34,1.34,0,0,1,.28-.25.77.77,0,0,0-.24.11s-.24-.17-.29-.21a.18.18,0,0,1-.07-.21c0-.12.15-.13.27-.14h.29a.25.25,0,0,0-.08.11,1.16,1.16,0,0,1,.2-.12s.2-.06.34-.12a.42.42,0,0,1,.38,0,1,1,0,0,1,.24.31L9,11.07A1.49,1.49,0,0,0,8.77,11.22Z"/><path d="M5.9,8.2c-.05,0-.05.06-.09.11s-.26.06-.26.06a1.07,1.07,0,0,0-.31,0l.21.06a1.17,1.17,0,0,1-.24,0c-.1,0-.16-.12-.22-.2A.24.24,0,0,1,5,8L4.94,8h.33l-.22,0,0-.12s.16,0,.21,0,.12-.06.16-.07.15,0,.22,0,.06.06.06.06l-.14,0,.21,0s.13.07.16.14A.19.19,0,0,1,5.9,8.2Z"/><path d="M7.14,10a.81.81,0,0,0,0,.31c0,.13-.16.18-.4.21a.45.45,0,0,1-.34,0l0-.08-.32,0a2.6,2.6,0,0,0,.36-.21l-.3.09a.58.58,0,0,1-.11-.1.33.33,0,0,1-.11-.13C5.89,10,6,9.86,6,9.8a.08.08,0,0,0,0-.1.36.36,0,0,0,.1-.12h0l-.26,0h0a.31.31,0,0,1-.09-.25l0-.17H5.71l-.09,0h0A1,1,0,0,0,6,9H6l-.2,0h0a.17.17,0,0,1,.07-.12H6l.1,0h0L6.3,9h0a.36.36,0,0,1,.17.18.43.43,0,0,0,.13.22h0l.08.06,0,0h0l.11,0H7l0,0a.28.28,0,0,1,.11.13h0a.56.56,0,0,1,0,.16A.6.6,0,0,1,7,10,.39.39,0,0,0,7.14,10Z"/><path d="M5.42,5.25a.16.16,0,0,1,.07.14c0,.1,0,.14,0,.21s0,.12-.11.17a.77.77,0,0,1-.2,0,.32.32,0,0,0,.11,0A.33.33,0,0,1,5,5.88.71.71,0,0,1,4.73,6c-.14,0-.17-.08-.17-.08l.28,0-.28-.08a.43.43,0,0,1,.06-.15s0-.05,0-.05a1.67,1.67,0,0,1-.24-.07l.27,0s0-.05,0-.12a1,1,0,0,0,.18-.16.42.42,0,0,1,.28,0,.31.31,0,0,0,.14,0l.25,0A.32.32,0,0,1,5.42,5.25Z"/><path d="M16.35,10.73v0h0l0,0a.17.17,0,0,1-.21,0l-.45-.21A23.1,23.1,0,0,0,10,8.94c-.45-.08-.86-.14-1.25-.19h0l.22,0H9l1.26.15c.53.07,1.05.16,1.58.26s1,.21,1.42.33l.59.16.1,0,.57.17.93.33.06,0,.07,0,.4.17.23.1h0A.24.24,0,0,1,16.35,10.73Z"/><path d="M8.43,8.8c0,.08-.26.1-.37.09A1,1,0,0,1,7.73,9a2.36,2.36,0,0,1-.33-.1.48.48,0,0,1,.13,0,.65.65,0,0,0-.14-.17,1.12,1.12,0,0,1-.24-.28,1.4,1.4,0,0,1,.22-.08.63.63,0,0,1-.24,0,.56.56,0,0,1,0-.23.37.37,0,0,0,0-.15s0,0,0,0l.28-.06s0,0-.16-.07a.57.57,0,0,1,.27,0c.14,0,.24.19.29.28a.71.71,0,0,0,.2.24c.06,0,.28,0,.28,0s-.14.14-.23.13a.62.62,0,0,0,.12.23C8.38,8.62,8.48,8.72,8.43,8.8Z"/><path d="M5.07,9.81a2.63,2.63,0,0,0-.33.29c-.09.11-.18.22-.38.16s-.23-.33-.23-.33a1,1,0,0,1,.29-.19,1.89,1.89,0,0,0-.29,0,3.66,3.66,0,0,0,0-.37.72.72,0,0,0-.07-.28A.84.84,0,0,1,4.25,9a1.14,1.14,0,0,1-.37,0A.41.41,0,0,0,4,9a.33.33,0,0,1,0-.21s.15-.18.2-.22a.7.7,0,0,1,.32,0c.13,0,.15.1.15.1a.38.38,0,0,0,.14,0,1.45,1.45,0,0,1-.29.13h.18s0,.22.08.33a.75.75,0,0,0,.07.12.89.89,0,0,1-.24.12A1.36,1.36,0,0,0,5,9.3l.1.1C5.2,9.5,5.13,9.76,5.07,9.81Z"/><path d="M11,6a.19.19,0,0,1,0,.13.43.43,0,0,1,0,.12.29.29,0,0,1-.13.11l.15.07-.2,0a.4.4,0,0,0-.12.1.24.24,0,0,1-.2.11l-.17,0,.09.08a.38.38,0,0,1-.14,0c-.06,0-.21-.08-.26-.09h.14a3.1,3.1,0,0,1-.25-.21l.14,0s-.14-.08-.15-.18A.14.14,0,0,1,10,6.13s.11,0,.13-.07a.2.2,0,0,0,0-.08l.24,0s-.06-.1-.11-.12a.23.23,0,0,1,.07-.06.88.88,0,0,0,.2-.09.19.19,0,0,1,.16,0,2.27,2.27,0,0,1,.22.08.43.43,0,0,1-.07-.07.41.41,0,0,1,.16,0c.05,0,.08.07.05.11S11,5.93,11,6s.07.08.11.1Z"/><path class="cls-3" d="M12.82,9.39c-.26-.23-.5-.47-.77-.69-.61-.16-1.28-.32-2-.46L8.75,8c.4,0,.84.09,1.31.16s1.18.19,1.71.3c-.29-.21-.59-.38-.89-.56a2.1,2.1,0,0,1-.3-.22.29.29,0,0,1-.1-.16v0h0v0h0v0h0a.4.4,0,0,1,.12-.16l0,0h0l0,0h0v0a2.27,2.27,0,0,1,1.42-.92A.89.89,0,0,0,11.92,6a.82.82,0,0,1,.38,0h0c0-.09,0-.14,0-.15a.8.8,0,0,1,.19,0l-.13-.08-.51-.11a13.73,13.73,0,0,0-2.12-.22H9.36a.47.47,0,0,1,.23.21l-.42,0,.12,0-.2,0,.06,0a.2.2,0,0,1,0,.08.13.13,0,0,0,0,.11,1.27,1.27,0,0,1,.06.18L9,6.09l.28.15H9.21s-.08,0-.09.07,0,.16-.07.22-.17,0-.2.08,0,.08,0,.08l-.2,0a.71.71,0,0,0,.12.11H8.65a.59.59,0,0,1-.37-.06c-.1-.08,0-.15,0-.18s0-.06,0-.14-.06-.08-.05-.12a2.53,2.53,0,0,1,.34,0,1.85,1.85,0,0,0-.34-.16.18.18,0,0,1,.06-.07.32.32,0,0,0,.15-.17l.28,0a2.59,2.59,0,0,0-.35-.15h.18a.31.31,0,0,0,.12-.06l.07,0a5.37,5.37,0,0,0-1,.12L6,6.18H6A1.71,1.71,0,0,0,6.22,6l-.49.1a3.29,3.29,0,0,1-.83.07,7.78,7.78,0,0,1-1.35-.23l-.12,0L3.65,6a3.93,3.93,0,0,0,.68.34l.21.07.25.07.22,0a1.91,1.91,0,0,0,.41,0,3,3,0,0,0,.42,0L6.3,6.4l.08,0A4.14,4.14,0,0,0,7,6.12L7.15,6h0a6.44,6.44,0,0,1-.55.42l-.12.07-.2.11-.17.08L6,6.75H6l0,0L5.65,7h0L5.53,7h0a1.66,1.66,0,0,1-.31.12L5,7.21a3.39,3.39,0,0,1-1,.17l.14,0c.18,0,.61.08.63.08h0l0,0a2.43,2.43,0,0,1-1,.49,3.71,3.71,0,0,1-.58.11H3.12l0,0A2.37,2.37,0,0,0,3,9.1a4.26,4.26,0,0,0,.06.5h0l.07-.07a.54.54,0,0,1,.25-.09h0a.25.25,0,0,0-.12,0h0a.77.77,0,0,1,.3,0h0a.21.21,0,0,1,.14.1h0v0h0v0h0v0a.24.24,0,0,1,0,.08,1.43,1.43,0,0,0-.1.29s-.14.13-.18.16h0l.12,0h.06a1.22,1.22,0,0,0,.17.24.46.46,0,0,1,.16.28H4l0,0,0,0h0a1.05,1.05,0,0,1-.31.3.52.52,0,0,0,.21,0H4a.77.77,0,0,1-.23.51,2.52,2.52,0,0,0,.3.39h0l0,0v0l.11-.09.18-.13.19-.11h0a.15.15,0,0,1,0-.12.18.18,0,0,1,.08-.05l0,0h0v0h0v0a.43.43,0,0,0,0,0,.17.17,0,0,1,0-.07h0l-.13,0-.21,0a.58.58,0,0,0-.14,0,4.83,4.83,0,0,1,1.19-.57l.44-.13a.33.33,0,0,1-.11-.13C5.89,10,6,9.86,6,9.8a.08.08,0,0,0,0-.1.36.36,0,0,0,.1-.12h0l-.26,0h0a.31.31,0,0,1-.09-.25l0-.17H5.71l-.09,0h0A1,1,0,0,0,6,9H6l-.2,0h0a.17.17,0,0,1,.07-.12H6l.1,0h0L6.3,9h0a.36.36,0,0,1,.17.18.43.43,0,0,0,.13.22h0l.08.06,0,0h0l.11,0H7l0,0a.28.28,0,0,1,.11.13l.59-.05-.08-.08a2,2,0,0,0-.72-.37,12.26,12.26,0,0,1,1.48-.1c.28,0,.56,0,.84,0A.84.84,0,0,0,9,9a2.9,2.9,0,0,1,.51,0,4.19,4.19,0,0,0-.46-.16l-.32-.09h0l.22,0H9l1.26.15c.53.07,1.05.16,1.58.26s1,.21,1.42.33l.59.16C13.55,9.58,13.2,9.48,12.82,9.39ZM10,6.13s.11,0,.13-.07a.2.2,0,0,0,0-.08l.24,0a.54.54,0,0,0-.11-.12.23.23,0,0,1,.07-.06.88.88,0,0,0,.2-.09.19.19,0,0,1,.16,0,2.27,2.27,0,0,1,.22.08.43.43,0,0,1-.07-.07.41.41,0,0,1,.16,0c.05,0,.08.07.05.11S11,5.93,11,6s.07.08.11.1L11,6a.19.19,0,0,1,0,.13.43.43,0,0,1,0,.12.29.29,0,0,1-.13.11l.15.07-.2,0a.4.4,0,0,0-.12.1.24.24,0,0,1-.2.11l-.17,0,.09.08a.38.38,0,0,1-.14,0c-.06,0-.21-.08-.26-.09h.14a3.1,3.1,0,0,1-.25-.21l.14,0s-.14-.08-.15-.18A.14.14,0,0,1,10,6.13ZM9,7.4A.06.06,0,0,1,9,7.35a.37.37,0,0,0,.15,0s0-.07.08-.1a.31.31,0,0,1,.21,0l.17.06H9.44a1.23,1.23,0,0,1,.31.14c.11.07.07.13.15.16s0,.06,0,.06l-.27,0,.23.08a.07.07,0,0,1,0,0s-.07,0-.1,0-.07.07-.1.1a.17.17,0,0,1-.09,0,.14.14,0,0,1-.05.07s-.1,0-.18,0-.11-.18-.11-.18A1.07,1.07,0,0,0,9,7.6l.12,0S9,7.5,9,7.5l-.11,0a2.54,2.54,0,0,1,.33.06A1.78,1.78,0,0,0,9,7.4ZM5.07,9.81a2.63,2.63,0,0,0-.33.29c-.09.11-.18.22-.38.16s-.23-.33-.23-.33a1,1,0,0,1,.29-.19,1.89,1.89,0,0,0-.29,0,3.66,3.66,0,0,0,0-.37.72.72,0,0,0-.07-.28A.84.84,0,0,1,4.25,9a1.14,1.14,0,0,1-.37,0A.41.41,0,0,0,4,9a.33.33,0,0,1,0-.21s.15-.18.2-.22a.7.7,0,0,1,.32,0c.13,0,.15.1.15.1a.38.38,0,0,0,.14,0,1.45,1.45,0,0,1-.29.13h.18s0,.22.08.33a.75.75,0,0,0,.07.12,1.33,1.33,0,0,1-.24.12A1.36,1.36,0,0,0,5,9.3l.1.1C5.2,9.5,5.13,9.76,5.07,9.81ZM5.9,8.2c-.05,0-.05.06-.09.11s-.26.06-.26.06a1.07,1.07,0,0,0-.31,0l.21.06a1.17,1.17,0,0,1-.24,0c-.1,0-.16-.12-.22-.2A.24.24,0,0,1,5,8L4.94,8h.33l-.22,0,0-.12s.16,0,.21,0,.12-.06.16-.07.15,0,.22,0,.06.06.06.06l-.14,0,.21,0s.13.07.16.14A.19.19,0,0,1,5.9,8.2Zm1.18-.89c-.07.09-.23.06-.23.06a.54.54,0,0,1-.35.09,1.05,1.05,0,0,1-.32-.09,1.31,1.31,0,0,1-.26-.09,1.94,1.94,0,0,0,.4,0,.58.58,0,0,1-.24-.12.11.11,0,0,0,0-.1.31.31,0,0,1,0-.19,1.73,1.73,0,0,0,.24.1.74.74,0,0,1-.14-.17.26.26,0,0,0,.14,0c.06,0,.13-.15.25-.15a.24.24,0,0,1,.11-.06l.1,0a.92.92,0,0,0,.18,0,1.29,1.29,0,0,1-.18-.14l.12,0a.29.29,0,0,1,.16,0c.1,0,.17.1.17.17s-.09.15-.06.2A.62.62,0,0,0,7.49,7H7.25a.18.18,0,0,1-.11,0,.06.06,0,0,0,0,.08S7.16,7.23,7.08,7.31ZM8.43,8.8c-.06.08-.26.1-.37.09A1,1,0,0,1,7.73,9a2.36,2.36,0,0,1-.33-.1.48.48,0,0,1,.13,0,.65.65,0,0,0-.14-.17,1.12,1.12,0,0,1-.24-.28,1.4,1.4,0,0,1,.22-.08.63.63,0,0,1-.24,0,.56.56,0,0,1,0-.23.37.37,0,0,0,0-.15s0,0,0,0l.28-.06s0,0-.16-.07a.61.61,0,0,1,.27,0c.14,0,.24.19.29.28a.71.71,0,0,0,.2.24c.06,0,.26,0,.28,0s-.15.14-.23.13a.49.49,0,0,0,.12.23C8.37,8.62,8.48,8.72,8.43,8.8Z"/><path d="M6.41,11.82a.83.83,0,0,0-.2.13A.46.46,0,0,0,6,12.2a.93.93,0,0,1,.18-.13,1.3,1.3,0,0,0-.08.21c-.07.14-.22.13-.32.14a.62.62,0,0,1-.29-.12,1.15,1.15,0,0,0-.17.13,1,1,0,0,1,.24-.35,2.3,2.3,0,0,0-.22.14c-.08-.06-.36-.14-.55-.24a.32.32,0,0,1-.16-.3.81.81,0,0,1,.11-.28,1.06,1.06,0,0,0-.13.11.13.13,0,0,1,0-.06h0a.15.15,0,0,1,0-.12.18.18,0,0,1,.08-.05l0,0h0v0h0v0a.43.43,0,0,0,0,0,.17.17,0,0,1,0-.07.61.61,0,0,1,.18-.13.27.27,0,0,0-.06.17H5a.42.42,0,0,1,.35-.19.38.38,0,0,0-.11.05l.2.06a1.91,1.91,0,0,0,.43,0,2.3,2.3,0,0,1,.35,0L6.66,11l-.3.16C6.75,11.38,6.41,11.82,6.41,11.82Z"/><path d="M9.09,13a.32.32,0,0,1-.18.14l0-.05a.36.36,0,0,1-.19,0,.41.41,0,0,1,.06.17l0,.06h.11l-.06.09c0,.19-.14.26-.33.24a.88.88,0,0,1-.4-.2,1,1,0,0,1,.15-.27,1.53,1.53,0,0,0-.28.15c-.17-.1-.13-.07-.62-.13a2.36,2.36,0,0,1-.72-.2.46.46,0,0,1,.07-.19.54.54,0,0,0-.18.14.32.32,0,0,1-.12-.35c0-.19.33-.22.33-.22A.43.43,0,0,1,7,12.26l-.08.06a6.66,6.66,0,0,1,.69,0c.18,0,.38,0,.38,0l.19-.05-.33.22a1.94,1.94,0,0,1,.47-.16.53.53,0,0,1,.15,0c.09,0,.13.18.13.18s.2,0,.32.11A.47.47,0,0,1,9,13Z"/><path d="M9,6.09l.28.15H9.21s-.08,0-.09.07,0,.16-.07.22-.17,0-.2.08,0,.08,0,.08l-.2,0a.71.71,0,0,0,.12.11H8.65a.59.59,0,0,1-.37-.06c-.1-.08,0-.15,0-.18s0-.06,0-.14-.06-.08-.05-.12a2.53,2.53,0,0,1,.34,0,1.85,1.85,0,0,0-.34-.16.18.18,0,0,1,.06-.07.32.32,0,0,0,.15-.17l.28,0a3.3,3.3,0,0,0-.35-.15h.18a.31.31,0,0,0,.12-.06l.07,0a.44.44,0,0,1,.15,0,1.09,1.09,0,0,1,.34.06l.12,0-.2,0,.06,0a.2.2,0,0,1,0,.08.13.13,0,0,0,0,.11,1.27,1.27,0,0,1,.06.18Z"/><path d="M10,7.67l-.27,0,.23.08a.07.07,0,0,1,0,0s-.07,0-.1,0-.07.07-.1.1a.17.17,0,0,1-.09,0,.14.14,0,0,1-.05.07s-.1,0-.18,0-.11-.18-.11-.18A1.07,1.07,0,0,0,9,7.6l.12,0S9,7.5,9,7.5l-.11,0a2.54,2.54,0,0,1,.33.06A1.78,1.78,0,0,0,9,7.4.06.06,0,0,1,9,7.35a.37.37,0,0,0,.15,0s0-.07.08-.1a.31.31,0,0,1,.21,0l.17.06H9.44a1.23,1.23,0,0,1,.31.14c.11.07.07.13.15.16S10,7.67,10,7.67Z"/><path d="M8.31,4.76c0,.11-.15.2-.18.22S8,5.05,8,5.12a.17.17,0,0,1-.13.12s-.11.07-.11.07a.37.37,0,0,0,.17,0l-.12.1a.49.49,0,0,1-.2.05H7.38c-.13,0-.29,0-.34-.11S7,5.25,7,5.25a1.08,1.08,0,0,1-.3,0A1.26,1.26,0,0,0,7,5l-.22.06A.2.2,0,0,1,6.8,5a.11.11,0,0,1,.06-.09.15.15,0,0,1,0-.08.5.5,0,0,1,.26-.13.42.42,0,0,0,.22-.08.68.68,0,0,1,.33-.1.32.32,0,0,1,.13,0l.17,0a1.12,1.12,0,0,1-.25.16,1.18,1.18,0,0,0,.33-.09C8.27,4.57,8.32,4.65,8.31,4.76Z"/><path d="M10.61,4.6c0,.06,0,.21-.13.24l-.1,0v.17a.9.9,0,0,1-.14-.14.23.23,0,0,1-.11,0c-.08,0-.18.13-.33.12S9.55,5,9.51,4.86a.22.22,0,0,1,0-.21.58.58,0,0,0,.14.14.78.78,0,0,1-.05-.21s.05,0,.05-.08a.32.32,0,0,1,.16-.1.17.17,0,0,1,.12,0,1.08,1.08,0,0,0,.11.21,2,2,0,0,1,0-.41,1.46,1.46,0,0,0,.09.18l.17,0a.25.25,0,0,1,.24,0A.24.24,0,0,1,10.61,4.6Z"/><path d="M7.49,7H7.25A.24.24,0,0,1,7.14,7a0,0,0,0,0,0,.07s.07.15,0,.23-.23.06-.23.06a.54.54,0,0,1-.35.09,1.05,1.05,0,0,1-.32-.09,1.31,1.31,0,0,1-.26-.09,3.27,3.27,0,0,0,.4,0,.58.58,0,0,1-.24-.12.11.11,0,0,0,0-.1.31.31,0,0,1,0-.19,1.73,1.73,0,0,0,.24.1.74.74,0,0,1-.14-.17.26.26,0,0,0,.14,0c.06,0,.13-.15.25-.15a.24.24,0,0,1,.11-.06l.1,0a.92.92,0,0,0,.18,0,2.12,2.12,0,0,1-.19-.14l.13,0a.29.29,0,0,1,.16,0c.1,0,.17.1.17.17s-.09.15-.06.2A.62.62,0,0,0,7.49,7Z"/><path class="cls-3" d="M17.43,8c0,.09-.19.06-.33.05A3.75,3.75,0,0,0,16,8.24a3.11,3.11,0,0,0-.61.2l-.17.08a1.18,1.18,0,0,0-.19.11l0,0a.69.69,0,0,0-.19-.34l0,0-.06,0a1.17,1.17,0,0,0-.25-.13l-.11,0-.18,0h0a3,3,0,0,1,1-.32,7.31,7.31,0,0,1,1.59.15,1,1,0,0,0-.21-1.38,2.37,2.37,0,0,1,.54.68A3,3,0,0,1,17.43,8Z"/><path class="cls-3" d="M19.48,7.21a3.46,3.46,0,0,0-.43-.31l-.38-.21h0c.7.11.86-.07.9-.14h0l0,0A.62.62,0,0,1,19.48,7.21Z"/><path class="cls-4" d="M14.59,7.6a1.73,1.73,0,0,1-1.08.28,5,5,0,0,1-1.24-.73,3,3,0,0,1,.8,0h0a1,1,0,0,1,.26.15l.12.1.13.07v0a.22.22,0,0,0,.21.21A.21.21,0,0,0,14,7.54a.2.2,0,0,0,0-.13Z"/><path class="cls-1" d="M13.73,7.42a.09.09,0,0,1-.1.1h0l-.13-.07-.12-.1a1,1,0,0,0-.26-.15l.4.09.18,0S13.73,7.36,13.73,7.42Z"/><path class="cls-3" d="M16,7.61a1,1,0,0,0,.38-.19h0a1,1,0,0,1-.71,0l-.12,0,0,0a4.81,4.81,0,0,1-.66-.45,5.5,5.5,0,0,0-1.14-.69l-.11.09h0a.72.72,0,0,0,.25.49,4.1,4.1,0,0,0,.64.37.49.49,0,0,1,0-.16,1.11,1.11,0,0,0,.4.36l0,0,.23.1.18.06A1.68,1.68,0,0,0,16,7.61Z"/><path class="cls-1" d="M13.44,8.11a4.51,4.51,0,0,0-.63-.29l-.39-.22a5.69,5.69,0,0,1-.52-.33,1.31,1.31,0,0,1-.24-.17h-.37a1.46,1.46,0,0,0,.26.39.71.71,0,0,1-.23,0,2.15,2.15,0,0,0,1.11.65,4,4,0,0,0,.78.07l-.15.06a2.19,2.19,0,0,1,.37,0l.09,0,.43.13,0,0-.15-.1A4.48,4.48,0,0,0,13.44,8.11Z"/><path class="cls-1" d="M11.45,6.83A3,3,0,0,1,12,6.72a4.15,4.15,0,0,1,1.65.22c.51.18,1,.44,1.51.58l.2.05h0l-.18-.06L15,7.42l0,0a1.11,1.11,0,0,1-.4-.36.49.49,0,0,0,0,.16,4.1,4.1,0,0,1-.64-.37.72.72,0,0,1-.25-.49h0l-.08.1a.5.5,0,0,0-.06.2.44.44,0,0,1-.1-.06.3.3,0,0,0,.11.15s.05.06,0,.11a.58.58,0,0,1-.19,0,.59.59,0,0,0-.14-.07h.07a.55.55,0,0,0-.08-.14.2.2,0,0,1-.1-.17.58.58,0,0,1,.14,0A.83.83,0,0,0,13,6.29h.13s0-.08.14-.16A.47.47,0,0,0,13.5,6s.05-.1.09-.13a.85.85,0,0,1,.14.09.46.46,0,0,0-.15-.18,1.17,1.17,0,0,0-.69.16l0,0H13l-.23,0L12.75,6a.3.3,0,0,0-.06.15.27.27,0,0,0,.05.14,1,1,0,0,1,.17.18s0,.13,0,.16l-.13-.07s.1.11.05.13a.42.42,0,0,0-.14-.1,2,2,0,0,1-.3-.16.34.34,0,0,1-.08-.14s0,0,.06,0l.1.06a.16.16,0,0,0-.05-.09s-.11-.06-.15-.11l.05,0a.56.56,0,0,0,0-.17.82.82,0,0,0-.38,0,.89.89,0,0,1,.23.22,2.27,2.27,0,0,0-1.42.92l0,0h0A2.46,2.46,0,0,1,11,7,1.89,1.89,0,0,1,11.45,6.83Z"/><path d="M16.58,6.51l-.16-.16h0v.09a.5.5,0,0,1,.05.13.53.53,0,0,1,.05.15s0,0,0,.06v0a.76.76,0,0,1,0,.42.33.33,0,0,1-.11.15v0a1,1,0,0,1-.38.19,1.68,1.68,0,0,1-.67,0h0l-.2-.05c-.53-.14-1-.4-1.51-.58A4.15,4.15,0,0,0,12,6.72a3,3,0,0,0-.52.11A1.89,1.89,0,0,0,11,7a2.46,2.46,0,0,0-.28.21h0a3.75,3.75,0,0,1,.39-.09l.13,0h.37a1.31,1.31,0,0,0,.24.17,5.69,5.69,0,0,0,.52.33l.39.22a4.51,4.51,0,0,1,.63.29,4.48,4.48,0,0,1,.39.23l.15.1.1.06a4.81,4.81,0,0,1,.52.4l.14.12.21.21v0s0,0,0,0a.42.42,0,0,1,0-.1,1.74,1.74,0,0,0-.1-.19,2.41,2.41,0,0,0-.23-.36,1.25,1.25,0,0,0-.15-.19l-.11-.13s-.07-.1-.12-.11h0a3,3,0,0,1,1-.32,7.31,7.31,0,0,1,1.59.15A1,1,0,0,0,16.58,6.51ZM13.51,7.88a5,5,0,0,1-1.24-.73,3,3,0,0,1,.8,0l.41.09.18,0s.07,0,.07.09a.09.09,0,0,1-.1.1h0v0a.22.22,0,0,0,.21.21A.21.21,0,0,0,14,7.54a.2.2,0,0,0,0-.13l.63.19A1.73,1.73,0,0,1,13.51,7.88Z"/></svg>