<svg id="Layer_1" data-name="Layer 1" xmlns="http://www.w3.org/2000/svg" viewBox="0 0 22 22"><defs><style>.cls-1{fill:#fff;}.cls-2,.cls-3{fill:#203731;}.cls-3{fill-opacity:0.94;}</style></defs><path class="cls-1" d="M20.55,8.15a10.81,10.81,0,0,0-3.94-2.39,16.45,16.45,0,0,0-5.57-1,15.61,15.61,0,0,0-7.6,2C1.26,8,0,9.65,0,11.24a4.43,4.43,0,0,0,1.47,3,11.36,11.36,0,0,0,4,2.44,16.1,16.1,0,0,0,5.5,1,16.71,16.71,0,0,0,5.57-.95,10.78,10.78,0,0,0,3.94-2.39A4.5,4.5,0,0,0,22,11.24a4.5,4.5,0,0,0-1.5-3.11"/><path class="cls-2" d="M21.42,11.26c0-2.82-4.59-5.83-10.38-5.83C5.51,5.43.66,8.46.66,11.26S5.51,17.08,11,17.08c5.79,0,10.38-3,10.38-5.82"/><path class="cls-1" d="M15.05,8.22v.61h1c.05,0,.13,0,.15,0s0,.14-.12.35l-1.29,2.14L13.41,9.17c-.11-.18-.1-.25-.09-.27s.07-.06.14-.07h.71V8.22H8.89v.61h.67a.44.44,0,0,1,.29.08.9.9,0,0,1,.11.56v2.25L7.28,8.23H4.64v.64h.87c.09,0,.16,0,.19.05s.07.24.07.4v3.53c0,.58-.06.74-.29.74H4.64v.57H7.47v-.58h-.8a.46.46,0,0,1-.27,0,1.74,1.74,0,0,1-.08-.71V9.74L10,14.15h.58v-5a.26.26,0,0,1,.26-.31h.57c.27,0,.44.31.61.61l1.55,2.63v1.12c0,.38-.17.38-.24.38h-.64v.58H16v-.58h-.61c-.24,0-.33-.08-.32-.43V12l1.64-2.75c.24-.37.26-.4.58-.4h.56V8.23H15.06"/><path class="cls-2" d="M15.2,8.4v.31H16s.6-.05.17.62l-1.41,2.35L13.27,9.27c-.39-.61.19-.56.19-.56H14V8.4H9v.3h.52c.49,0,.55.32.55.8v2.7L7.19,8.4H4.77v.33h.72c.46,0,.41.36.41.71v3.42c0,.48,0,.9-.44.9H4.77V14H7.29v-.26H6.64c-.43,0-.5-.07-.5-.9V9.3L10,14h.32V9.48c0-.48,0-.74.45-.76h.63c.34,0,.52.41.76.82l1.5,2.54v1.16c0,.36-.15.53-.4.53h-.49V14h3.06v-.28h-.47c-.37,0-.47-.21-.46-.58V12l1.55-2.61c.34-.52.36-.65.83-.65h.4V8.41h-2.5"/><path class="cls-3" d="M13.39,14.08c0-.69-1.05-1.43-2.35-1.43s-2.35.74-2.35,1.43,1.1,1.43,2.35,1.43,2.35-.74,2.35-1.43"/><path class="cls-1" d="M13.21,14c-.08-.59-1-1.2-2.2-1.2S8.9,13.42,8.82,14H13.2"/><path class="cls-1" d="M8.83,14.15c.08.59,1.07,1.2,2.19,1.2s2.12-.61,2.2-1.2H8.84"/><path class="cls-2" d="M10.24,14.58a.51.51,0,1,1,0-1h1.59a.53.53,0,0,1,.54.51.52.52,0,0,1-.54.51H10.24"/><path class="cls-1" d="M11.91,13.86a.06.06,0,0,1,0,0h-.15v0a.77.77,0,0,1,0,.15h-.26a.61.61,0,0,0,0-.13h-.14l0,.13h-.27v-.12H11V14h-.28l0-.13h-.14a.59.59,0,0,0,0,.13h-.27a.77.77,0,0,1,0-.15l0,0h-.15v0a.91.91,0,0,0,0,.23,1.12,1.12,0,0,0,0,.27h.15a.64.64,0,0,1,0-.2h.26l0,.15h.14l0-.14H11v.14h.15v-.14h.27l0,.14h.14a.8.8,0,0,0,0-.15h.27a1.18,1.18,0,0,1,0,.2h.15a1.12,1.12,0,0,0,0-.27,1.79,1.79,0,0,0,0-.23"/><path class="cls-2" d="M17.87,10.24c-.15-.29-.56-.46-1.19-.48a4,4,0,0,0-1.1.08H8.1l.38-.71H6.64L5.37,11.52c-.1.15-.12.15-.22.14H5.09a1.08,1.08,0,0,1,.12-.24l.44-.72H3.93l-.05.07c-.51.65-.65,1.19-.45,1.55s.65.56,1.38.55a2.79,2.79,0,0,0,1.56-.28H10.1l1-1.79h.83l-1,1.79h1.9l.6-1.12h.81l0,.1a.76.76,0,0,0,0,.74,1.32,1.32,0,0,0,1.15.4c1,0,1.61-.09,1.91-.55a.82.82,0,0,0,.11-1,.63.63,0,0,0-.23-.19h.55l.05-.08a.67.67,0,0,0,.07-.68"/><path class="cls-3" d="M17.44,11.18h0"/><path class="cls-1" d="M5.32,10.86H4c-.89,1.23-.45,1.84.83,1.83s1.57-.08,2.05-1L8.18,9.3H6.72L5.5,11.6c-.11.17-.18.25-.39.23s-.23-.23-.07-.51l.28-.47"/><path class="cls-1" d="M11.26,12.41h1.51l1-1.77h.69l.34-.62H11.69l-.32.6h.84l-1,1.79"/><path class="cls-1" d="M14.4,11.62c-.23.57.12.91,1,.91s1.52-.09,1.77-.48a.7.7,0,0,0,.11-.77,1.61,1.61,0,0,0-.88-.36c-.23-.05-.31-.11-.3-.24s.17-.16.29-.13a.23.23,0,0,1,.12.27h1.13c.3-.49-.05-.86-1-.9-1.16,0-1.6.18-1.83.77-.11.27-.09.48.07.59a5.48,5.48,0,0,0,1,.29.16.16,0,0,1,.06.25.26.26,0,0,1-.33,0c-.08,0-.07-.12-.09-.24H14.41"/><path class="cls-1" d="M7.13,12.41H10l.32-.6H8.77l.15-.29h1.41l.33-.62H9.34l.13-.28H10.9l.33-.6H8.41l-1.28,2.4"/></svg>