<svg id="Layer_1" data-name="Layer 1" xmlns="http://www.w3.org/2000/svg" viewBox="0 0 22 22"><defs><style>.cls-1{fill:#fff;}.cls-2{fill:#006db0;}</style></defs><path d="M19.26,7.58a1,1,0,0,1,.56-.23.84.84,0,0,1,.6.21,1.34,1.34,0,0,1,.48,0,1.37,1.37,0,0,1,.74.51.8.8,0,0,1,0,.78.65.65,0,0,1-.07.4.92.92,0,0,1-.31.33,1,1,0,0,1-.47.48,1.21,1.21,0,0,1-.79,0,2.94,2.94,0,0,1-.45.05A1.71,1.71,0,0,1,19,10l-.29.42a2.15,2.15,0,0,0,.66.38,3.33,3.33,0,0,1,.76.27.73.73,0,0,1,.22.22,1.28,1.28,0,0,1,.47,0,1.24,1.24,0,0,1,.67.47,1,1,0,0,1,.21.84.67.67,0,0,1-.24.4,1.19,1.19,0,0,1-.25.44.67.67,0,0,1-.4.17.71.71,0,0,1-.47.23.78.78,0,0,1-.58-.13,1.67,1.67,0,0,1-.62-.08,1.33,1.33,0,0,1-.61-.49,2,2,0,0,0-.67-.13A5.16,5.16,0,0,1,16,12.56a3,3,0,0,1-1,.17,1.29,1.29,0,0,0-.33-.53s-.67.37-.88.47a2.83,2.83,0,0,1-.93.29,3.51,3.51,0,0,1-.25.85,1.33,1.33,0,0,1-.74.6,1.34,1.34,0,0,1,.58.44.9.9,0,0,1,.14.89.75.75,0,0,1-.29.33.72.72,0,0,1-.39.41,1.31,1.31,0,0,1-.7.06,1.2,1.2,0,0,1-.51.11A1.5,1.5,0,0,1,10,16.4a11.71,11.71,0,0,1-1.25.06A.85.85,0,0,1,8,15.9a2.91,2.91,0,0,1-.44.27,8,8,0,0,0-1.13.63l0,.19a.89.89,0,0,1,.55.73.82.82,0,0,1-.34.8.84.84,0,0,1-.35.36.87.87,0,0,1-.5.07,1,1,0,0,1-1-.17,1.06,1.06,0,0,1-.32-1c0-.11,0-1.09,0-1.14A1,1,0,0,1,4.31,16a1.07,1.07,0,0,1,.43-.65,1.12,1.12,0,0,0,.34-.54,7.4,7.4,0,0,0,.1-1c0-.19,0-.52,0-.52a3.21,3.21,0,0,1-1.35-.76,2.7,2.7,0,0,1-.7-1.39A1.83,1.83,0,0,0,2.5,9.85a1.07,1.07,0,0,1-.65,0,1.94,1.94,0,0,1-.79-.71A2.54,2.54,0,0,0-.25,8.67a3.88,3.88,0,0,1,1.41-.94,1.61,1.61,0,0,1,1.46,0,1.21,1.21,0,0,1,.58.75,2.79,2.79,0,0,1,.89.65,2.91,2.91,0,0,1,.65,1.27,1.41,1.41,0,0,0,1.2,1.23,9.06,9.06,0,0,1,.76-.69,2.37,2.37,0,0,1,.55-.24l.43-.13s.56-.46.65-.55.21-.37.34-.58A2.56,2.56,0,0,1,9,9a2.41,2.41,0,0,1-.26-1A1,1,0,0,0,9,8a1.52,1.52,0,0,1,.26-.78,3.38,3.38,0,0,1,.53-.61,1.85,1.85,0,0,1,.28-1,1.79,1.79,0,0,1-.25-.6,3.68,3.68,0,0,0,.67-.12,1,1,0,0,0,.58-.31A2.94,2.94,0,0,1,12,3.8a2.68,2.68,0,0,1,1.29-.26,1.74,1.74,0,0,0-.45-.26,2.62,2.62,0,0,1,1.21-.39,2.5,2.5,0,0,1,.09-.62,12.09,12.09,0,0,0,1.61.94c.54.21.93.28,1.21.41a1.07,1.07,0,0,1,.52.55,2.45,2.45,0,0,1,.53.28,1.28,1.28,0,0,1,.36.55,6.75,6.75,0,0,1,.88.44,6.71,6.71,0,0,1,1,.85,1.74,1.74,0,0,0-.64.58,2.22,2.22,0,0,1-.36.71"/><path class="cls-1" d="M18.63,7.78a1.35,1.35,0,0,1,.38,0,1.5,1.5,0,0,1,.29.11,2,2,0,0,0,.2-.14.61.61,0,0,1,.44-.13.51.51,0,0,1,.34.2h.29a1,1,0,0,1,.61.2c.2.17.39.41.14.74a.53.53,0,0,1,0,.35.56.56,0,0,1-.27.23.73.73,0,0,1-.39.45A1,1,0,0,1,20,9.76a2.21,2.21,0,0,1-.57.06A1.17,1.17,0,0,1,19,9.6a.71.71,0,0,0-.11.12c-.05.07-.46.64-.55.74a2.86,2.86,0,0,0,.79.55,3.13,3.13,0,0,0,.69.21.67.67,0,0,1,.41.41,1.91,1.91,0,0,1,.42-.05.83.83,0,0,1,.62.34.61.61,0,0,1,.17.69.52.52,0,0,1-.21.23.64.64,0,0,1-.17.38.45.45,0,0,1-.35.11.53.53,0,0,1-.28.22.64.64,0,0,1-.53-.13,1.75,1.75,0,0,1-.71-.1,1,1,0,0,1-.4-.41,2.92,2.92,0,0,0-1-.19,4.38,4.38,0,0,1-1.74-.49,2.54,2.54,0,0,1-.85.21,1.17,1.17,0,0,0-.52-.59s-.88.48-1.19.63a3.89,3.89,0,0,1-1,.2,1,1,0,0,1,0,.35,2.67,2.67,0,0,1-.28.78,1.71,1.71,0,0,1-.61.38,6.2,6.2,0,0,0-.6.21,3.05,3.05,0,0,0-.52.38,1.86,1.86,0,0,0,.38.07,1.58,1.58,0,0,0,.36-.13.78.78,0,0,1,.71.08.84.84,0,0,1,.38.64.48.48,0,0,1-.31.42.49.49,0,0,1-.28.35,1.34,1.34,0,0,1-.61,0,.87.87,0,0,1-.39.13,1.22,1.22,0,0,1-.55-.2.34.34,0,0,0-.17,0c-.08,0-.93.07-1.19.07a.6.6,0,0,1-.56-.33c-.11-.21.05-.54.14-.67l.28-.35a.1.1,0,0,0,0-.14,1.81,1.81,0,0,0-.22-.12l-.36.7a1.31,1.31,0,0,1-.48.53c-.25.15-.77.38-1,.55a2.54,2.54,0,0,0-.44.33s0,.5,0,.56a1.1,1.1,0,0,1,.35.13.52.52,0,0,1,.19.42c0,.2,0,.43-.27.52a.52.52,0,0,1-.26.32.57.57,0,0,1-.38,0,.89.89,0,0,1-.53.07.66.66,0,0,1-.51-.62c0-.28,0-1.32,0-1.38a.42.42,0,0,0,0-.23A.86.86,0,0,1,4.6,16a.87.87,0,0,1,.32-.43,1.08,1.08,0,0,0,.38-.47,3,3,0,0,0,.16-.79c0-.24,0-1,.09-1.25a3.35,3.35,0,0,1-1.49-.76,2.92,2.92,0,0,1-.67-1.51,1.65,1.65,0,0,0-.84-1.28.84.84,0,0,1-.66,0c-.37-.16-.57-.59-.77-.73a2,2,0,0,0-.85-.23A5.14,5.14,0,0,1,1.36,8,1.35,1.35,0,0,1,2.58,8a1.1,1.1,0,0,1,.35.66,2.81,2.81,0,0,1,1,.69,2.72,2.72,0,0,1,.53,1.14,2.06,2.06,0,0,0,.64,1.07,2.11,2.11,0,0,0,1,.36,10.58,10.58,0,0,1,.8-.77A1.74,1.74,0,0,1,7.4,11l.44-.15s.61-.52.73-.61.35-.61.45-.76S9.39,9,9.39,9a1,1,0,0,1-.24-.64.92.92,0,0,0,.23,0,.73.73,0,0,1-.06-.49,2.47,2.47,0,0,1,.78-1.1,1.84,1.84,0,0,1,.07-.59,2,2,0,0,1,.26-.51,1.13,1.13,0,0,1-.22-.42,3.37,3.37,0,0,0,.61-.11,1.3,1.3,0,0,0,.44-.26A2.8,2.8,0,0,1,12.32,4a2.87,2.87,0,0,1,1.17-.14,4.13,4.13,0,0,1,.41-.24,1.62,1.62,0,0,0-.42-.33,2.65,2.65,0,0,1,.86-.11,2,2,0,0,1,.05-.45,9.09,9.09,0,0,0,1,.66c.33.15.95.35,1.16.42a.85.85,0,0,1,.65.58l.48.22a.93.93,0,0,1,.31.33.63.63,0,0,0,.09.22.29.29,0,0,0,.15.12,5.18,5.18,0,0,1,.9.48c.26.2.62.54.62.54a3.73,3.73,0,0,0-.44.42,2.67,2.67,0,0,1-.28.61,1.06,1.06,0,0,1-.44.36Z"/><path class="cls-2" d="M15.57,8.63a2.56,2.56,0,0,0-2.38-.17,2.69,2.69,0,0,1,2.42-.14A.68.68,0,0,1,16,9h0a2.13,2.13,0,0,0,.57-.21c0-.31.2-.63.5-.62a2.44,2.44,0,0,1,.77.26,6.4,6.4,0,0,1-2.17,1,.62.62,0,0,0-.11-.8m-4-.12a2.06,2.06,0,0,1-1.23-.09,4.56,4.56,0,0,0,2.33-.8,2.49,2.49,0,0,1,1.93-.08A2.7,2.7,0,0,0,13,7.81a5.74,5.74,0,0,1-1.41.7m2.36-2a2.15,2.15,0,0,1,1.41.91,3.37,3.37,0,0,0-1.51-.67A3.64,3.64,0,0,0,12.3,7a2,2,0,0,1,1.62-.45m3.3-1c.1,0,.31.14.45.15a1.08,1.08,0,0,0-.14.21s0,.13,0,.13l-.37-.27a1.71,1.71,0,0,0-.43-.14,4.05,4.05,0,0,1,.44-.08m.64,5c.34-.3.68-.93.85-1.07a.5.5,0,0,1,.37-.11.61.61,0,0,0,.43.22A1.56,1.56,0,0,0,20,9.43s.4.17.54.09.22-.37.22-.37S21,9.1,21,9A.67.67,0,0,0,21,8.71s.15-.1.17-.17-.05-.15-.12-.2a.72.72,0,0,0-.42-.17,3.55,3.55,0,0,1-.5,0S20,8,19.94,8a.29.29,0,0,0-.28.08.72.72,0,0,1-.36.2c-.1,0-.17-.1-.48-.16a.66.66,0,0,0-.49.09,3.16,3.16,0,0,0,0-.38s-.07,0-.07,0,0-.38,0-.38-.32.49-.58.36-.18-.61-.18-.61a2,2,0,0,1,1-.21.59.59,0,0,1,0,.49c.47-.16.58-.74.63-.86a1,1,0,0,1,.31-.26,4.18,4.18,0,0,0-.52-.4,6.35,6.35,0,0,0-.83-.4.61.61,0,0,1-.22-.29.64.64,0,0,0-.25-.35c-.17-.09-.64-.29-.64-.29s.07-.09,0-.27-.51-.25-1.15-.47a3.41,3.41,0,0,1-1.09-.62.55.55,0,0,0,.12.36A3.12,3.12,0,0,0,14,3.46a1.29,1.29,0,0,1,.45.32,1.53,1.53,0,0,0-.57.21.53.53,0,0,1,.41.15c-.27.13-.84,0-1.48.05a1.92,1.92,0,0,0-1.07.6.59.59,0,0,1,.45,0,4.26,4.26,0,0,0-1,.49,1.1,1.1,0,0,1-.54.11.44.44,0,0,0,.29.21,1.48,1.48,0,0,0-.44.66c.16-.19.41-.17.46-.06s0,.31-.24.47a4.5,4.5,0,0,0-.85.82,1.44,1.44,0,0,0-.26.59c.27-.11.37,0,.35.12s-.45.41-.45.41c.1.16.47.17.47.17s-.43.49-.61.75-.47.79-.53.87-.7.59-.78.67a9.23,9.23,0,0,1-.9.31,5.34,5.34,0,0,0-.91.85l0,0a2.49,2.49,0,0,1-1.3-.44,2.34,2.34,0,0,1-.77-1.36,2.49,2.49,0,0,0-.46-.92,4.19,4.19,0,0,0-1-.67,1.18,1.18,0,0,0-.3-.62.92.92,0,0,0-.7-.09.71.71,0,0,0-.16.05,2.63,2.63,0,0,1,.34.06c.31.08.33.3.33.3A1.09,1.09,0,0,0,1,8.45a.68.68,0,0,1,.42.22A1.35,1.35,0,0,0,2,9.19a.55.55,0,0,0,.6,0,2.24,2.24,0,0,1,.78.64,4.26,4.26,0,0,1,.45,1.29,1.91,1.91,0,0,0,.67,1.15,3.83,3.83,0,0,0,1.48.59l0,.1a8.09,8.09,0,0,0-.13,1.36,2.49,2.49,0,0,1-.28,1.12c-.13.24-.54.47-.57.62s.15.29.17.51,0,1.14,0,1.28a.72.72,0,0,0,.05.41.34.34,0,0,0,.36.17.34.34,0,0,0,.23-.12s.24.1.35,0,.1-.29.1-.29.16,0,.21-.05a.37.37,0,0,0,0-.35c-.07-.1-.46-.13-.46-.13a4.15,4.15,0,0,1,0-1c.06-.16.49-.42.83-.61a6.24,6.24,0,0,0,1-.54,8,8,0,0,0,.61-1.11A3.09,3.09,0,0,1,9.7,12.76h0c-.74.65-.8.9-.8.9a4.76,4.76,0,0,1,1.35-.83,4.43,4.43,0,0,1,1.29-.37,8.53,8.53,0,0,0-1.92.93,4,4,0,0,0-1,.89c.54.22.5.45.45.58s-.39.5-.45.65,0,.32.25.34,1-.08,1.27-.06.39.25.62.25a.42.42,0,0,0,.34-.16,1.11,1.11,0,0,0,.59,0c.12-.06.09-.29.09-.29.2,0,.32-.13.29-.24a.59.59,0,0,0-.28-.35.42.42,0,0,0-.43,0,1,1,0,0,1-.46.13c-.18,0-.84-.16-.84-.16a1.85,1.85,0,0,1,1-.93,3.8,3.8,0,0,0,.92-.39,1.68,1.68,0,0,0,.31-.81,2.31,2.31,0,0,0-.09-.46,5.41,5.41,0,0,0,1.11-.18c.23-.09.67-.33,1-.5a4.71,4.71,0,0,0-2.11-.31,4.73,4.73,0,0,1,2.5.09,1.32,1.32,0,0,1,.72.6,2.94,2.94,0,0,0,.71-.23,9.3,9.3,0,0,0,1.78-1.41"/><path class="cls-2" d="M21.13,12.38a.82.82,0,0,0-.37-.45c-.17-.09-.37,0-.53,0a.33.33,0,0,1-.31-.18.43.43,0,0,0-.27-.24,4.08,4.08,0,0,1-.83-.29,3.17,3.17,0,0,1-.73-.53,9.26,9.26,0,0,1-.75.69,7.82,7.82,0,0,1-1,.67,5.42,5.42,0,0,0,1.78.39,2.91,2.91,0,0,1,.84.24.59.59,0,0,0,.32.36,1.37,1.37,0,0,0,.65.06s.2.19.36.14a.31.31,0,0,0,.18-.27s.21.1.32,0,.07-.39.07-.39.29-.08.25-.23"/></svg>