<svg id="Layer_1" data-name="Layer 1" xmlns="http://www.w3.org/2000/svg" viewBox="0 0 22 22"><defs><style>.cls-1{fill:#b21e35;}.cls-2{fill:#25316a;}</style></defs><path class="cls-1" d="M21.39,2.59H18.1v7.76c0,.19-.05,1.13-.83,1.13a.59.59,0,0,1-.5-.17,1.47,1.47,0,0,1-.29-.89V2.59H11.16V5.76h.61c.55,0,.73.14.78.2a.28.28,0,0,1,.06.18V11.5a3.46,3.46,0,0,0,1,2.51,3.72,3.72,0,0,0,2.67,1,4.25,4.25,0,0,0,1.88-.42v.23a3,3,0,0,1-.1,1.08s-.14.08-.69.08H1.56v3.64h17a3.55,3.55,0,0,0,2.79-1.05,3,3,0,0,0,.69-2v-14Z"/><path class="cls-1" d="M1.56,14.8H5.33V6.67a.78.78,0,0,1,.15-.53,1,1,0,0,1,.74-.23.82.82,0,0,1,.58.18A1,1,0,0,1,7,6.68H7v6.08a2.26,2.26,0,0,0,.55,1.51,1.73,1.73,0,0,0,1.3.52h3.23V11.6l-.69.09a.67.67,0,0,1-.47-.1.6.6,0,0,1-.14-.44V5.42A3.24,3.24,0,0,0,10,3.25,3.15,3.15,0,0,0,7.6,2.37,4.11,4.11,0,0,0,5.28,3V2.59H0V5.9l.74-.15a.91.91,0,0,1,.67.1.71.71,0,0,1,.15.51V14.8Z"/><path class="cls-2" d="M12.94,11.5a3.1,3.1,0,0,0,.87,2.27,3.34,3.34,0,0,0,2.43.92,4,4,0,0,0,2.21-.64v.81c0,.7,0,1.13-.19,1.3s-.39.17-.93.17H1.89v3l16.63,0a3.21,3.21,0,0,0,2.54-.93,2.68,2.68,0,0,0,.62-1.75c0-.12,0-.2,0-.23s0-13.46,0-13.46H18.44v7.42c0,.06,0,1.47-1.16,1.47a1,1,0,0,1-.74-.28,1.8,1.8,0,0,1-.38-1.13V2.93H11.49V5.42h.28a1.34,1.34,0,0,1,1,.33.63.63,0,0,1,.13.49Z"/><path class="cls-2" d="M1.89,14.47H5V6.71a1.14,1.14,0,0,1,.23-.79,1.25,1.25,0,0,1,1-.34A1.06,1.06,0,0,1,7,5.86a1.27,1.27,0,0,1,.3.82v6.11a1.9,1.9,0,0,0,.46,1.26,1.38,1.38,0,0,0,1.06.41h2.9V12l-.32,0a1.05,1.05,0,0,1-.73-.18.87.87,0,0,1-.24-.69V5.4a2.84,2.84,0,0,0-.72-1.92A2.83,2.83,0,0,0,7.6,2.7a3.56,3.56,0,0,0-2.66,1V2.93H.33V5.5l.34-.08a1.25,1.25,0,0,1,1,.18,1,1,0,0,1,.26.76Z"/></svg>