<svg id="Layer_1" data-name="Layer 1" xmlns="http://www.w3.org/2000/svg" viewBox="0 0 22 22"><defs><style>.cls-1{fill:#fcda2d;}.cls-2{fill:#354733;}.cls-3{fill:#fff;}</style></defs><path class="cls-1" d="M22.05,11.49c0,4-4.93,7.21-11,7.21s-11-3.23-11-7.21S5,4.28,11.05,4.28s11,3.23,11,7.21Z"/><path class="cls-2" d="M21.67,11.49c0,3.85-4.75,7-10.62,7S.42,15.34.42,11.49s4.76-7,10.63-7,10.62,3.11,10.62,7Z"/><path class="cls-3" d="M19.85,9.59H15.64s-.8-2.09-4.4-2.09C8.8,7.49,5.5,8.66,5.5,11.42S8.23,15,10.66,15c5.25,0,5.18-2.22,5.18-2.22l-6.4,0V11.16l10.93,0c0,.1,0,.21,0,.31,0,3.38-4.18,5.89-9.33,5.89-6,0-9.34-3-9.34-5.89,0-3.07,4.41-5.83,9.34-5.83,4.13,0,7.53,1.72,8.8,3.93Z"/></svg>