<svg id="Layer_1" data-name="Layer 1" xmlns="http://www.w3.org/2000/svg" viewBox="0 0 22 22"><defs><style>.cls-1{fill:#2296cf;}.cls-1,.cls-2,.cls-3,.cls-4{fill-rule:evenodd;}.cls-2{fill:#fff;}.cls-4{fill:#cfd1d4;}</style></defs><path class="cls-1" d="M17,17.93l-1.06,0a14.89,14.89,0,0,1-4.2-1l-1.92-.78a14.83,14.83,0,0,0-4-1H5.7c-3.94-.21-5.55.45-5.55.45,4.75-5.65,8.63-7,8.63-7A2.59,2.59,0,0,1,8.1,7.34c-.06-.51.49-.44.49-.44A4.79,4.79,0,0,0,9.9,6.75a17.33,17.33,0,0,1,1.77-.42,16.26,16.26,0,0,1,3-.26,12.26,12.26,0,0,1,4.06.66A4.58,4.58,0,0,0,20.06,7c.29,0,.27.09.27.09a1.62,1.62,0,0,1-.57,1.2.83.83,0,0,1,.11.51,3.46,3.46,0,0,1,1.68.44A6.43,6.43,0,0,0,19.85,9c0,.33-.06.3-.06.3a3.89,3.89,0,0,1,2.15.52,6.38,6.38,0,0,0-2.18-.34l-.09.32c2.15.24,2.48.69,2.48.69a6.12,6.12,0,0,0-2.56-.5,8.42,8.42,0,0,1-2,3.23,2.6,2.6,0,0,1,.06.82s0,1.57-1.19,1.91v0a14.74,14.74,0,0,1,.48,2"/><path class="cls-2" d="M15.51,7.83a14.41,14.41,0,0,0-1.74-.12c-.06-.08.05-.17.06-.27a5.09,5.09,0,0,0-.71-.06A2.36,2.36,0,0,1,15.51,7.83Z"/><path class="cls-2" d="M19,7.8c-.36,0-.9,0-1.12.2C17.77,7.48,18.73,7.51,19,7.8Z"/><path class="cls-2" d="M17.9,8.45a2.16,2.16,0,0,0-.89.88,1.68,1.68,0,0,0-1-1A3.06,3.06,0,0,1,17.9,8.45Z"/><path class="cls-2" d="M18,10.36a3.32,3.32,0,0,1-.67,1.44,3.57,3.57,0,0,0,.08-1.17,2.31,2.31,0,0,0-1.38,0c-.22.33-.44.79-.71,1.12-.07.09-.16.24-.26.2a2.35,2.35,0,0,0,.14-1.56A3.76,3.76,0,0,1,18,10.36Z"/><path class="cls-2" d="M17,13.07c.55,1.12-.86,1.45-1.71,1.09a4.07,4.07,0,0,0,.5-1,1.17,1.17,0,0,1,0,.74A.83.83,0,0,0,17,13.07Z"/><path class="cls-2" d="M14.71,8.53a1.33,1.33,0,0,1-.26.21,11.14,11.14,0,0,0-3.6-.21s0,0,0,0A10.07,10.07,0,0,1,14.71,8.53Z"/><path class="cls-2" d="M14.21,9c0,.11-.11.12-.12.23a14.07,14.07,0,0,0-3.18,0A10.61,10.61,0,0,1,14.21,9Z"/><path class="cls-2" d="M14,9.65c-.92,0-2.09.16-3,.27.07,0-.18.08,0,0a8.79,8.79,0,0,1,2.51-.41C13.64,9.5,14,9.36,14,9.65Z"/><path class="cls-2" d="M10.15,10.6a4,4,0,0,0,2.68,3s.17,0,.14.09C11.28,13.41,9.89,12.7,10.15,10.6Z"/><path class="cls-3" d="M14.68,11.75c-.53,1.54-.07,3.78,1.71,3.59a1.35,1.35,0,0,0,1.18-1A1.6,1.6,0,0,1,15.74,16,9.42,9.42,0,0,1,17,17.93c-4.24.12-6.44-2.06-10-2.68a6.7,6.7,0,0,1,2.21-3.42A8.46,8.46,0,0,0,5.7,15.1,21.23,21.23,0,0,0,2,15.16C3.8,12.08,6.59,10,9.73,8.33c-.6.19-.84-.12-1.15-.53-.19-.26-.41-.51-.38-.74,1,.06,2.7.29,3.27-.44,1.33-.6,3.72-.51,4.33.68,0-.68-.76-.77-1.15-1.12,1.32.18,2.73.25,3.27,1.2a1.54,1.54,0,0,1,1.8.68,1.26,1.26,0,0,0-.53-.85,5.11,5.11,0,0,1,1.15-.12,1.43,1.43,0,0,1-.59,1.06C19.13,8,18.27,8,18,8.45a1,1,0,0,1,.45,1.73,1,1,0,0,0,.38-1.44c1.19.49.31,2-.15,2.86a12.24,12.24,0,0,1-1,1.59,2.66,2.66,0,0,1,.06.82c0-1.14-1.11-2-.5-3.15-1,.86.36,1.93.18,3-.13.7-1.34,1.05-2.07.65S14.51,12.72,14.68,11.75Z"/><path class="cls-4" d="M13.12,7.38a5.09,5.09,0,0,1,.71.06c0,.1-.12.19-.06.27a14.41,14.41,0,0,1,1.74.12A2.36,2.36,0,0,0,13.12,7.38Z"/><path class="cls-4" d="M17.87,8c.22-.21.76-.2,1.12-.2C18.73,7.51,17.77,7.48,17.87,8Z"/><path class="cls-1" d="M16,8.36a1.68,1.68,0,0,1,1,1,2.16,2.16,0,0,1,.89-.88A3.06,3.06,0,0,0,16,8.36Z"/><path class="cls-1" d="M10.88,8.5s-.07,0,0,0a11.14,11.14,0,0,1,3.6.21,1.33,1.33,0,0,0,.26-.21A10.07,10.07,0,0,0,10.88,8.5Z"/><path class="cls-1" d="M10.91,9.21a14.07,14.07,0,0,1,3.18,0c0-.11.12-.12.12-.23A10.61,10.61,0,0,0,10.91,9.21Z"/><path class="cls-1" d="M13.48,9.51A8.79,8.79,0,0,0,11,9.92c-.18.08.07,0,0,0,.92-.11,2.09-.26,3-.27C14,9.36,13.64,9.5,13.48,9.51Z"/><path class="cls-4" d="M15.18,10.36A2.35,2.35,0,0,1,15,11.92c.1,0,.19-.11.26-.2.27-.33.49-.79.71-1.12a2.31,2.31,0,0,1,1.38,0,3.57,3.57,0,0,1-.08,1.17A3.32,3.32,0,0,0,18,10.36,3.76,3.76,0,0,0,15.18,10.36Z"/><path class="cls-1" d="M13,13.66c0-.08-.1-.07-.14-.09a4,4,0,0,1-2.68-3C9.89,12.7,11.28,13.41,13,13.66Z"/><path class="cls-4" d="M15.86,13.9a1.17,1.17,0,0,0,0-.74,4.07,4.07,0,0,1-.5,1c.85.36,2.26,0,1.71-1.09A.83.83,0,0,1,15.86,13.9Z"/><path class="cls-1" d="M14.21,7.25a2.1,2.1,0,0,0-1.15.15,4.15,4.15,0,0,1,.77.06A.4.4,0,0,1,14.21,7.25Z"/></svg>