<svg id="Layer_1" data-name="Layer 1" xmlns="http://www.w3.org/2000/svg" viewBox="0 0 22 22"><defs><style>.cls-1{fill:#fff;}.cls-2{fill:#024;}.cls-3{fill:#b0b7bc;}.cls-4{fill:#c60c30;}.cls-5{fill:#c0001d;}</style></defs><path class="cls-1" d="M21.41,7.77c-2.05.6-3.73-.81-6.27-.77h0A20.08,20.08,0,0,0,8.28,8.16C4.9,9.36,2.59,10.28.4,10.54a.45.45,0,0,0,0,.9,18.77,18.77,0,0,0,4.73-.33.46.46,0,0,0,.41.65,12,12,0,0,0,4.13-.23.46.46,0,0,0,.22.79c4.74.84,6.54,3.24,8.28,4.95a1.53,1.53,0,0,0,1.19-1.94,1.47,1.47,0,0,0,.12-.49l.6-.36-.28-1.41.92-.47S21.85,8.8,22,8.31,21.64,7.71,21.41,7.77ZM.46,11c3.78-.52,6.91-2.31,10.12-3,.1.39.29,1.18.29,1.18C6.27,10.09,5.78,11.16.46,11Zm5.13.31c2.52-.36,4-1.3,5.46-1.6.08.35.19.71.26,1A13.6,13.6,0,0,1,5.59,11.3Zm14.8,1c-.36.17-.71.35-1.06.55.12.46.19,1,.3,1.42l-.55.32v.34l-.17.45a.85.85,0,0,1,0,.92,1.42,1.42,0,0,1-.56.5A13.56,13.56,0,0,0,10,11.88c1.47-.24,2-.91,4.58-.9a4.55,4.55,0,0,0-3.12-.31c-.06-.22-.26-1-.26-1a10,10,0,0,1,2.11-.33,5.05,5.05,0,0,0-2.24-.22c-.1-.4-.18-.78-.29-1.19a19.26,19.26,0,0,1,4.32-.46,15.59,15.59,0,0,1,4,.78,4.53,4.53,0,0,0,2.45,0C21.43,8.7,20.39,12.29,20.39,12.29Z"/><path class="cls-1" d="M19.37,9.8c-.05-.21-.15-.8-.18-.85l-.52.66s-.7-.18-1.09-.26c.25.26.49.49.7.75-.2.31-.46.6-.68.9l1.2-.39c.29.29.59.61.88.89-.05-.38-.16-.76-.2-1.12l.9-.31C20.06,10,19.7,9.9,19.37,9.8Z"/><path class="cls-2" d="M19.09,8.23a15.59,15.59,0,0,0-4-.78,19.26,19.26,0,0,0-4.32.46c.11.41.19.79.29,1.19a5.05,5.05,0,0,1,2.24.22,10,10,0,0,0-2.11.33s.2.8.26,1A4.55,4.55,0,0,1,14.6,11c-2.55,0-3.11.66-4.58.9a13.56,13.56,0,0,1,8.31,4.91,1.42,1.42,0,0,0,.56-.5.87.87,0,0,0,0-.93l.17-.44v-.34l.54-.32c-.11-.46-.17-1-.29-1.42.35-.2.7-.38,1.06-.55,0,0,1-3.59,1.15-4.08A4.63,4.63,0,0,1,19.09,8.23Zm-.62,5.84-.13.17c.14,0,.31.15.45.21v.18h-.4c-.18.13-.32.26-.5.4l.59-.12h.38a2.75,2.75,0,0,1-.14.3l-.37,0,.38.44c.18.3-.3.66-.3.66a12.45,12.45,0,0,0-2.94-2.62.51.51,0,0,1,.49-.25,2,2,0,0,1,.9.47c.13.14.37.5.44.56,0-.29-.14-.59-.21-.88l-1.29-.88a1.16,1.16,0,0,1,1-.62,1.6,1.6,0,0,1,1.07.22.91.91,0,0,0-1,.64s1.37,0,1.37,0a1.23,1.23,0,0,1,.17-.41.58.58,0,0,1,.47-.21c0,.11.34,1.7.34,1.7C19,14.06,18.74,14.05,18.47,14.07Zm1.21-2.57c-.29-.28-.59-.6-.88-.89L17.6,11c.22-.3.48-.59.68-.9-.21-.26-.45-.49-.7-.75.39.08,1.09.26,1.09.26l.52-.67c0,.06.13.65.18.86.33.1.69.17,1,.27l-.9.31C19.52,10.74,19.63,11.12,19.68,11.5Z"/><path class="cls-3" d="M18.42,12.56a1.23,1.23,0,0,0-.17.41s-1.38,0-1.37,0a.91.91,0,0,1,1-.64,1.6,1.6,0,0,0-1.07-.22,1.16,1.16,0,0,0-1,.62l1.29.88c.07.29.17.59.21.88-.07-.06-.31-.42-.44-.56a2,2,0,0,0-.9-.47.51.51,0,0,0-.49.25,12.45,12.45,0,0,1,2.94,2.62s.48-.36.3-.66l-.38-.44.37,0a2.75,2.75,0,0,0,.14-.3h-.38l-.59.12c.18-.14.32-.27.5-.4h.4v-.18c-.14-.06-.31-.16-.45-.21l.13-.17c.27,0,.49,0,.76,0,0,0-.31-1.59-.34-1.7A.58.58,0,0,0,18.42,12.56Z"/><path class="cls-4" d="M11.05,9.7c-1.42.3-2.94,1.24-5.46,1.6a13.6,13.6,0,0,0,5.72-.61C11.24,10.41,11.13,10.05,11.05,9.7Z"/><path class="cls-5" d="M10.58,8C7.37,8.68,4.24,10.47.46,11c5.32.17,5.81-.9,10.41-1.86C10.87,9.13,10.68,8.34,10.58,8Z"/></svg>