<svg id="Layer_1" data-name="Layer 1" xmlns="http://www.w3.org/2000/svg" viewBox="0 0 22 22"><defs><style>.cls-1{fill:#fff;}.cls-2{fill:#024;}</style></defs><path class="cls-1" d="M21.58,8.13a5.9,5.9,0,0,0-5.7-4,6.36,6.36,0,0,0-.87.06,5.79,5.79,0,0,0-3.94,2.16c-.07.08-.12.17-.18.25a21.38,21.38,0,0,0-9.3,4.26L-.12,12.3l2.21.18a14.6,14.6,0,0,1,7,2.34,9.85,9.85,0,0,1,2.23,2l.28.38.29.4.74-.63a2.5,2.5,0,0,0,.23-.23l.06.05.24.22a.43.43,0,0,1,0,.11.65.65,0,0,1-.06.28l0,.05c0,.06-.06.13-.1.2l0,.07v0h0l-.22.41,3,1.67h0l.29-.08.52-.14a8.82,8.82,0,0,0,1.31-.38l.24-.12.14-.23a11.7,11.7,0,0,0,1.23-3.28l.5-.45,0,0,0-.18v-.17a3.85,3.85,0,0,0,0-.48,7.13,7.13,0,0,0,0-.79,3.61,3.61,0,0,0,1.54-1.88,4.39,4.39,0,0,0,.31-1.67,5.43,5.43,0,0,0-.3-1.76"/><path class="cls-2" d="M19.24,5.53c-.17-.12-.34-.24-.52-.35h0a5.39,5.39,0,0,0-.59-.29,6.71,6.71,0,0,0-.83-.25,6.59,6.59,0,0,0-1.43-.16,5.66,5.66,0,0,0-4.55,2.09l-.08.12c-.05.08-.11.15-.15.23l-.12,0c-.47.07-.93.17-1.38.28a21.82,21.82,0,0,0-7.8,3.91L.7,12h0l.7.05.71.06c6.53.53,9.45,4.41,9.47,4.43l.21.29.16.21.47-.4,0,0a2,2,0,0,0,.36-.44h0l.19.17c.14.13.25.19.38.33l.07.08a.54.54,0,0,1,.05.21.17.17,0,0,1,0,.07h0c0,.09,0,.15,0,.2a1.44,1.44,0,0,1-.09.24c-.06.14-.17.34-.17.34l-.06.12,2.57,1.44.22-.06.26-.07.26-.06a8.52,8.52,0,0,0,1.25-.37l.12-.06h0l.09-.15,0,0a11.75,11.75,0,0,0,.93-2.21c.1-.32.19-.67.27-1l.09-.08.23-.22.16-.14,0,0,0-.22a1.77,1.77,0,0,1,0-.23c0-.07,0-.15,0-.22a4.68,4.68,0,0,0-.06-.76l0-.21a3.3,3.3,0,0,0,1.6-1.82l.05-.17a4,4,0,0,0,.23-1.38,5.16,5.16,0,0,0-.34-1.81,5.62,5.62,0,0,0-2-2.55"/><path class="cls-1" d="M18.58,5.41h0a5.46,5.46,0,0,0-2.71-.66A5.53,5.53,0,0,0,12,6.24a4.18,4.18,0,0,0-.43.5,1.44,1.44,0,0,0-.18.25l-.08.12,0,0h-.12L11,7.2A18.37,18.37,0,0,0,5.78,8.93,21.22,21.22,0,0,0,2,11.34l-.59.49.76.06a14.6,14.6,0,0,1,8.54,3.39h0l.22.2a6.69,6.69,0,0,1,.89.95l.2.27.26-.22a1.72,1.72,0,0,0,.39-.53l0-.08,0-.08.13.12.31.28a2.75,2.75,0,0,1,.49.45h0a.49.49,0,0,1,0,.11.85.85,0,0,1,.06.31h0a1.14,1.14,0,0,1-.1.5l0,.06c0,.08-.08.17-.11.24l2.25,1.26.11,0,.52-.13a11.6,11.6,0,0,0,1.12-.31l.08,0,.09,0,0-.08.17-.29c.1-.2.23-.48.38-.84a11,11,0,0,0,.64-2.1v0l0,0,.09-.09.38-.35v-.12c0-.14,0-.28,0-.42v-.05a5.15,5.15,0,0,0-.1-1l0-.1.09,0a2.89,2.89,0,0,0,1.19-1h0l0,0a4.23,4.23,0,0,0,.34-.67A3.76,3.76,0,0,0,21.28,10V9.89h0a5.23,5.23,0,0,0-2.7-4.48"/><path class="cls-2" d="M19.11,6.12a4.58,4.58,0,0,0-1.54-.81h0l0,0a6.28,6.28,0,0,0-2.71-.2h0a6.33,6.33,0,0,1,2.7.43,4.24,4.24,0,0,1,.72.39,4.61,4.61,0,0,1,1.57,1.75,3.93,3.93,0,0,1,.32.91l0,.21a4.26,4.26,0,0,1,.06.77h0v.07a3.89,3.89,0,0,1-.38,1.71.81.81,0,0,1-.11.2,2.8,2.8,0,0,1-.52.59l-.13.08a.61.61,0,0,1-.23.09H18.7l-.05,0c-.12,0-.16-.19-.42-.56a3.42,3.42,0,0,0-.22-.28l-.18-.21.06-.06h0l.07-.08a.75.75,0,0,0,.07-.12,1.11,1.11,0,0,0,.09-.19h0s0,0,0-.06a.14.14,0,0,0,0-.06,2.65,2.65,0,0,0-.71-2.46,2.16,2.16,0,0,0-.27-.25,4.11,4.11,0,0,0-.78-.48,2.82,2.82,0,0,0-2.24,0,2.59,2.59,0,0,0-1.34,3.9,1.31,1.31,0,0,0,1.89.36,1.26,1.26,0,0,0-.39-2.15A1.78,1.78,0,0,1,16,11.78l-.09.28a1.77,1.77,0,0,1-.15.31l-.09.16-.08.14c-1,1.47-3.91,1.38-5-1a4.07,4.07,0,0,1-.21-3.13,3.58,3.58,0,0,1,.35-.71l.12-.31A16.91,16.91,0,0,0,3.57,11.2a14.24,14.24,0,0,1,7.61,4,7.59,7.59,0,0,1,.87,1.08,1.5,1.5,0,0,0,.43-.68,1.93,1.93,0,0,1-.26-1.31l0-.06a2.67,2.67,0,0,0,.44,1.07,4,4,0,0,0,.32.35l.16.15,0,0h0a5.43,5.43,0,0,1,.75.71,1.1,1.1,0,0,1,.15.56c0,.07,0,.14,0,.21a1.69,1.69,0,0,1-.15.51l1.88,1a17.12,17.12,0,0,0,1.68-.46l.08-.14c.05-.1.13-.25.22-.44a11.33,11.33,0,0,0,.88-2.7h0l.49-.45c0-.06,0-.13,0-.19h0v-.19h0v-.08a.41.41,0,0,0,0-.11V14a.19.19,0,0,0,0-.08c0-.14,0-.28,0-.42v0s0-.1,0-.15A2.82,2.82,0,0,0,19,13h0l.12,0a1.94,1.94,0,0,0,.3-.13,2.66,2.66,0,0,0,1-1A4.13,4.13,0,0,0,20.52,8a4.65,4.65,0,0,0-1.41-1.92"/><path class="cls-1" d="M17.17,11.42h0a4.93,4.93,0,0,1,.94,2.15,3.71,3.71,0,0,1,0,.82l-.19.18-.11.1a5,5,0,0,1-.12,1.26,6,6,0,0,1-.31.93,2.71,2.71,0,0,0-.64-.75,3.6,3.6,0,0,0-.8-.52,1.72,1.72,0,0,0-.36-.14c-.16.09-.42.23-.68.41a3,3,0,0,0-.54.46,1.46,1.46,0,0,1,.16.38,1.91,1.91,0,0,1,0,.32,1.83,1.83,0,0,1-.08.67l.45.25.21.11,0-.15a1.1,1.1,0,0,0-.07-.72c-.06-.13-.14-.25-.21-.37l.15-.09c.21-.12.49-.27.65-.34a1.49,1.49,0,0,1,.08,1.37,3.89,3.89,0,0,1-.16.41.54.54,0,0,0-.05.11h0l.25.14h0a1.26,1.26,0,0,0,.48-.23.86.86,0,0,0,.28-.4.33.33,0,0,0,0-.24.19.19,0,0,1-.06.07.16.16,0,0,1-.07.07.41.41,0,0,1,0-.48.26.26,0,0,1,.2-.08.11.11,0,0,1,.08,0,.23.23,0,0,1,.15.14.38.38,0,0,1,0,.17,1,1,0,0,1-.26.67,2,2,0,0,0,.48-.06c.07-.13.17-.35.29-.62a10.49,10.49,0,0,0,.8-2.72l.35-.31c0-.11,0-.22,0-.33a4.16,4.16,0,0,0-1.45-2.65Zm0,2.07h0a.6.6,0,0,1,0,.15,1.05,1.05,0,0,1,0,.24.55.55,0,0,0-.3.5.56.56,0,0,0,.57.56,1.11,1.11,0,0,0,0-.13h0a.35.35,0,0,1-.18-.05.36.36,0,0,1-.18-.3.39.39,0,0,1,.18-.31.34.34,0,0,1,.18,0h0a2.22,2.22,0,0,0-.1-.31,1.35,1.35,0,0,0-.2-.31Zm.33,1h0l-.06,0-.11,0a.16.16,0,0,1-.09,0,.19.19,0,0,0,.24.11,0,0,0,0,1,0,0A.28.28,0,0,0,17.53,14.49Zm-4.34,1.29h0Zm2.34,1.06s-.22,0-.23.1.13.5.13.76v.1A1.22,1.22,0,0,0,15.53,16.84Z"/></svg>