<svg id="Layer_1" data-name="Layer 1" xmlns="http://www.w3.org/2000/svg" viewBox="0 0 22 22"><defs><style>.cls-1{fill:#d6b518;}.cls-2{fill:#12100b;}.cls-3{fill:#fff;}.cls-4{fill:#2e255d;}.cls-5{fill:#c62a20;}</style></defs><path class="cls-1" d="M16.3,8.5a1.41,1.41,0,0,1-.17.7A4.94,4.94,0,0,0,15,7.56a1.11,1.11,0,0,1,.12.66l-.55-.37a8.37,8.37,0,0,0-5-1.4c-6.15,0-8.74,4-8.85,4.12a7.27,7.27,0,0,0-.76,1.34l1.31-.79A5.79,5.79,0,0,1,4,10.46c.13,0,.44,0,.51.16.16.33-.35,1.36-.93,2.11L2.32,14.34l1.77-1A4.24,4.24,0,0,1,6,12.92a.75.75,0,0,1,.37.06.65.65,0,0,1-.13.29l-.87,1.17,1.35-.56a5.8,5.8,0,0,1,2-.34c.69,0,1.17.13,1.3.37a.84.84,0,0,1-.09.68l-.28.46.52.14a1,1,0,0,0,.44,0s0,.08,0,.12a2.45,2.45,0,0,0,.35,1.23l.53.82.2-.95A1.85,1.85,0,0,1,13,15l.12.45.42-.17a7.15,7.15,0,0,0,1.22-.77A7.52,7.52,0,0,1,16,14.42c.35,0,.75,0,1.18.07s1.16.09,1.82.09a10.7,10.7,0,0,0,2.17-.24l.76.51,0-.7V14A3.33,3.33,0,0,0,20,11h.06L19,10.33a2.47,2.47,0,0,0-.73-.21l0-.11-.47-.12a3.53,3.53,0,0,0-1.18-.12A1.45,1.45,0,0,0,16.3,8.5Z"/><path class="cls-2" d="M1,10.78S3.54,6.85,9.54,6.85c4.41,0,5.89,2.46,5.89,2.46a1,1,0,0,0,0-.56,2,2,0,0,1,.53,1.18s.3-.3.3-.41a1.29,1.29,0,0,1,0,.73,2.76,2.76,0,0,1,1.52,0l-.08.16a5.34,5.34,0,0,1,1.13.24s-.51,0-.51.17,3.37.5,3.24,3.29l-.32-.22a10.5,10.5,0,0,1-2.25.27c-1.18,0-2.2-.16-3-.16a7.68,7.68,0,0,0-1.42.13,7.76,7.76,0,0,1-1.2.78l-.11-.4a2.41,2.41,0,0,0-2,1.76,1.87,1.87,0,0,1-.14-1.68,6.28,6.28,0,0,1-.88.19s1-1.66-1.55-1.66a6.11,6.11,0,0,0-2.17.37s.75-1-.56-1A4.41,4.41,0,0,0,3.89,13s2.28-2.92.11-2.92a6,6,0,0,0-3,.72Z"/><path class="cls-3" d="M14.46,11.1a5.1,5.1,0,0,0-2.53.12,7.63,7.63,0,0,1,2.73.45s-3.49-.49-4.93.68A13.63,13.63,0,0,1,13.5,12s-.6.24,0,.64,1,.48.88,1.16l.34-.49.37.37a10,10,0,0,1,1.63,0c.67.08,1.58.16,2.09.16s1.9-.18,1.9-.18a17.72,17.72,0,0,0-5.54-1.16c-.29,0-.61.06-.43.38,0,0-.91-.45-.91-.69s.7-.11.7-.11c.32,0,6.1.59,6.69,1.63,0,0,0-2.38-4.79-2.86l.53.45-.85-.08.51.46a14.52,14.52,0,0,0-2.2-.57Z"/><path class="cls-4" d="M2.38,9.9A10.66,10.66,0,0,1,9.52,7.25c3.94,0,5.62,2.21,5.62,2.21s.73,1.08.33,1.48S15,9.94,14,9.62l.84.28A2.65,2.65,0,0,0,12.33,9a3,3,0,0,1,1.13.48,10.06,10.06,0,0,0-2.05.36s1.53.32,1.61.56a4.37,4.37,0,0,0-1.85.4,25.36,25.36,0,0,1,3.29.32,5.1,5.1,0,0,0-2.53.12,7.63,7.63,0,0,1,2.73.45s-3.49-.49-4.93.68A13.63,13.63,0,0,1,13.5,12s-.6.24,0,.64,1,.48.88,1.16a2.07,2.07,0,0,1-.8.68l0-.56a2.86,2.86,0,0,0-2.21,1.53s.12-1.17.44-1.45l-.88.28s.88-1.44-1.33-1.56S7.28,13,7.28,13s.28-1.08-2.21-.64c0,0,2.37-3.9-2.69-2.41Z"/><path class="cls-3" d="M8.57,9.6c.14-.28.4-.95.46-1.07.18,0,.89.1.84.41a1.11,1.11,0,0,1-.53.7l-.77,0Zm-.78,1.89c.14-.4.45-1.1.53-1.31.15,0,.93,0,.93.41,0,.22-.36.9-1.46.9ZM11.4,8.22c-.25-.36-.85-.53-1.84-.53a10.47,10.47,0,0,0-4.44.83L4,9.11,5.28,9a20,20,0,0,1,3.14-.42C6.56,8.78,5.91,11.84,5.88,12l-.07.3,2.88-.14.07-.09a8.51,8.51,0,0,1,1.66-.8l.09,0,.25-.56v-.12a.63.63,0,0,0-.15-.41,1.21,1.21,0,0,0-.55-.33,2,2,0,0,0,1.4-1,.54.54,0,0,0-.07-.52Z"/><path class="cls-1" d="M9.56,7.93a10.28,10.28,0,0,0-4.33.8,16.31,16.31,0,0,1,4-.4c1.89.21.49,1.29.49,1.29a1.85,1.85,0,0,0,1.56-1s.28-.72-1.69-.72ZM9.48,10.7c-.38,1-1.8,1.05-2,1.05l.77-1.81s1.58-.07,1.27.76ZM9,9.86l-.71,0,.43-1C6.8,8.73,6.11,12,6.11,12l2.45-.12A9.12,9.12,0,0,1,10.33,11l.2-.44C10.62,9.89,9,9.86,9,9.86Z"/><path class="cls-5" d="M13.82,9.86a.43.43,0,1,1-.46.42.45.45,0,0,1,.46-.42Z"/><path class="cls-3" d="M13.91,9.93a.43.43,0,0,1,0,.85.43.43,0,0,1,0-.85Z"/><path class="cls-5" d="M14,10.06a.32.32,0,1,1-.33.32.33.33,0,0,1,.33-.32Z"/><path class="cls-2" d="M14.07,10.06a.29.29,0,0,1,.28.31.28.28,0,0,1-.28.3.29.29,0,0,1-.28-.3.3.3,0,0,1,.28-.31Z"/></svg>