<svg id="Layer_1" data-name="Layer 1" xmlns="http://www.w3.org/2000/svg" xmlns:xlink="http://www.w3.org/1999/xlink" viewBox="0 0 22 22"><defs><style>.cls-1,.cls-4{fill:none;}.cls-2{clip-path:url(#clip-path);}.cls-3{fill:#fff;}.cls-4{stroke:#fff;stroke-width:0.53px;}.cls-5{fill:#ffc708;}.cls-6{fill:#863a20;}</style><clipPath id="clip-path"><rect class="cls-1" x="-5.75" y="-5.38" width="32.63" height="32.63"/></clipPath></defs><g class="cls-2"><g class="cls-2"><path class="cls-3" d="M6.87,16.44a.53.53,0,0,1-.21,0,1.84,1.84,0,0,0,.1.5l-.09.1.1.07a3.67,3.67,0,0,0,.35,1.73.44.44,0,0,1-.34,0,2.31,2.31,0,0,1-.33,1.56c-.07,0-.11-.05-.14-.09a3.76,3.76,0,0,0-.19.47,5.23,5.23,0,0,0-.13.78,1.75,1.75,0,0,1-.85-.75,1.07,1.07,0,0,0-.25-.34.31.31,0,0,1-.11.15.74.74,0,0,1-.26.14,2.06,2.06,0,0,0-.19-.56,6.52,6.52,0,0,1-.76-1.28A3.76,3.76,0,0,1,3.34,18l-.06,0c-.11,0-.18,0-.22-.06a.93.93,0,0,1-.31.46.67.67,0,0,1-.13.3.91.91,0,0,0-.19.42,2.3,2.3,0,0,1-.28.46c0-.08,0-.07-.09-.13a1.48,1.48,0,0,1-1.25.79,3.85,3.85,0,0,0,.34-1.25c-.11-1-.2-1.18-.26-1.94a15.45,15.45,0,0,1,0-2.54,13.11,13.11,0,0,1,.87-3.77A32.92,32.92,0,0,1,4.06,5.91V4.7h.3L4.68,4l.14.11.55-1.45.38,1.09.66-.41A7.81,7.81,0,0,1,20.32,8.17a7.73,7.73,0,0,1-7.68,7.74A7.66,7.66,0,0,1,6.3,12.8a9.66,9.66,0,0,0,.57,3.64"/><path class="cls-4" d="M6.87,16.44a.53.53,0,0,1-.21,0,1.84,1.84,0,0,0,.1.5l-.09.1.1.07a3.67,3.67,0,0,0,.35,1.73.44.44,0,0,1-.34,0,2.31,2.31,0,0,1-.33,1.56c-.07,0-.11-.05-.14-.09a3.76,3.76,0,0,0-.19.47,5.23,5.23,0,0,0-.13.78,1.75,1.75,0,0,1-.85-.75,1.07,1.07,0,0,0-.25-.34.31.31,0,0,1-.11.15.74.74,0,0,1-.26.14,2.06,2.06,0,0,0-.19-.56,6.52,6.52,0,0,1-.76-1.28A3.76,3.76,0,0,1,3.34,18l-.06,0c-.11,0-.18,0-.22-.06a.93.93,0,0,1-.31.46.67.67,0,0,1-.13.3.91.91,0,0,0-.19.42,2.3,2.3,0,0,1-.28.46c0-.08,0-.07-.09-.13a1.48,1.48,0,0,1-1.25.79,3.85,3.85,0,0,0,.34-1.25c-.11-1-.2-1.18-.26-1.94a15.45,15.45,0,0,1,0-2.54,13.11,13.11,0,0,1,.87-3.77A32.92,32.92,0,0,1,4.06,5.91V4.7h.3L4.68,4l.14.11.55-1.45.38,1.09.66-.41A7.81,7.81,0,0,1,20.32,8.17a7.73,7.73,0,0,1-7.68,7.74A7.66,7.66,0,0,1,6.3,12.8,9.66,9.66,0,0,0,6.87,16.44Z"/><path class="cls-5" d="M12.53,15.55A7.42,7.42,0,1,0,5.11,8.14a7.41,7.41,0,0,0,7.42,7.41"/><path class="cls-3" d="M12.53,14.52A6.38,6.38,0,1,0,6.15,8.14a6.38,6.38,0,0,0,6.38,6.38"/><path d="M8.51,7.53A7,7,0,0,0,8,9.79s.16-.37.22-.31A4.86,4.86,0,0,0,8.12,12a1.33,1.33,0,0,1,.2-.41A2.66,2.66,0,0,0,8.59,11a1.19,1.19,0,0,1,.06.29,1.37,1.37,0,0,0,.22-.37,3.69,3.69,0,0,1,.16-.4l.06,0a3.44,3.44,0,0,0,.49-.82s.1,0,.05.29a1.15,1.15,0,0,0,.3-.73l.06.07a1.67,1.67,0,0,1,.24,1.08,2.79,2.79,0,0,1-1.14,2l.05,0a4.65,4.65,0,0,1,2.4,0,9.43,9.43,0,0,1,1.6.75,4.93,4.93,0,0,0,1.54.39s0,0,0,0a4,4,0,0,1,0-1.12l.12-.68a2,2,0,0,0,.08-.58s0-.26.13-.24a2.26,2.26,0,0,0,.8-.07,2.94,2.94,0,0,1,.39-.1,1.16,1.16,0,0,0,.35,0,1,1,0,0,0,.31-.22s.13-.14,0-.47c0,0-.09-.29,0-.38a1.12,1.12,0,0,1,.2-.32s.08-.14,0-.21-.06-.06,0-.09a.24.24,0,0,0,.13,0s0,0,0-.07a.91.91,0,0,0-.17-.61l.1,0a1,1,0,0,0,.37,0c.11-.06.26-.13.24-.5a6,6,0,0,0-.3-.82A1.49,1.49,0,0,0,17,6.32c-.18-.09-.26-.22-.13-.36a.54.54,0,0,0-.12-.64,2.1,2.1,0,0,1-.38-.6,2.54,2.54,0,0,0-.28-.42,6.47,6.47,0,0,1-.47-.47.55.55,0,0,1-.17-.26,2,2,0,0,0-1.42-.81l-.32,0a3.16,3.16,0,0,0-1.43,0l-.46.09a2.39,2.39,0,0,0-.66.26,7.87,7.87,0,0,0-.68.48,8.53,8.53,0,0,1-1,.75A7.39,7.39,0,0,0,8.2,5.59a6.26,6.26,0,0,0-1,2.35,2.7,2.7,0,0,0,0,.7,2.84,2.84,0,0,1,.58-.86,1.61,1.61,0,0,0-.06.31,1.91,1.91,0,0,1,.2-.31s.11-.11.26-.29A3.09,3.09,0,0,1,8.52,7a1.27,1.27,0,0,0-.16.59l.1-.11s0-.06.06,0a.08.08,0,0,1,0,.06"/><path class="cls-6" d="M17.63,8.2a.54.54,0,0,0-.05-.53,2.18,2.18,0,0,1-.17-.4A1.88,1.88,0,0,0,17.29,7a1.13,1.13,0,0,0-.16-.34c-.15-.22-.27-.24-.35-.33h0c-.08.06-.09.19-.16.29a0,0,0,0,1,0,0s0,0-.06-.07,0,0-.07,0,0,0,0,0,0,0,0,.06,0,0,0,0,0,0,0,0h-.05l-.09,0c-.05,0-.08-.1-.12-.12a.08.08,0,0,0-.09,0,0,0,0,0,0,0,.07l.1.1c.05,0,.11.06.11.12s-.09.09-.14,0L16,6.85v0s-.05,0-.06-.06a.24.24,0,0,0-.09-.08s0,0,0,0,0-.06,0-.09,0-.06,0,0,0,0-.07,0,0-.09,0-.08,0,0,0,0-.08,0,0-.07.06,0,.07,0,0-.06,0-.06,0,0,.05,0,0,.07.07,0v0a.46.46,0,0,1,.16-.15h0s0-.09,0-.11S16,6,16,6a.06.06,0,0,1,.06,0l.22-.1s.05,0,.08,0a.62.62,0,0,1,.18,0l.08,0a.17.17,0,0,0,.19,0,.28.28,0,0,0,0-.25,1.12,1.12,0,0,0-.19-.24c-.08-.08-.18-.12-.2-.23a1.89,1.89,0,0,0-.2-.43A2.4,2.4,0,0,0,16,4.36l-.16-.16A.74.74,0,0,0,15.52,4c-.07,0-.36,0-.51,0s-.18,0-.22-.09a.54.54,0,0,0-.16-.21l-.09,0c-.13-.06-.27-.18-.41-.17s0,.06,0,.06a.77.77,0,0,1,.13.12s.12,0,.18.07l.19.1c.06,0,.13.14.07.18s-.12,0-.2,0h-.13c-.12,0-.16,0-.25-.1s-.15-.17-.24-.23a1.25,1.25,0,0,0-.34-.19s-.06,0-.09,0-.07-.08-.13-.08a.37.37,0,0,0-.18,0l-.06,0c-.05,0-.11,0-.14,0s0,0,.06.07a.69.69,0,0,0,.13,0,.57.57,0,0,1,.37.06s.07.06.07.08-.29,0-.42,0c.22,0-.23,0-.33,0s0,.06,0,.1.08,0,.09,0a.41.41,0,0,1,.19,0l.07,0a.18.18,0,0,0,.09,0c.05,0,.05-.08.1-.06l.06,0c.26,0,.27.08.39.08a.33.33,0,0,1,.1,0,.15.15,0,0,0,.17,0,3.45,3.45,0,0,1,.13,1.32,4.46,4.46,0,0,1-.15.73,2.68,2.68,0,0,0-.08.79,4.64,4.64,0,0,1-.65,2.61c-.13.16-.21.26-.07.38a1.69,1.69,0,0,0,.93.41,1,1,0,0,0,.37.06,1.34,1.34,0,0,1,.69.21,1.65,1.65,0,0,0,.77.18.9.9,0,0,1,.36.07.26.26,0,0,0,.21,0l.12-.08s.12-.09.1-.24a1.87,1.87,0,0,0-.08-.34.27.27,0,0,1,0-.26,1.36,1.36,0,0,1,.19-.27c.09-.1,0-.17-.09-.21a1.87,1.87,0,0,0-.3,0,.73.73,0,0,0-.21,0l-.09.07-.05,0a.45.45,0,0,1,.13-.19,1.36,1.36,0,0,0,.28,0c.08,0,.17-.05.23-.08a1.66,1.66,0,0,1,.31,0A.6.6,0,0,0,17,8.5c-.06-.05-.11-.12-.19-.13a.65.65,0,0,1-.49-.11c-.07,0-.09,0-.13.07a.53.53,0,0,1-.22.22h-.06a1.62,1.62,0,0,1,.18-.24A1.15,1.15,0,0,1,16.24,8c0-.07.06-.24.16-.28s.05,0,.09,0-.29.33-.07.49.23.07.26,0a.2.2,0,0,1,.08-.08.28.28,0,0,1,.24.06.69.69,0,0,0,.19.18.32.32,0,0,0,.19,0,.38.38,0,0,0,.25-.16"/><path class="cls-6" d="M16.05,6.42c.05,0,.06,0,.16,0a.21.21,0,0,0,.15,0s.07,0,.07-.07a.62.62,0,0,0,0-.09s0-.07,0-.11a.06.06,0,0,0-.08,0l-.09.07c0,.07-.1.08-.13.14L16,6.39s0,0,0,0"/><path d="M16.75,7.56c.13,0,.19,0,.33.12s.05.06,0,.08H17a.39.39,0,0,0-.3-.14s0,0,0-.06"/><path d="M16,8.89l-.06.17c0,.06,0,.13-.05.18a0,0,0,0,1-.08,0,.48.48,0,0,1,0-.31A.12.12,0,0,1,16,8.87s0,0,0,0Z"/><path d="M14.67,8.2a.11.11,0,0,1-.06-.1s0,0,0,0l.26.05a.6.6,0,0,0,.3-.07,1.57,1.57,0,0,0,.33-.19.6.6,0,0,1,.19-.06c.1,0,.09-.08.16-.12s.1-.11.16-.09,0,.05,0,.06a.89.89,0,0,0-.13.14l-.07.08a1.27,1.27,0,0,0-.24.28,1.07,1.07,0,0,0-.1.22l-.06.13s-.06,0-.07,0a1,1,0,0,0-.2.24h0a.25.25,0,0,0-.23-.16s0,0,0-.09l0,0,0,0s0,0,0,0a1,1,0,0,1,0-.23Z"/><path class="cls-3" d="M13,10.29c0-.07-.14-.07-.23-.06a1.09,1.09,0,0,0-.38.11c.08-.13.19-.14.39-.21,0,0,0-.1,0-.15s-.08-.05-.09-.06a.51.51,0,0,0-.3,0,1.55,1.55,0,0,0-.76.52.14.14,0,0,0,0,.15s.07.15.09.14.26-.26.42-.22a.8.8,0,0,0-.38.32.21.21,0,0,0,.08.11c.06.1.08.14.12.16s.06,0,.07-.06a1,1,0,0,1,.8-.42c.13,0,.21-.06.22-.18a.28.28,0,0,0,0-.18"/><path class="cls-3" d="M12.45,11c0,.11,0,.16,0,.23s.1.13.12.21.08.12.08.16a.08.08,0,0,1,0,.06c0,.05.16.11.12.14s-.2,0-.29,0,0,.09,0,.1.36.06.44.1.11.07.13.12,0,.06.06.1a1.33,1.33,0,0,0,.19.21.16.16,0,0,1,.07.14.09.09,0,0,1-.11.06l-.13,0c-.1,0-.12-.08-.2,0s0,.09.07.12.41.1.6.21a.42.42,0,0,1,.24.44l.06,0c.06-.09.19,0,.26,0s0,0,0,0-.1-.05-.13-.1,0-.1,0-.14-.09,0-.12,0-.2-.28-.36-.35a1.13,1.13,0,0,0,.08-.5s-.06,0-.07,0,0,.12-.07.18l-.08,0a1,1,0,0,1-.27-.34s0,0,0,0a.33.33,0,0,1,0-.39s0-.09,0-.09-.06,0-.07,0-.1.15-.19.15-.13-.12-.19-.18-.06-.11-.05-.11-.09-.22-.17-.37,0-.05-.07-.06"/><path class="cls-6" d="M13,13c.1.05,0-.07,0-.07a.9.9,0,0,1-.15-.19,1.54,1.54,0,0,1-.09-.19,1.08,1.08,0,0,0-.24-.28,1.12,1.12,0,0,1-.19-.24c-.06-.11-.09-.33-.24-.43s-.08-.16-.18-.31-.11-.06-.16-.12-.06-.19-.18-.32a1,1,0,0,1-.12-.15c-.06-.11,0-.26-.12-.31l-.22-.08a1.35,1.35,0,0,1-.33-.18l-.47-.39a2.64,2.64,0,0,1-1,2.55A4.79,4.79,0,0,1,13,13"/><path class="cls-6" d="M13.67,11.85c0,.08,0,.06.07.17a.71.71,0,0,0,.11.17.74.74,0,0,1,.29.6c0,.12,0,.11.12.19a.25.25,0,0,1,.09.07s.19.19.21.21,0-.18,0-.22a2.92,2.92,0,0,0-.07-1c-.09-.24-.29-.5-.37-.74l0-.14a2.82,2.82,0,0,1-.05-.38l-.25-.12-.62-.23a.41.41,0,0,1-.07.29c.06.12.1.41.16.48a1,1,0,0,1,.33.52c0,.07.08.11.08.16"/><path class="cls-3" d="M10.6,3.8s-.15,0-.51.26A5.23,5.23,0,0,0,8.8,5.11,4.3,4.3,0,0,0,8,6.1a3.91,3.91,0,0,0-.39,1s.06.2.21-.06A11.84,11.84,0,0,1,10.51,4h.07A12.62,12.62,0,0,0,8.05,6.78,1.55,1.55,0,0,1,8,6.93C7.93,7,8,7,8,7s.12-.1.17-.12,0,.09.1.06a1.2,1.2,0,0,0,.39-.39.59.59,0,0,0,0,.13c.08,0,.34-.33.47-.58,0,0,0,.16,0,.11a1.72,1.72,0,0,0,.38-.45,1.14,1.14,0,0,0,.24-.53.14.14,0,0,1,.07.06s0-.09.11-.16.07-.13.15-.18a.62.62,0,0,0,.11-.2c0-.06.14-.25.15-.31s.29-.3.41-.45,0-.3-.22-.2"/><path class="cls-3" d="M9.27,9.7c.05.06.09,0,.09,0a1,1,0,0,0,.17-.34,1.82,1.82,0,0,0,.12-.65,1.06,1.06,0,0,1,.12.46h0a.78.78,0,0,1,.27-.37.64.64,0,0,1,.18-.37c0-.12,0-.21-.06-.39a3.19,3.19,0,0,1,0-1.16,3,3,0,0,0,.22.84h0a1,1,0,0,0,.08-.38c.07-.28.19-.25.19-.31a3.41,3.41,0,0,1-.06-.93,1.49,1.49,0,0,0,.17.46c.07.16.07,0,.07,0a2.1,2.1,0,0,0,0-.89,4.72,4.72,0,0,1-.15-1.17c0-.2,0-.13,0-.13s-.19,0-.49.87C9.75,6.57,9.38,8,9,9.23c.12-.62.76-2.84.95-3.64,0,0,0,0-.07,0a1.4,1.4,0,0,0-.12.18s0,0-.05,0l-.1.14a9.7,9.7,0,0,1-.7.8,2,2,0,0,0-.22.42c0,.08,0,.09.07,0a3.93,3.93,0,0,1,.34-.28s.17-.06.17-.07l-.07.07A1.09,1.09,0,0,0,9,7.18c-.09.15-.19.34-.31.57a4.42,4.42,0,0,0-.28.62c-.09.23-.06.25-.06.25s0,.11,0,.11-.08.16,0,.13a.15.15,0,0,0,.11-.07l.11-.13c.06-.06.05-.08.1-.14a.68.68,0,0,1,.19-.19.54.54,0,0,0-.13.29l0,0,0,0a1.1,1.1,0,0,0-.19.51,2,2,0,0,1,0,.29.25.25,0,0,0,.15-.07l0,.16a.91.91,0,0,0,0,.17c0,.09,0,0,0,.16A.57.57,0,0,0,9,9.7c.06-.06.11-.2.13-.19s0,.09,0,.13l0,.11s0,.05,0,.07h0s0,0,0,0l0,0a.08.08,0,0,1,0,0,.08.08,0,0,1,0,0"/><polygon points="5.77 5.05 5.61 5.05 6.13 3.86 5.49 4.36 5.34 3.61 5 4.64 4.84 4.51 4.6 5.06 4.42 5.06 4.42 5.66 5.53 5.66 5.77 5.05"/><polygon points="4.82 5.63 5.41 6.02 5.47 5.85 5.13 5.62 4.82 5.63"/><path d="M5,5.55l.32.32A7.4,7.4,0,0,0,5.1,7.5a2.06,2.06,0,0,1,.75,1.84s0,0-.17,0a1.39,1.39,0,0,1,.22.37,3.91,3.91,0,0,1,0,.83s0,.68.05.89c.09,0,0,.27,0,.59a3.13,3.13,0,0,1,0,.35c-.19-.16-.18-.15-.23-.13a.69.69,0,0,0,.17.27A20.5,20.5,0,0,0,6,14.71c0,.29.08.63.1.74A4,4,0,0,0,6.3,16a.31.31,0,0,1-.25-.1c.12.22.12.18.19.25l.11.79-.12.13.17.11a3.38,3.38,0,0,0,0,.68,1.74,1.74,0,0,0,.18.51.24.24,0,0,1-.26-.17c-.06-.07-.17-.22-.2-.22,0,.22.11.3.16.43a2.15,2.15,0,0,1,0,1.41c-.15-.14-.16-.27-.27-.33a1.61,1.61,0,0,1-.11.68,1.52,1.52,0,0,0-.21.77c-.26-.22-.33-.52-.51-.69a3.43,3.43,0,0,1-.48-.53,1,1,0,0,1-.08.44.89.89,0,0,0-.21-.45,3.7,3.7,0,0,1-.71-1.48c0-.11-.08-.42-.15-.84a.4.4,0,0,1-.23.28s0,0,0,0a1.11,1.11,0,0,0,0-.4,1.82,1.82,0,0,0-.15-.62h0A.61.61,0,0,1,3,17a1.22,1.22,0,0,0,0-.44c0-.07-.07-.13-.09-.06a2,2,0,0,0-.05.41,3.51,3.51,0,0,1,0,.59,1,1,0,0,1-.21.57.74.74,0,0,0-.15-.32c0,.22,0,.54-.09.72a1.39,1.39,0,0,0-.24.5c0-.19-.08-.13-.11-.24a1.85,1.85,0,0,1-.64,1,2.19,2.19,0,0,0,.18-.6,5.58,5.58,0,0,0-.1-.88,15.73,15.73,0,0,1-.15-4.14c.37-3.12,2-6,3.35-8.54Z"/><path class="cls-3" d="M5.15,5.86A7,7,0,0,0,5,7.56,1.73,1.73,0,0,1,5.63,9s0,0,0,0-.33-.15-.52-.44c0,.18.56.92.6,1.06,0,.47.08,1.13,0,1.27-.13-.07-.2-.21-.18-.12a4.07,4.07,0,0,0,.3.66,4.77,4.77,0,0,1,0,.56h0l-.3-.24s-.05-.09-.14-.18-.21-.23-.27-.25a1,1,0,0,0-.33-.16H4.66a2.58,2.58,0,0,1,.45.49,2.36,2.36,0,0,1,.37.55,4.55,4.55,0,0,0,.28.43c0,.21,0,.9,0,1l-.06,0A1.32,1.32,0,0,1,5.29,13c-.07.35.3.76.47.89.06.65.06.95.17,1.63v.06a2.32,2.32,0,0,1-.5-.55A1.81,1.81,0,0,0,6,16s0,.1,0,.15a1.08,1.08,0,0,0,.1.24,2,2,0,0,1,.05.43L6,17.05l.15.18c0,.2,0,.25,0,.47a.34.34,0,0,1-.25-.21,1.35,1.35,0,0,0,.14,1,1.6,1.6,0,0,1,.13.69l0,.09a1.1,1.1,0,0,0-.35-.43l-.05,0a2.16,2.16,0,0,1-.16,1.56l0,0A2.83,2.83,0,0,0,5,19.71,1.44,1.44,0,0,1,4.63,19h0a1.2,1.2,0,0,0,0,.4h0A2.15,2.15,0,0,1,4,18.27s0-.07,0-.22a6.25,6.25,0,0,0-.1-.64,3.18,3.18,0,0,0-.12-.47s0-.05,0,0-.08.11-.1.08a.32.32,0,0,1,0-.19s-.1,0-.11,0a6.14,6.14,0,0,1-.13-1.21c0-.1.15-.28.23-.47v0a.8.8,0,0,0-.27.28l0-.05a4.46,4.46,0,0,1-.06-.76.19.19,0,0,1,0-.13c.06-.15.13-.31.18-.46a5.52,5.52,0,0,1,.38-.77l0,.05c-.14,0-.5.48-.54.51h0c0-.44.14-1.41.22-2,.09-.22.74-.9.59-.78a1.61,1.61,0,0,0-.46.24l-.09,0a17.63,17.63,0,0,1,.48-2.36c.14-.25.29-.32.39-.59l-.07,0a2.63,2.63,0,0,0-.43.42h0A3.89,3.89,0,0,1,4,8.07a1.3,1.3,0,0,1,.14-.26.85.85,0,0,1,.26-.25l.16-.06A18.92,18.92,0,0,0,4,11.12a16.08,16.08,0,0,0,.83,6.49,18.54,18.54,0,0,1-.74-6.12A26.3,26.3,0,0,1,5,5.77Z"/><path class="cls-3" d="M4.75,5.67A28.88,28.88,0,0,0,3.13,8.82a14.74,14.74,0,0,0-1.78,6.86,13.46,13.46,0,0,0,.22,2.4,4.21,4.21,0,0,1,.12.9l0,0A2.34,2.34,0,0,0,2,18.29c0-.1.06,0,.06,0s.07.1.08.16,0,.06.05,0A.61.61,0,0,0,2.23,18a3.13,3.13,0,0,1,0-1c0-.06,0,0,0,0a1.21,1.21,0,0,0,.23.4s.06,0,.06,0,0-1.2.22-1.31c.09,0,.09.08.16.15a1.36,1.36,0,0,0,.09-.71A7.57,7.57,0,0,0,3,14.48c0-.08,0-.1,0-.11A.8.8,0,0,0,3.19,14l-.32.22A4.59,4.59,0,0,0,2.56,13a1.24,1.24,0,0,1,.32.46A5.55,5.55,0,0,0,3,12.79a5.84,5.84,0,0,1-.23-1.42,9.6,9.6,0,0,0,.29,1c.05-.17.09-.47.15-.71a1.44,1.44,0,0,0,.21-.18s-.16.05-.18.05a4.83,4.83,0,0,0-.11-1.42l0,0a.48.48,0,0,1,.18.31A4.21,4.21,0,0,0,3.57,9.1c-.14,0-.21.16-.31.14s0-.05.06-.14a3.08,3.08,0,0,0,.17-.36.78.78,0,0,0,.09-.4.8.8,0,0,1,.09-.48,1.07,1.07,0,0,0,.06.26,3.29,3.29,0,0,1,.32-.57,5.79,5.79,0,0,1,.86-1.88"/><path class="cls-3" d="M4.82,6.08A4.16,4.16,0,0,0,4.29,7.4a1.78,1.78,0,0,1,.23-.09c0-.19.34-1.29.3-1.23"/><path class="cls-5" d="M2.32,14.71s0,0,0,0h.13a.08.08,0,0,0,0-.06c0-.06,0-.14,0-.19s0-.1-.08-.13l-.07,0s-.05,0-.05,0,0,.1,0,.15,0,.11,0,.21"/><path class="cls-5" d="M1.77,14c0-.09,0-.21.1-.18s0,.07,0,.1a.54.54,0,0,0,.05.22s0,.07,0,.1-.16.11-.22,0-.08-.11,0-.17A.32.32,0,0,1,1.76,14"/><path class="cls-5" d="M1.9,14.92a.17.17,0,0,1,0-.25.08.08,0,0,1,.13,0l.09.26A.12.12,0,0,1,2,15.1c-.06,0-.05-.13-.09-.18"/><path class="cls-5" d="M2,15.28s0,0-.05,0,0,.09-.06.13a.28.28,0,0,0,0,.25.19.19,0,0,0,.15.12c.1,0,.17-.19.09-.24S2,15.37,2,15.29H1.94"/><path class="cls-5" d="M2.6,15.09a.07.07,0,0,1,0-.1s.07,0,.1,0l0,0a.22.22,0,0,1,.09.25.07.07,0,0,1-.1,0s-.06,0-.08-.05,0-.12,0-.17"/><path class="cls-5" d="M1.7,14.48c0-.05-.05,0-.08,0a.49.49,0,0,0-.08.28c0,.07.11.09.16.06s0-.33,0-.3,0-.06,0,0"/><path class="cls-5" d="M3.8,15.23s0,0-.06,0,0,.23.11.21a.09.09,0,0,0,.06-.1.2.2,0,0,0-.11-.13"/><path class="cls-5" d="M4.09,15.5a.08.08,0,0,0-.1,0,.14.14,0,0,0-.05.15.53.53,0,0,0,.08.17s.09.06.1,0a.22.22,0,0,0,0-.19.38.38,0,0,0-.08-.17"/><path class="cls-5" d="M5.17,15.41l-.06,0a.12.12,0,0,0,.06.17c.06,0,.13-.07.09-.12a.15.15,0,0,0-.12-.07"/><path class="cls-5" d="M4.65,16.11a.13.13,0,0,1,0-.13.08.08,0,0,1,.1-.05.21.21,0,0,1,.11.07.24.24,0,0,1,0,.31.09.09,0,0,1-.13,0c0-.06,0-.1,0-.16s0,0,0,0"/><path class="cls-5" d="M5.28,16.16c-.07-.05,0-.15-.11-.19a.09.09,0,0,0-.12,0s0,.08,0,.12a.13.13,0,0,0,0,.08c0,.1.17.1.26.16s0,0,0,0,0-.11-.06-.14"/><path class="cls-5" d="M4.28,16.06a.09.09,0,0,0-.12,0s0,0,0,0a.7.7,0,0,0,0,.29c0,.06.07.13.13.1a.1.1,0,0,0,.06-.13c0-.1,0-.21,0-.3"/><path class="cls-5" d="M6,16.09c0-.07-.15,0-.19,0s-.09-.07-.09-.14a.22.22,0,0,0,0,.21s.06.06.09.09a.33.33,0,0,1,.07.13c0,.06,0,.09-.07.1s-.12-.14-.15-.22-.1-.08-.13-.13,0,0,0,0-.09-.09-.12-.15a.08.08,0,0,0,0,.07,4.1,4.1,0,0,0,.21.48l.06.13a.16.16,0,0,1,0,.12s-.08,0-.09,0,0,.16.06.23.07.1,0,.15,0,0,0,0-.1,0-.13-.05a1.76,1.76,0,0,1-.29-.37c0-.06,0-.13-.06-.18s-.06-.08-.1,0l0,0a.29.29,0,0,1-.07.18l0,0a1.37,1.37,0,0,0-.08.35s0,.07-.05.08,0,0-.07,0a.84.84,0,0,1-.09-.19.69.69,0,0,0-.05-.13h0s0,0,0,0a.24.24,0,0,1-.14.1.06.06,0,0,1-.07,0c0-.15-.13-.25-.17-.39s-.13,0-.17,0A.79.79,0,0,1,3.91,16s-.05,0-.06.06a2.13,2.13,0,0,0-.26.73.56.56,0,0,1,0,.12c0,.1,0,.12.07,0s.08,0,.09,0,.11.34.15.64.09.57.12.72a1.88,1.88,0,0,0,.58,1.07c0-.2.05-.27,0-.42h0a1.23,1.23,0,0,0,.43.79,4.78,4.78,0,0,1,.43.48l.12.17a1.9,1.9,0,0,0,.24-.81h0a2.8,2.8,0,0,0-.08-.77,1.19,1.19,0,0,1,.4.47,1.1,1.1,0,0,0-.08-.74,1.47,1.47,0,0,1-.15-1.06c.07.17.12.16.25.19,0-.18,0-.44,0-.47A1.13,1.13,0,0,0,6,17.05l.12-.22a1.11,1.11,0,0,0,0-.42A1.93,1.93,0,0,1,6,16.09"/><path class="cls-5" d="M4.68,14.88c0-.05-.06-.08,0-.13h.05a.13.13,0,0,1,.15,0,.36.36,0,0,1,.07.1A.69.69,0,0,1,5,15a.09.09,0,0,1,0,.12s-.06.05-.12,0,0-.06,0-.08,0-.1,0-.13,0,0,0,0"/><path class="cls-5" d="M4.64,15.13l-.06,0s0,0,0,0-.1.14-.13.21,0,.15.09.2.11,0,.17,0,.09-.15.07-.23a.33.33,0,0,0-.1-.17"/><polygon class="cls-3" points="5.64 5.24 4.6 5.24 4.6 5.48 5.55 5.48 5.64 5.24"/><polygon class="cls-3" points="5.53 4.56 5.56 4.74 5.76 4.36 5.53 4.56"/><polygon class="cls-3" points="4.81 5.05 4.91 4.79 5.22 5.05 4.81 5.05"/><polygon class="cls-3" points="5.16 4.76 5.3 4.27 5.39 4.97 5.16 4.76"/><path class="cls-5" d="M1.37,14.79c0,.06,0,0,0,.08s0,.12,0,.18.05,0,.06-.08c0,.12-.06.23,0,.35.05,0,.11-.05.15-.11a.68.68,0,0,1,0,.14,1,1,0,0,0,0,.24c0,.1.14.18.1.28a.8.8,0,0,0,0,.5s0,.09.07.11h.1a.07.07,0,0,0,0-.06c0-.07,0-.14,0-.21A.68.68,0,0,1,2,16a0,0,0,0,1,.07,0c0,.09,0,.19.07.27s.08,0,.11,0,0-.17.06-.25-.06-.22-.07-.37,0-.15,0-.21a1,1,0,0,0,.13.38s.06,0,.07,0,.06-.18,0-.26-.13-.32,0-.43a.28.28,0,0,0,0,.18.63.63,0,0,1,.14.32s.07.06.11,0,0,0,0,0,.09.06.09.12,0,0,.07,0,0-.21.05-.3,0-.09.07-.11a2.1,2.1,0,0,1,0,.3,1.38,1.38,0,0,1-.09.71c-.07-.07-.07-.13-.16-.16-.25.12-.23,1.15-.22,1.31s-.06,0-.06,0a1.18,1.18,0,0,1-.23-.39s0-.06,0,0a3.13,3.13,0,0,0,0,1,.63.63,0,0,1-.07.44s-.05.05-.05,0,0-.1-.08-.17,0-.09-.06,0a2.56,2.56,0,0,1-.25.67l0,0a4.29,4.29,0,0,0-.12-.9,13.08,13.08,0,0,1-.24-2.39c0-.45,0-.93,0-.93Z"/><path class="cls-5" d="M4.5,16.63c.11.34.25.8.34,1,0-.2-.29-1-.28-1s-.06.05-.06.05"/><path class="cls-3" d="M12.84,3.84s-.11,0-.12,0,0,0,0-.06-.06,0-.09,0a.26.26,0,0,1-.15,0c-.08.09-.29,0-.4,0s.07,0,.08.06.19.05.28.06l0,0a1,1,0,0,1,.29,0s.13,0,.1-.06"/><path class="cls-3" d="M14.31,4l-.23-.13L14,3.77a.93.93,0,0,0-.14-.14,1,1,0,0,0-.22-.14h0s0,0,0,0h0l0,0s-.09,0-.13,0l-.08,0c-.06,0-.14,0-.21,0a.07.07,0,0,0-.05,0s-.07,0-.11,0-.07.05,0,.08a.34.34,0,0,0,.12.06c.13,0,.27,0,.39.06a.13.13,0,0,1,.1.08h0a.15.15,0,0,0-.09,0,2.58,2.58,0,0,0-.62,0c0,.06,0,.11.07.12a1.21,1.21,0,0,0,.19,0,.64.64,0,0,1,.21.09h0s.06-.06.09,0l.07,0h.12c.1,0,.18.07.27.06A.13.13,0,0,1,14,4s.13.09.15.06.15,0,.16,0"/><path class="cls-3" d="M14.85,3.92c-.06,0-.07-.11-.1-.17a.24.24,0,0,0-.1-.1c-.17-.09-.38-.25-.51-.24s-.06,0,0,.07.13.06.14.14c.17.08.48.14.47.34,0,0,.11,0,.14,0"/><path class="cls-5" d="M4.6,5.24H5.72a2.08,2.08,0,0,0-.1.24h-1Z"/></g></g></svg>