<svg id="Layer_1" data-name="Layer 1" xmlns="http://www.w3.org/2000/svg" viewBox="0 0 22 22"><defs><style>.cls-1{fill:#fff;}.cls-2{fill:#c6a876;}</style></defs><path d="M18.48,8.64a4.71,4.71,0,0,0-4.42-.18,7,7,0,0,0-.33-1.34C13.47,6.36,13.19,5.63,13,5c-.33-.84-.58-1.56-.71-2l-.88-3-.92,3c-.14.48-.38,1.21-.7,2.05-.25.64-.53,1.36-.78,2.12a7.1,7.1,0,0,0-.33,1.35,4.71,4.71,0,0,0-4.42.19,3.56,3.56,0,0,0-1.85,3.51,3.07,3.07,0,0,0,2.26,2.59l.91.25.23-.92c0-.12.36-1.27,1.39-1.25A2.31,2.31,0,0,1,8.77,13.9a2.21,2.21,0,0,0-.1,1l-.41-.54-.73.55a2.71,2.71,0,0,0-1,3.14,2,2,0,0,0,1.57,1.2,3.79,3.79,0,0,0,1.46,0,5.11,5.11,0,0,0,1.17,2l.66.69.66-.7a5,5,0,0,0,1.17-2,3.6,3.6,0,0,0,1.46,0,2.05,2.05,0,0,0,1.57-1.21,2.72,2.72,0,0,0-1-3.14l-.73-.55L14,14.9a2.21,2.21,0,0,0-.1-1,2.29,2.29,0,0,1,1.61-1.06c1,0,1.37,1.12,1.4,1.25l.23.92.91-.26a3.06,3.06,0,0,0,2.25-2.6,3.57,3.57,0,0,0-1.86-3.5"/><path class="cls-1" d="M11.05,3.08a16.51,16.51,0,0,1-.73,2.14c-.24.64-.52,1.35-.77,2.1a5.44,5.44,0,0,0-.34,1.75,3.73,3.73,0,0,0,0,.47A4.29,4.29,0,0,0,4.53,9.2,2.94,2.94,0,0,0,3,12.09a2.47,2.47,0,0,0,1.81,2.07l.29.08L5.15,14c0-.08.45-1.77,2-1.74a3.12,3.12,0,0,1,2.31,1.63,1.56,1.56,0,0,0-.2.77,1.86,1.86,0,0,0,.4,1.09.82.82,0,0,1-.52.36c-.31,0-.63-.3-.84-.58l-.17-.24-.24.18a2.12,2.12,0,0,0-.82,2.4,1.41,1.41,0,0,0,1.11.83A3.17,3.17,0,0,0,10,18.43a4.62,4.62,0,0,0,1.18,2.38l.21.22.21-.23a4.46,4.46,0,0,0,1.17-2.37,3.12,3.12,0,0,0,1.79.21,1.41,1.41,0,0,0,1.11-.83,2.13,2.13,0,0,0-.83-2.4l-.24-.18-.17.24c-.21.28-.53.61-.84.59a.8.8,0,0,1-.52-.37,1.79,1.79,0,0,0,.39-1.08,1.76,1.76,0,0,0-.19-.78,3.1,3.1,0,0,1,2.3-1.63c1.56,0,2,1.66,2,1.73l.07.29.29-.08a2.44,2.44,0,0,0,1.8-2.08,3,3,0,0,0-1.55-2.88,4.3,4.3,0,0,0-4.73.36,3.57,3.57,0,0,0,0-.46,5.4,5.4,0,0,0-.34-1.76c-.25-.75-.53-1.47-.77-2.1a15.83,15.83,0,0,1-.74-2.14l-.29-1.35-.29,1.35"/><path d="M11.36,20.6a4.26,4.26,0,0,0,1.14-2.67c.5.5,2.43.83,2.87-.23s-.74-2-.74-2c-1.17,1.56-2,0-2,0a1.4,1.4,0,0,0,.22-1.83,3.46,3.46,0,0,1,2.63-1.94c1.82,0,2.31,1.95,2.31,1.95,1.92-.53,2.29-3.2.18-4.42-2.67-1.56-5,.81-5,.81a4.31,4.31,0,0,0-.16-2.84c-.59-1.75-1.32-3.32-1.52-4.27-.2.95-.92,2.52-1.51,4.27a4.39,4.39,0,0,0-.15,2.85s-2.34-2.37-5-.81c-2.11,1.23-1.73,3.9.18,4.43,0,0,.49-2,2.31-2a3.5,3.5,0,0,1,2.64,1.93A1.4,1.4,0,0,0,10,15.68s-.78,1.54-1.95,0c0,0-1.21.9-.73,2.06s2.37.72,2.86.22a4.31,4.31,0,0,0,1.15,2.67"/><path class="cls-2" d="M16.15,9.36c-2.18,0-4,2.47-4,2.47a6.2,6.2,0,0,0,.17-4.4,22.5,22.5,0,0,1-1-3v0a21.11,21.11,0,0,1-1,3.05,6.22,6.22,0,0,0,.18,4.4s-1.79-2.47-4-2.46-4,2.47-2,3.94a2.79,2.79,0,0,1,2.62-1.84,3.55,3.55,0,0,1,3,2.39,1.31,1.31,0,0,0,.27,1.77s-1,2.16-2.45.61c0,0-1.09,1.36.34,1.69a2.82,2.82,0,0,0,2.25-.88,4.63,4.63,0,0,0,.72,2.81h0A4.62,4.62,0,0,0,12.07,17a2.86,2.86,0,0,0,2.26.89c1.42-.34.33-1.7.33-1.7-1.42,1.55-2.45-.6-2.45-.6a1.3,1.3,0,0,0,.26-1.77,3.55,3.55,0,0,1,3-2.39,2.77,2.77,0,0,1,2.62,1.82c2-1.47.19-3.94-2-3.93"/></svg>