<svg id="Layer_1" data-name="Layer 1" xmlns="http://www.w3.org/2000/svg" viewBox="0 0 22 22"><defs><style>.cls-1{fill:#fff;}.cls-2{fill:#024;}.cls-3{fill:#69be28;}.cls-4{fill:#a5acaf;}</style></defs><path class="cls-1" d="M18.46,15a17.4,17.4,0,0,0-2.88-.24H2.35c-.82,0-1.68,0-2.1-.68S0,12.75.78,11.41C.83,11.3,3.11,7,3.11,7a5.11,5.11,0,0,0,.45.48,1.6,1.6,0,0,0,1.11.27H13.1c1.47,0,3,.14,3.91,1.21a11.23,11.23,0,0,1,3.45.89,2.63,2.63,0,0,1,1.48,1.6,2.34,2.34,0,0,1,.08.64,4.15,4.15,0,0,1-.7,2.11,6.89,6.89,0,0,1-2,2.13,2.29,2.29,0,0,1-1.12.42,3.72,3.72,0,0,0,.66-1.12A.49.49,0,0,0,18.46,15Z"/><path class="cls-2" d="M20.29,10.23a11.31,11.31,0,0,0-3.46-.88c-.85-1-2.28-1.19-3.73-1.19l-8.43,0c-1.33,0-1.45-.53-1.45-.53L1.44,11H6a2.88,2.88,0,0,0,2.48-.87,4.38,4.38,0,0,1,2.8-1A6,6,0,0,1,14,9.77c1.06.48,1.63.72,2.28.44,0,0-.5.68-2,0a6.43,6.43,0,0,0-2.86-.77,4.74,4.74,0,0,0-3.25,1.74l1.56,1.25s-.37.57-.61.92-.22.58-.09.77.3.24.86.24h5.71a17.11,17.11,0,0,1,3,.25c1.47.3.51,1.53.51,1.53A7.37,7.37,0,0,0,21,14C22.07,12.32,21.8,11,20.29,10.23Z"/><path class="cls-1" d="M17.61,10.49c-.67-.17-.09-.55-.09-.55a2,2,0,0,0-1.45,1.23s0,.05-.05.09c-.55,1.1-1,1.05-2,1.05h-1.6a2.67,2.67,0,0,0-2.53,1.74h.73a2.59,2.59,0,0,1,2.52-1.34,15.11,15.11,0,0,1,6.71,1.52C21.69,11.19,19,10.69,17.61,10.49Z"/><path class="cls-1" d="M12,14c.33-.51,1-.68,2.13-.62a17.06,17.06,0,0,1,5.54,1.15A14,14,0,0,0,13.58,13a2.2,2.2,0,0,0-2.17,1Z"/><path class="cls-1" d="M14.92,11c-.35.52-.83.68-2.17.59-1.54-.11-1.13-.77-1-1.08h0c.06-.09.13-.26.22-.41A2.87,2.87,0,0,0,10,11a2.71,2.71,0,0,0,2.27,1h1.51c1.39,0,1.72-.62,1.85-.92A1.83,1.83,0,0,1,14.92,11Z"/><path class="cls-3" d="M14.24,10.86l-.09,0a.68.68,0,0,1-.59.2c-.31,0-.48-.26-.38-.48a.26.26,0,0,1,0-.11l-.46-.16c-.31.49-.47.82.59.92.66.05.84-.06,1-.3Z"/><path class="cls-4" d="M8.87,12.76c-.55,1-.77,1.18-.39,1.64H2.35c-.91,0-1.5,0-1.79-.5s-.24-.88.55-2.31H6.32A2.09,2.09,0,0,1,7.93,12Z"/></svg>