<svg id="Layer_1" data-name="Layer 1" xmlns="http://www.w3.org/2000/svg" viewBox="0 0 22 22"><defs><style>.cls-1{fill:#a4b1bc;}.cls-2{fill:#fff;}.cls-3{fill:#2b2422;}.cls-4{fill:#f3c900;}.cls-5{fill:#23387a;}.cls-6{fill:#bd1a1a;}</style></defs><path class="cls-1" d="M11.15,20.44a9.32,9.32,0,1,1,9.32-9.32,9.32,9.32,0,0,1-9.32,9.32Zm0-20.32a11,11,0,1,0,11,11,11,11,0,0,0-11-11Z"/><path class="cls-2" d="M6.35,10.91c0-.15,0-.19-.15-.19s-.13.12-.13.25V11h.28v-.12Z"/><path class="cls-2" d="M5.13,10.72C5,10.72,5,10.84,5,11V11h.28v-.12c0-.15,0-.19-.14-.19Z"/><path class="cls-2" d="M8,10.91c0-.15,0-.19-.15-.19s-.13.12-.13.25V11H8v-.12Z"/><path class="cls-2" d="M15.76,15.76c-.49-2.63-1.41-4.09-4.71-4.65,3.3-.56,4.22-2,4.71-4.66.5,2.63,1.41,4.1,4.71,4.66-3.3.56-4.21,2-4.71,4.65Zm-6.15-4c.08,0,.13-.06.11-.16s-.08-.12-.13-.16l-.16-.13a.53.53,0,0,1-.23-.45c0-.22.15-.35.42-.35s.4.17.39.48H9.73c0-.16,0-.22-.13-.22s-.12,0-.12.11,0,.12.11.17l.23.18a.51.51,0,0,1,.19.28c0,.25,0,.51-.42.51-.15,0-.42-.08-.39-.51h.28c0,.26.06.25.13.25Zm-.78-1a.38.38,0,0,1,.11-.2.18.18,0,0,1,.17-.07v.39c-.16,0-.27,0-.28.23v.83H8.55V10.5h.27v.25Zm-.94,1c.1,0,.13-.08.12-.26h.28c0,.31-.1.52-.38.52s-.46-.18-.45-.6V11c0-.33.13-.53.41-.53s.43.24.43.63v.19H7.74v.21c0,.19.06.22.15.22Zm-1,.22V10h.28v1.9Zm4.14,8.49c-.49-2.63-1.41-4.09-4.71-4.65,3.3-.56,4.22-2,4.71-4.65C10.56,8.49,9.64,7,6.34,6.47c3.3-.56,4.22-2,4.71-4.66.49,2.63,1.41,4.1,4.71,4.66-3.3.56-4.22,2-4.71,4.65.49,2.63,1.41,4.09,4.71,4.65-3.3.56-4.22,2-4.71,4.65ZM5.79,11.37V11c0-.33.13-.53.41-.53s.43.24.43.63v.19H6.07v.21c0,.19.06.22.14.22s.14-.08.13-.26h.28c0,.32-.1.52-.39.52s-.45-.18-.44-.6Zm-.24-.09H5v.21c0,.19.06.22.15.22s.13-.08.13-.26h.28c0,.31-.11.52-.39.52s-.45-.18-.45-.6V11c0-.33.14-.53.41-.53s.43.24.43.63v.19Zm-1-.54H4.43v.89c0,.06.08,0,.12,0v.25c-.17,0-.4,0-.4-.22v-1H4V10.5h.11v-.12l.29-.27v.39h.12v.24ZM3.4,12c-.36,0-.49-.23-.49-.57v-.14h.3v.11c0,.18,0,.32.19.32s.19-.08.19-.22a.28.28,0,0,0-.12-.25A2.85,2.85,0,0,1,3,10.78a.73.73,0,0,1-.07-.29c0-.33.15-.5.47-.5.48,0,.47.43.47.62H3.57c0-.17,0-.34-.18-.34s-.16.05-.16.18a.3.3,0,0,0,.17.27,2.11,2.11,0,0,1,.36.31.52.52,0,0,1,.14.4.47.47,0,0,1-.5.54ZM11.15,1.8a9.32,9.32,0,1,0,9.32,9.32A9.32,9.32,0,0,0,11.15,1.8Z"/><path class="cls-3" d="M3.4,10.72a.3.3,0,0,1-.17-.27c0-.13.06-.18.16-.18s.18.17.18.34h.29c0-.19,0-.62-.47-.62-.32,0-.47.17-.47.5a.73.73,0,0,0,.07.29,2.85,2.85,0,0,0,.48.44.28.28,0,0,1,.12.25c0,.14-.06.22-.19.22s-.19-.14-.19-.32v-.11h-.3v.14c0,.34.13.58.49.58a.48.48,0,0,0,.5-.55.52.52,0,0,0-.14-.4,2.11,2.11,0,0,0-.36-.31Z"/><path class="cls-3" d="M4.43,10.11l-.29.27v.12H4v.24h.12v1c0,.26.23.25.39.22v-.25s-.11,0-.11,0v-.89h.11V10.5H4.43v-.39Z"/><path class="cls-3" d="M5.27,11H5V11c0-.13,0-.25.14-.25s.14,0,.14.19V11Zm-.15-.57c-.27,0-.42.2-.41.53v.38c0,.42.13.6.45.6s.4-.21.39-.52H5.27c0,.18,0,.26-.13.26s-.15,0-.15-.22v-.21h.56v-.19c0-.39,0-.63-.43-.63Z"/><path class="cls-3" d="M6.07,11c0-.13,0-.25.13-.25s.14,0,.15.19V11H6.07V11Zm.55.48H6.34c0,.18,0,.26-.13.26s-.14,0-.14-.22v-.21h.56v-.19c0-.39,0-.63-.43-.63s-.43.2-.41.53v.38c0,.42.12.6.44.6s.4-.21.39-.52Z"/><polygon class="cls-3" points="6.91 10.03 7.19 10.03 7.19 11.93 6.91 11.93 6.91 10.03 6.91 10.03"/><path class="cls-3" d="M7.74,11c0-.13,0-.25.13-.25s.15,0,.15.19V11H7.74V11Zm.56.31v-.19c0-.39,0-.63-.43-.63s-.42.2-.41.53v.38c0,.42.12.6.45.6s.39-.21.38-.52H8c0,.18,0,.26-.12.26s-.15,0-.15-.22v-.21Z"/><path class="cls-3" d="M8.55,10.5v1.43h.28V11.1c0-.21.12-.25.28-.23v-.39a.18.18,0,0,0-.17.07.38.38,0,0,0-.11.2h0V10.5Z"/><path class="cls-3" d="M9.2,11.46c0,.43.24.51.39.51.39,0,.44-.26.42-.51a.51.51,0,0,0-.19-.28L9.59,11c-.06-.05-.11-.08-.11-.17s0-.11.12-.11.14.06.13.22H10c0-.31-.12-.48-.39-.48s-.42.13-.42.35a.53.53,0,0,0,.23.45l.16.13c.05,0,.13.08.13.16s0,.16-.11.16-.15,0-.13-.25Z"/><path class="cls-4" d="M11.05,11.12c.49-2.63,1.41-4.09,4.71-4.65-3.3-.56-4.22-2-4.71-4.66-.49,2.63-1.41,4.1-4.71,4.66,3.3.56,4.22,2,4.71,4.65Z"/><path class="cls-5" d="M11.05,11.12h0c-.49,2.63-1.41,4.09-4.71,4.65,3.3.56,4.22,2,4.71,4.65.49-2.63,1.41-4.09,4.71-4.65-3.3-.56-4.22-2-4.71-4.65Z"/><path class="cls-6" d="M15.76,6.45c-.49,2.63-1.41,4.1-4.71,4.66,3.3.56,4.22,2,4.71,4.65.5-2.63,1.41-4.09,4.71-4.65-3.3-.56-4.21-2-4.71-4.66Z"/></svg>