<svg id="Layer_1" data-name="Layer 1" xmlns="http://www.w3.org/2000/svg" viewBox="0 0 22 22"><defs><style>.cls-1{fill:#fff;}.cls-2{fill:#b21e35;}.cls-3{fill:#06192e;}</style></defs><path class="cls-1" d="M16.36,4.49c4.71,3.59,1.13,4.12-2.55,4.65A26.78,26.78,0,0,1,9.57,7.37c-6.09-3-4.17-4.45.62-5.32-7.67-3.34-14.06,2.48-7,8.14L1.24,11.57c1.59,1,4.88,3,4.41,6.15L4,18.89l5,2.26,3.94-1.79c0-1.73,3.13-2.63,4.46-6.16,7.34-1.68,5.47-8.14-1-8.71Z"/><path class="cls-2" d="M17.69,5.05c3.16,2.48,1,4.06-2.89,4.49,1,4.11-2,7.87-5.18,10.79L12.52,19c.22-1.67,3.16-2.53,4.55-6.24,6.56-1.46,5.49-6.17.62-7.72Z"/><path class="cls-3" d="M13,9.47C3.8,5.91,3.19,3,8.94,2,1.75,0-2.45,5.24,4.67,10.21L2.76,11.57c2,1.36,4.17,3.36,3.45,6.52l-1,.69,3.7,1.67c3.44-3.76,5.24-7.42,4.07-11Zm-2.32,5.72-1.42-1.6-1.62.24.75-1.24L7,11l1.87.85.75-1.24L10,12.35l1.88.84-1.62.24.41,1.76Z"/><path class="cls-3" d="M13,9.47C3.8,5.91,3.19,3,8.94,2,1.75,0-2.45,5.24,4.67,10.21L2.76,11.57c2,1.36,4.17,3.36,3.45,6.52l-1,.69,3.7,1.67c3.44-3.76,5.24-7.42,4.07-11Zm-2.32,5.72-1.42-1.6-1.62.24.75-1.24L7,11l1.87.85.75-1.24L10,12.35l1.88.84-1.62.24.41,1.76Z"/><path class="cls-2" d="M17.69,5.05c3.16,2.48,1,4.06-2.89,4.49,1,4.11-2,7.87-5.18,10.79L12.52,19c.22-1.67,3.16-2.53,4.55-6.24,6.56-1.46,5.49-6.17.62-7.72Z"/><path class="cls-1" d="M13,20.36l.15-.4h.14v.54h-.09v-.44h0L13,20.5h-.07l-.17-.44h0v.44h-.09V20h.14l.16.4Zm-.4-.32h-.16v.46h-.1V20h-.16V20h.42V20Z"/></svg>