<svg id="Layer_1" data-name="Layer 1" xmlns="http://www.w3.org/2000/svg" viewBox="0 0 22 22"><defs><style>.cls-1{fill:#fff;}.cls-2{fill:#024;}.cls-3{fill:#4b92db;}.cls-4{fill:#16243e;}.cls-5{fill:#a5acaf;}.cls-6{fill:#c60c30;}</style></defs><path class="cls-1" d="M7.07,12.57a3.58,3.58,0,0,0,.41,1.34A4.56,4.56,0,0,0,10.2,16.1a6.22,6.22,0,0,0,.89,1.1,6.37,6.37,0,0,0,9-9,6.28,6.28,0,0,0-3.47-1.78,4.34,4.34,0,0,0-4-1l-.13,0a1.13,1.13,0,0,1-1.19-.2,5.94,5.94,0,0,0-.75-.52,3.7,3.7,0,0,0-3.08-.09,1.16,1.16,0,0,1-1.21-.2,5.86,5.86,0,0,0-4.7-.76A7.73,7.73,0,0,0,0,4.15a8,8,0,0,1,1.64.46A3.34,3.34,0,0,1,3.25,5.93s.26.38.09.5S3,6.24,3,6.24a4,4,0,0,0,0,.61,5,5,0,0,0,1.31,3.64,6.68,6.68,0,0,0,2,1.12,1,1,0,0,1,.76,1"/><path class="cls-2" d="M19.8,8.46a5.88,5.88,0,0,0-3.37-1.69,4,4,0,0,0-3.66-1c.43.06.71.32.6.6s-.38.19-.52.19A1.81,1.81,0,0,1,11.71,6a11.92,11.92,0,0,0-1.32-1,3.38,3.38,0,0,0-3.26.21,3.4,3.4,0,0,1,1.75.57c.24.2.55.6.3.79a1.17,1.17,0,0,1-1-.08,4.54,4.54,0,0,1-1.07-.91A5.4,5.4,0,0,0,1.38,4.11,3.59,3.59,0,0,1,3.91,6.34c.5,1.2.89,1.71,1.72,2,.52.2.66.24.62.47s-.67.17-1.14,0a3.38,3.38,0,0,1-1.77-2,4.61,4.61,0,0,0,1.21,3.35,6.44,6.44,0,0,0,2,1.09,4.81,4.81,0,0,1,1.66.84c.57.51.32.85-.05.78a1.33,1.33,0,0,1-.74-.51,3.81,3.81,0,0,0,3,3.37,6.16,6.16,0,0,0,.9,1.15,6,6,0,0,0,8.45,0,6,6,0,0,0,1.74-4.23A5.9,5.9,0,0,0,19.8,8.46"/><path class="cls-3" d="M19.49,8.76A5.44,5.44,0,0,0,16.2,7.18a3.09,3.09,0,0,0-2.14-1c.47.3.23,1-.81,1.09a3.55,3.55,0,0,1-3-1,2,2,0,0,0-1.15-.8c.57.36.61.79,1,1.44a2,2,0,0,0,1.68.92c.65,0,.67.34.14.65a1.15,1.15,0,0,1-1.45-.34,2.43,2.43,0,0,0-2-.68,7.52,7.52,0,0,1-2.76-.22A3.42,3.42,0,0,1,4.23,5.76,3.21,3.21,0,0,0,6.57,8.25a5.92,5.92,0,0,1,2.55.93,2.81,2.81,0,0,1,1,1.37c.14.43.17,1,0,1s-.2-.19-.39-.59a2.23,2.23,0,0,0-1-1.07A4.13,4.13,0,0,0,6.6,9.58a4.3,4.3,0,0,1-.88-.06s0,.08.93.28A3.66,3.66,0,0,1,9.3,12c.56,1.18.27,2-1,1.64a3.57,3.57,0,0,0,2.45,1.74,5.3,5.3,0,0,0,.9,1.17,5.51,5.51,0,0,0,7.8-7.79"/><path class="cls-1" d="M15.59,7.41A5.26,5.26,0,1,1,11.88,9a5.24,5.24,0,0,1,3.71-1.54"/><path class="cls-4" d="M15.6,17.45a4.79,4.79,0,1,1,4.78-4.8,4.79,4.79,0,0,1-4.78,4.8"/><path class="cls-1" d="M14.42,11.69H13l-.47.83-.63-1.78h7.36l-.63,1.78-.46-.83h-1.4l-1.18,5.17-1.17-5.17"/><path class="cls-5" d="M19.26,10.74H11.9l.12.34h3.51l-1.11.61,1.17,5.17V11.08h3.55l.12-.34"/><path class="cls-6" d="M3.51,4.19a3.66,3.66,0,0,0-.65.06s1,0,1.87,1.54A2.72,2.72,0,0,0,7.89,7.08,2.63,2.63,0,0,1,5.8,5.74,2.58,2.58,0,0,0,3.51,4.19ZM9,4.94a1.86,1.86,0,0,0-.93.2,2.24,2.24,0,0,1,1.71.47A3.1,3.1,0,0,0,12,6.6a5.15,5.15,0,0,1-1.51-1.11A2.24,2.24,0,0,0,9,4.94Zm6.55,3.14-.27.84h-.89l.73.51-.27.85.71-.53.72.52L16,9.44l.71-.52h-.89l-.27-.84ZM3.94,8.44a2.26,2.26,0,0,0,1.81,2.05c1.26.34,2.18.53,2.77,1.34,0,0-.15-1.45-2.22-1.87S3.94,8.44,3.94,8.44Zm9.21,4.81-.59.66-.81-.36.45.77-.59.66.87-.19.44.76.09-.88.86-.19-.81-.35.09-.88Zm4.86,0,.1.88-.81.37.87.17.09.89.44-.78.87.18-.6-.65.44-.77-.81.37L18,13.25Z"/></svg>