<svg id="Layer_1" data-name="Layer 1" xmlns="http://www.w3.org/2000/svg" viewBox="0 0 22 22"><defs><style>.cls-1{fill:#fff;}.cls-2{fill:#e9bf9b;}.cls-3{fill:#ffc62f;}.cls-4{fill:#4f2683;stroke:#000;stroke-width:0.16px;}</style></defs><path class="cls-1" d="M19.74,14.19a.77.77,0,0,0-.5-.58h-.06a2.12,2.12,0,0,0,.09-.44l.31-.13.2-.08,0-.21a2.46,2.46,0,0,0-.44-1,1,1,0,0,0,.08-.32c0-.16-.13-.33-.39-.5,0,0,0-.05,0-.23a1.69,1.69,0,0,0,0-.34,1,1,0,0,0,.4-.5,2.19,2.19,0,0,0,.13-.59,1.67,1.67,0,0,0,0-.23l0-.32-.25.19,0,0,0,0-.17.09-.29.11a7.16,7.16,0,0,0-2.26-3.73,9.8,9.8,0,0,0-4.86-1.92l-.27,0a4.38,4.38,0,0,1,0,.53h0l0,.17a2.05,2.05,0,0,1-.69-.63,3.32,3.32,0,0,1-.34-1,3.9,3.9,0,0,0-.18-.67,3.94,3.94,0,0,0-1-1.42A.47.47,0,0,0,8.63.35a.32.32,0,0,0-.2.08c-.06,0-.22.2,0,.47A3.88,3.88,0,0,1,8.8,2.2c0,.25,0,.56,0,.89a5,5,0,0,0,.3,2,2.82,2.82,0,0,0,.42.67l.08.1.08.09A1.92,1.92,0,0,1,9,5.69h0A2.88,2.88,0,0,1,7.51,3.47l0-.12a4.35,4.35,0,0,1,0-.51c0-.11,0-.21,0-.32a5.31,5.31,0,0,0-.09-.79c0-.11,0-.22-.06-.33h0a1.19,1.19,0,0,0,0-.22s0-.09,0-.14A1.26,1.26,0,0,0,7.05.7,1.87,1.87,0,0,0,6.8.36,1.62,1.62,0,0,0,6.6.18h0A.4.4,0,0,0,6.38.11a.23.23,0,0,0-.14,0h0a.35.35,0,0,0-.08.47V.68s0,0,0,0a.35.35,0,0,1,0,.06,4,4,0,0,1-.1,1.49v.05c0,.15,0,.27-.05.38a9.87,9.87,0,0,0-.16,1.46v.1A4.71,4.71,0,0,0,8.94,8.76h0a9,9,0,0,0-.14,1.69,14.72,14.72,0,0,0-1.92.92,12.49,12.49,0,0,0-2.67,2l-.47.48-.11.11v0a10.85,10.85,0,0,0-1.07,1.32l0,.09c0,.08-.08.24,0,.32s.13.09.29,0l.06,0L3,15.62a9.67,9.67,0,0,1,4-1.23c.56,0,1.12-.12,1.33-.15a3.38,3.38,0,0,0,.58.2,1.87,1.87,0,0,0,.34,0,1.23,1.23,0,0,0,.28,0,2.68,2.68,0,0,0,.69,1.09,2.76,2.76,0,0,0,.29,1.34,2.65,2.65,0,0,0,.65.7,1.82,1.82,0,0,0,.09.62,2,2,0,0,0,.28.48,1.06,1.06,0,0,0-.08.35.74.74,0,0,0,.07.36,1,1,0,0,0-.09.24.87.87,0,0,0,0,.33c0,.06-.05.14-.07.21a.64.64,0,0,0,0,.28.87.87,0,0,0,.13.94.49.49,0,0,0,.31.11.72.72,0,0,0,.49-.25.9.9,0,0,0,.38-.32,1,1,0,0,0,.12-.28,1.16,1.16,0,0,0,.3-.56,2.78,2.78,0,0,0,.53-1l0-.13a.43.43,0,0,0,0-.05,3.51,3.51,0,0,0,0-1,2.6,2.6,0,0,0,.32-1.06A7.69,7.69,0,0,1,15,16.25a3.42,3.42,0,0,1-.06,1,2.45,2.45,0,0,1-.7,1.18l-.24.26a.22.22,0,0,0-.05.17s0,0,0,0,0,0,0,0,.36.05.36.05a2.85,2.85,0,0,0,2.18-1.83A14.5,14.5,0,0,0,17,15.66c.65-.12,1.24-.18,1.65-.22l.42,0c.24,0,.7-.1.73-.54a3.18,3.18,0,0,0-.06-.66"/><path d="M19.48,14.22a.49.49,0,0,0-.3-.36l-.32-.08A2.68,2.68,0,0,0,19,13l.45-.21a2.31,2.31,0,0,0-.46-.95,2.63,2.63,0,0,0,.1-.37c0-.07-.13-.2-.27-.29s-.16-.25-.16-.44a.94.94,0,0,0-.11-.45s.36-.13.48-.48a2.06,2.06,0,0,0,.12-.62c-.16.24-.79.33-.79.33a6.52,6.52,0,0,0-2.22-3.83,9.5,9.5,0,0,0-4.71-1.86.88.88,0,0,1,0,.31,1.53,1.53,0,0,1-.14.46l0,0a2.55,2.55,0,0,1-1-.87A9.68,9.68,0,0,1,9.7,2,3.7,3.7,0,0,0,8.75.69C8.67.62,8.64.6,8.6.63s0,.08,0,.13a4.5,4.5,0,0,1,.44,1.41A10.28,10.28,0,0,0,9.39,5a3.35,3.35,0,0,0,.85,1.11l0,0,.08.08a2.42,2.42,0,0,1-1.52-.26A3.14,3.14,0,0,1,7.25,3.5V3.38c0-.28,0-.56,0-.84a6.48,6.48,0,0,0-.09-.77c0-.11,0-.22-.07-.33h0a1.46,1.46,0,0,0,0-.2.65.65,0,0,0,0-.13A.84.84,0,0,0,6.83.84a1.29,1.29,0,0,0-.22-.3A.75.75,0,0,0,6.45.39s-.06,0-.09,0-.05,0,0,.15l0,.06,0,.07a.29.29,0,0,0,0,.09,4.59,4.59,0,0,1-.11,1.62h0c0,.13,0,.26-.06.4a9.84,9.84,0,0,0-.15,1.41v.1A4.42,4.42,0,0,0,9.24,8.59c0,.06,0,.12,0,.18a7.64,7.64,0,0,0-.13,1.85h0A13.87,13.87,0,0,0,7,11.6,12.66,12.66,0,0,0,4.4,13.52L3.93,14l-.1.12h0a12.93,12.93,0,0,0-1.07,1.34,9.18,9.18,0,0,1,4.18-1.33c.68,0,1.38-.16,1.38-.16a2.42,2.42,0,0,0,.6.22,1.76,1.76,0,0,0,.75,0,2.29,2.29,0,0,0,.77,1.27,2.59,2.59,0,0,0,.24,1.32,2.57,2.57,0,0,0,.69.7,1.88,1.88,0,0,0,.07.66,1.82,1.82,0,0,0,.33.53,1.13,1.13,0,0,0-.12.4.46.46,0,0,0,.12.35.85.85,0,0,0-.14.28.73.73,0,0,0,.06.31.86.86,0,0,0-.1.24.46.46,0,0,0,0,.23c0,.1-.2.55,0,.74s.49-.16.49-.16a.75.75,0,0,0,.31-.24.6.6,0,0,0,.09-.28.66.66,0,0,0,.22-.27.51.51,0,0,0,.07-.26,2.37,2.37,0,0,0,.57-1.11,2.92,2.92,0,0,0,0-1,2.32,2.32,0,0,0,.34-1.15,7.5,7.5,0,0,1,1.54-.83,4.78,4.78,0,0,1,0,1.44,2.92,2.92,0,0,1-.9,1.44,2.64,2.64,0,0,0,2-1.68c.22-.54.42-1.3.52-1.64,1-.2,1.92-.25,2.23-.3s.51-.15.52-.3a2.72,2.72,0,0,0-.07-.61Z"/><path class="cls-1" d="M9.37,2.14a6.5,6.5,0,0,1,.1.93,4.41,4.41,0,0,0-.18-.74c0,.16.05.31.06.43a6.42,6.42,0,0,0,.25,2,2.68,2.68,0,0,0,.87,1.08l.66-.95A2.66,2.66,0,0,1,9.7,2.77a3.69,3.69,0,0,0-.1-.39,4.54,4.54,0,0,1,0,.63,5.43,5.43,0,0,0-.24-.87ZM6.72,2.2a1.34,1.34,0,0,1,0,.2A5.32,5.32,0,0,1,6.65,3c0,.17-.05.35-.07.52s0,.14,0,.13h0c0-.11,0-.45,0-.84v0a9.27,9.27,0,0,0-.14,1.46v.09A4.57,4.57,0,0,0,6.68,6,3.92,3.92,0,0,0,9.43,8.39c.66.19,1.41.33,1.93.49h0a3.23,3.23,0,0,1,.93.43s-.38-.07-.77-.12a1.55,1.55,0,0,0,1.28.68,1.5,1.5,0,0,0,1-.41c-.06,0-.13.08-.17.11a1.25,1.25,0,0,1-.36.09,1.13,1.13,0,0,1-.5,0h0A1.34,1.34,0,0,0,14,8.29a1.62,1.62,0,0,0-.33-.91,1.37,1.37,0,0,1,.47.9,1.49,1.49,0,0,1-.06.52,1.46,1.46,0,0,0,.14-.59,1.05,1.05,0,0,1,0,.59,1.4,1.4,0,0,0,.11-.53.13.13,0,0,1,0,.06h0a1.66,1.66,0,0,0,0-.32V8a1.87,1.87,0,0,0-1.05-1.37,4.05,4.05,0,0,0-1.19-.31,3.24,3.24,0,0,0-.82,0l-.41.05a3.18,3.18,0,0,1-2.13-.23A3.37,3.37,0,0,1,7,3.53V3.41c0-.16,0-.32,0-.48s0-.21,0-.19,0,0,0,0a2,2,0,0,1,0,.35c0,.14,0,.41,0,.4s0,0,0,0a.49.49,0,0,1,0-.12V3.14c0-.2,0-.77-.06-.85s0-.08,0-.09Z"/><path class="cls-2" d="M16.16,9.62l-.53.05-.09,0v0a4.74,4.74,0,0,1-.67,1.83,3.08,3.08,0,0,1,.61.29.77.77,0,0,1,.22.62,3.55,3.55,0,0,1-.13.74,6,6,0,0,0-.08-.77A.72.72,0,0,0,15,12l-.43-.11a11,11,0,0,1-1,1,.25.25,0,0,0,.15.11.79.79,0,0,0,.44-.06,2,2,0,0,0,.26,1.35,1,1,0,0,0,.92.34,4,4,0,0,1,.7-1.65,3.38,3.38,0,0,1,1.62-1.16.77.77,0,0,1,0-.34.36.36,0,0,1,.32-.21.9.9,0,0,1,.32.08.43.43,0,0,0-.39.09c-.09.08-.05.26,0,.33a2.57,2.57,0,0,1,.87,0c.08,0,.15,0,.17-.09s0-.22,0-.26a2.24,2.24,0,0,1-.22-.11.54.54,0,0,1-.15-.45,1.75,1.75,0,0,0-.13-.54,5.53,5.53,0,0,1-1.5-.13,1.27,1.27,0,0,0-.77.18,1.32,1.32,0,0,1,0-.74Zm1.21.71a1,1,0,0,1,.35.06,1,1,0,0,0-.37.09.9.9,0,0,1,.15.26v0h0a1.45,1.45,0,0,1-.12.51l0,.06c-.1.08-.25.16-.56.37a2.44,2.44,0,0,0-.59.7,2.16,2.16,0,0,1,.3-.7,2.7,2.7,0,0,1,.79-.63l.09-.41a.74.74,0,0,0-.24-.11,5,5,0,0,1-.66-.09h0c.22,0,.35-.09.67-.15Zm1.37,2.81a3.14,3.14,0,0,0-1.56,1.48s.73,0,1.13.07.68.05.77.06.27,0,.22-.32S19.15,14,19,14a1.35,1.35,0,0,0-.44,0,2.45,2.45,0,0,0,.19-.79Zm-5.43,0a.6.6,0,0,0-.08.08,3,3,0,0,1,.39,1,2.84,2.84,0,0,1-.19,1.27,4.77,4.77,0,0,1,.22.88l0,0s.84-.45,1.3-.63l.26-.1c0-.19,0-.45.06-.69h-.23a1.14,1.14,0,0,1-1-.59h0a3.49,3.49,0,0,1-.37-1,.56.56,0,0,1-.42-.22ZM17,14.87h0a1.28,1.28,0,0,0-.15.31l.45-.08c.76-.11,1.39-.13,1.49-.15s.28,0,.35-.06a3.6,3.6,0,0,1-.44,0l-1.69,0Z"/><path class="cls-3" d="M11.68,4.12a2.15,2.15,0,0,1-.19.61,2.81,2.81,0,0,1-.23.39c-.14.18-.42.57-.67,1l-.06.08.29,0,.42,0a3.57,3.57,0,0,1,.86,0,4.5,4.5,0,0,1,1.23.31A2.14,2.14,0,0,1,14.56,8h0a.13.13,0,0,1,0,.06v0a.22.22,0,0,1,0,.08h0A14.11,14.11,0,0,1,16.28,8a10.12,10.12,0,0,1,1.44.11,6.21,6.21,0,0,0-1.33-1.93,7.62,7.62,0,0,0-4.71-2.09ZM9.49,8.65a.29.29,0,0,0,0,.09c0,.11,0,.22-.05.33.28-.08.6-.15.92-.21h0l-.16,0-.33-.07-.36-.09ZM19,9.51a2.89,2.89,0,0,1-.45.13,4,4,0,0,1-1.12-.05,2.13,2.13,0,0,0-.91.05c-.16.1-.13.43-.13.43a1,1,0,0,1,.45-.22,2.25,2.25,0,0,1,.73,0,1.25,1.25,0,0,0-.37.13,3.59,3.59,0,0,0,1.12.16A.73.73,0,0,0,19,9.51Zm-3.71.23-.48,0v0a1.72,1.72,0,0,1-.95,1.13,11.18,11.18,0,0,1-2.11,1.44,2.74,2.74,0,0,0-1.09,1.77c.11-1.8,1.22-2,2.43-2.93l.11-.07,0,0a3,3,0,0,1-.6-.07,3.76,3.76,0,0,1-.38.24,4,4,0,0,0-1.08.91c.17-.57.57-.81,1.18-1.24a2,2,0,0,1-.65-.42,8.66,8.66,0,0,0-1.66,1.15,8.52,8.52,0,0,1-2.1,1.39,24.8,24.8,0,0,0,2.35-2s-1.59.92-2,1.23a6,6,0,0,1,1.33-1.06,18.48,18.48,0,0,0-2.56,1.3,12.43,12.43,0,0,0-1.64,1.46c.17,0,.84-.17,1-.19,1.2-.12,2.51,0,3.66-1.41l.05-.07a4.54,4.54,0,0,0-.12,1.36,2.27,2.27,0,0,0,1.29,1.85,2.06,2.06,0,0,1,.09-.78,2.46,2.46,0,0,1,.61-1.07,2.9,2.9,0,0,0-.42,2,4.91,4.91,0,0,1,.92-2c.77-1,1.5-1.46,2.1-2.2a3.4,3.4,0,0,0,.64-1.16,3,3,0,0,0,.16-.72Zm-3.93.51a12.7,12.7,0,0,0-5.05,2.12,15.75,15.75,0,0,0-2.51,2.25,9.21,9.21,0,0,1,1.12-.43,12.52,12.52,0,0,1,1.66-1.51,19.78,19.78,0,0,1,4.9-2.29.61.61,0,0,1-.07-.1l0,0Zm7.12,1.66a2.12,2.12,0,0,0-.91.21,3.44,3.44,0,0,0-1.69,1.65,5.28,5.28,0,0,0-.35,1.91,9.33,9.33,0,0,1-.15,2,4.6,4.6,0,0,0,.46-1.92,3.41,3.41,0,0,1,1-2.57,4.23,4.23,0,0,0-.63,1.72c-.16,1.07-.13,1.49-.32,2.38l0,.17a5.48,5.48,0,0,0,.72-2.28c.23-1.44.65-2.08,1.22-2.42a4.27,4.27,0,0,0-.95,2.05,3.87,3.87,0,0,1,1.13-1.54,4.6,4.6,0,0,1,1.29-.61,1.2,1.2,0,0,0-.4-.73,1.52,1.52,0,0,0-.38,0ZM9.69,13a2.65,2.65,0,0,1-1.12.79h0a1.7,1.7,0,0,0,.63.17,1.56,1.56,0,0,0,.51-.09,4.34,4.34,0,0,1,0-.88Zm3.28.37a6.64,6.64,0,0,0-1,1.37A4.11,4.11,0,0,0,11.67,16c.29.18.64.4.83.55l.15-.33c.31-.61.61-.82.73-1.46A1.56,1.56,0,0,0,13,13.41Zm-2.34,2.21a2.28,2.28,0,0,0,.3,1.08,4.17,4.17,0,0,0,1.23.9,6.65,6.65,0,0,1,.26-.82c-.16-.12-.63-.47-.91-.63a6.65,6.65,0,0,1-.88-.53Zm2.6.19a3.16,3.16,0,0,1-.18.27,6.7,6.7,0,0,0-.68,1.65l.13.08a2.48,2.48,0,0,1,.34.29c.07-.14.22-.27.28-.38a2.19,2.19,0,0,0,.33-1.29,1.74,1.74,0,0,0-.22-.62Zm-1.59,1.8a1.26,1.26,0,0,0,.2.72,1.78,1.78,0,0,0,.57.52l.32-.57a3.61,3.61,0,0,0-.42-.3c-.16-.1-.43-.24-.67-.37Zm1.46.47s-.27.37-.47.72a5.62,5.62,0,0,0-.31.73l0,0a1.62,1.62,0,0,1,.29.32,2.66,2.66,0,0,0,.49-.83,1.81,1.81,0,0,0,0-1ZM12,18.77a.38.38,0,0,0-.1.41.48.48,0,0,0,.26.28c.07-.22.16-.47.16-.47a1.45,1.45,0,0,1-.32-.22Zm-.09.69a.38.38,0,0,0-.07.3c0,.17.19.24.36.33a.49.49,0,0,1,.22.25.27.27,0,0,0,.11-.35.69.69,0,0,0-.36-.33.91.91,0,0,1-.26-.2Zm-.06.55c-.17.29-.09.36.14.53a.29.29,0,0,1,.13.27s.22-.11.21-.25a.75.75,0,0,0-.27-.37,1.29,1.29,0,0,1-.21-.18Zm0,.55c-.1.12-.14.36-.08.43a.12.12,0,0,0,.19,0,.18.18,0,0,0,0-.25,1.37,1.37,0,0,1-.11-.18Z"/><path class="cls-4" d="M17.84,8.38a8.7,8.7,0,0,0-1.56-.13,14.93,14.93,0,0,0-1.69.1h0a1.79,1.79,0,0,1-3.41.73L10.9,9l-.53.08c-.34.06-.69.14-1,.22,0,.15,0,.39,0,.41,0,.87,0,.81,0,.81.25-.1,1.17-.34,1.17-.34l1-.2a1.6,1.6,0,0,0,1.45.9,1.62,1.62,0,0,0,1.59-1.32,13,13,0,0,1,3.62-.05,6.29,6.29,0,0,0-.33-1.13"/></svg>